<svg width="163" height="49" viewBox="0 0 163 49" fill="none" xmlns="http://www.w3.org/2000/svg">
<path d="M156.526 0H6.02214C2.6962 0 0 2.6962 0 6.02214V42.1414C0 45.4673 2.6962 48.1635 6.02214 48.1635H156.526C159.852 48.1635 162.548 45.4673 162.548 42.1414V6.02214C162.548 2.6962 159.852 0 156.526 0Z" fill="#050505"/>
<path d="M82.0389 26.1922C79.2084 26.1922 76.897 28.3456 76.897 31.3115C76.897 34.2774 79.2039 36.4308 82.0389 36.4308C84.8739 36.4308 87.1807 34.2594 87.1807 31.3115C87.1807 28.3636 84.8739 26.1922 82.0389 26.1922ZM82.0389 34.4174C80.4859 34.4174 79.1497 33.1353 79.1497 31.3115C79.1497 29.4877 80.4904 28.2102 82.0389 28.2102C83.5873 28.2102 84.9281 29.4697 84.9281 31.3115C84.9281 33.1534 83.5918 34.4174 82.0389 34.4174ZM70.8252 26.1922C67.9947 26.1922 65.6834 28.3456 65.6834 31.3115C65.6834 34.2774 67.9902 36.4308 70.8252 36.4308C73.6602 36.4308 75.9671 34.2594 75.9671 31.3115C75.9671 28.3636 73.6602 26.1922 70.8252 26.1922ZM70.8252 34.4174C69.2723 34.4174 67.9361 33.1353 67.9361 31.3115C67.9361 29.4877 69.2723 28.2102 70.8252 28.2102C72.3782 28.2102 73.7144 29.4697 73.7144 31.3115C73.7144 33.1534 72.3782 34.4174 70.8252 34.4174ZM57.4853 27.7632V29.9346H62.6859C62.5324 31.158 62.1216 32.0473 61.5031 32.6703C60.7447 33.4287 59.5619 34.2594 57.4899 34.2594C54.2892 34.2594 51.7882 31.6817 51.7882 28.481C51.7882 25.2803 54.2892 22.7027 57.4899 22.7027C59.2143 22.7027 60.4784 23.3798 61.4083 24.2556L62.9387 22.7252C61.6385 21.4838 59.9141 20.5312 57.4899 20.5312C53.1064 20.5312 49.4182 24.1021 49.4182 28.4855C49.4182 32.869 53.1019 36.4398 57.4899 36.4398C59.8554 36.4398 61.6431 35.6633 63.038 34.2097C64.4736 32.7742 64.9205 30.7562 64.9205 29.1266C64.9205 28.621 64.8798 28.156 64.8031 27.7677H57.4899L57.4853 27.7632ZM112.037 29.4516C111.608 28.305 110.312 26.1922 107.653 26.1922C104.994 26.1922 102.823 28.2688 102.823 31.3115C102.823 34.1826 104.994 36.4308 107.906 36.4308C110.254 36.4308 111.612 34.9952 112.172 34.1601L110.425 32.9954C109.843 33.8486 109.048 34.4129 107.902 34.4129C106.755 34.4129 105.942 33.8892 105.419 32.8599L112.267 30.0294L112.032 29.4471L112.037 29.4516ZM105.053 31.158C104.994 29.1807 106.583 28.1695 107.73 28.1695C108.624 28.1695 109.378 28.6164 109.631 29.2575L105.053 31.158ZM99.4868 36.1238H101.735V21.0685H99.4868V36.1193V36.1238ZM95.8031 27.3389H95.7264C95.2208 26.7385 94.2502 26.1922 93.0313 26.1922C90.4717 26.1922 88.1242 28.4404 88.1242 31.3341C88.1242 34.2278 90.4717 36.4353 93.0313 36.4353C94.2547 36.4353 95.2253 35.8936 95.7264 35.2706H95.8031V36.0064C95.8031 37.9657 94.7558 39.013 93.0674 39.013C91.6905 39.013 90.8373 38.0243 90.4897 37.1892L88.5305 38.0018C89.0948 39.3606 90.5845 41.0264 93.0674 41.0264C95.7038 41.0264 97.9384 39.4734 97.9384 35.6904V26.4947H95.8031V27.3299V27.3389ZM93.2254 34.4174C91.6725 34.4174 90.3724 33.1172 90.3724 31.3341C90.3724 29.5509 91.6725 28.2102 93.2254 28.2102C94.7784 28.2102 95.9611 29.5283 95.9611 31.3341C95.9611 33.1398 94.7603 34.4174 93.2254 34.4174ZM122.582 21.073H117.197V36.1238H119.445V30.4222H122.582C125.074 30.4222 127.521 28.621 127.521 25.7453C127.521 22.8697 125.074 21.0685 122.582 21.0685V21.073ZM122.641 28.3275H119.445V23.1676H122.641C124.32 23.1676 125.273 24.558 125.273 25.7453C125.273 26.9326 124.32 28.323 122.641 28.323V28.3275ZM136.527 26.1652C134.902 26.1652 133.213 26.8829 132.518 28.4675L134.514 29.2981C134.938 28.4675 135.732 28.1921 136.568 28.1921C137.728 28.1921 138.911 28.8873 138.929 30.1287V30.2822C138.522 30.052 137.651 29.6999 136.586 29.6999C134.437 29.6999 132.247 30.8826 132.247 33.0902C132.247 35.1036 134.008 36.4037 135.985 36.4037C137.498 36.4037 138.328 35.7265 138.852 34.932H138.929V36.0922H141.096V30.3229C141.096 27.6504 139.1 26.1606 136.527 26.1606V26.1652ZM136.256 34.4129C135.52 34.4129 134.496 34.0472 134.496 33.1353C134.496 31.9751 135.773 31.5282 136.879 31.5282C137.868 31.5282 138.333 31.7404 138.933 32.0338C138.757 33.4287 137.556 34.4174 136.261 34.4174L136.256 34.4129ZM149 26.4947L146.422 33.0224H146.346L143.673 26.4947H141.254L145.262 35.6137L142.978 40.6878H145.321L151.497 26.4947H149ZM128.762 36.1238H131.01V21.0685H128.762V36.1193V36.1238Z" fill="white"/>
<path d="M12.5636 9.07662C12.2114 9.44679 12.0083 10.0246 12.0083 10.7695V37.3996C12.0083 38.1445 12.216 38.7223 12.5636 39.0925L12.6539 39.1783L27.5692 24.2584V23.9062L12.6539 8.98633L12.5636 9.0721V9.07662Z" fill="white"/>
<path d="M12.6582 39.7653L12.2699 39.3861C11.8185 38.9076 11.5837 38.2214 11.5837 37.3908V10.7652C11.5837 9.93453 11.814 9.24835 12.2564 8.78337L12.6536 8.39062L27.9934 23.7304V24.4301L12.6582 39.7653ZM12.6852 9.61401C12.5182 9.90744 12.4279 10.3002 12.4279 10.7652V37.3953C12.4279 37.8603 12.5137 38.2485 12.6852 38.5464L27.1492 24.078L12.6852 9.61853V9.61401Z" fill="black"/>
<path d="M32.5438 29.2295L27.5735 24.2547V23.9025L32.5483 18.9277L32.6612 18.9909L38.5524 22.3361C40.2362 23.2931 40.2362 24.8551 38.5524 25.8121L32.6612 29.1572L32.5483 29.2204L32.5438 29.2295Z" fill="white"/>
<path d="M32.4718 29.7573L27.1494 24.4303V23.7306L32.4718 18.4082L38.7558 21.9791C39.7083 22.5208 40.232 23.2656 40.232 24.0827C40.232 24.8998 39.7083 25.6492 38.7558 26.1864L32.4718 29.7573ZM27.9936 24.0827L32.6163 28.7054L38.3405 25.4506C39.0176 25.0669 39.3878 24.5793 39.3878 24.0782C39.3878 23.5771 39.0176 23.0896 38.3405 22.7059L32.6163 19.4555L27.9936 24.0782V24.0827Z" fill="black"/>
<path d="M32.6571 29.1677L27.5739 24.0801L12.5637 39.0903C13.119 39.6771 14.0354 39.7494 15.0647 39.1625L32.6526 29.1677" fill="white"/>
<path d="M13.7103 39.9933C13.146 39.9933 12.6449 39.7902 12.2567 39.3794L11.9768 39.0814L27.5694 23.4844L33.3432 29.2582L15.2723 39.5238C14.7306 39.8308 14.1934 39.9843 13.7058 39.9843L13.7103 39.9933ZM13.2092 39.0453C13.6426 39.244 14.2204 39.1627 14.857 38.797L31.9663 29.0776L27.5694 24.6807L13.2092 39.0408V39.0453Z" fill="black"/>
<path d="M32.6567 18.9962L15.0688 9.0014C14.035 8.41453 13.1231 8.48676 12.5679 9.07363L27.569 24.0838L32.6522 18.9962H32.6567Z" fill="white"/>
<path d="M27.5691 24.6792L11.9766 9.08209L12.2565 8.78414C12.9742 8.02573 14.1028 7.96705 15.272 8.63517L33.343 18.9008L27.5691 24.6746V24.6792ZM13.209 9.12272L27.5691 23.4829L31.9661 19.0859L14.8567 9.3665C14.2202 9.00535 13.6424 8.92409 13.209 9.11821V9.12272Z" fill="black"/>
<path opacity="0.2" d="M32.5438 29.0527L15.0688 38.9843C14.0892 39.5396 13.2179 39.5034 12.6582 38.9978L12.5679 39.0881L12.6582 39.1739C13.2179 39.6795 14.0937 39.7156 15.0688 39.1604L32.6567 29.1656L32.5438 29.0527Z" fill="#050505"/>
<path opacity="0.12" d="M12.5633 38.9136C12.2112 38.5434 12.0081 37.9656 12.0081 37.2207V37.3968C12.0081 38.1416 12.2157 38.7195 12.5633 39.0896L12.6536 38.9994L12.5633 38.9136Z" fill="#050505"/>
<path opacity="0.12" d="M38.548 25.6453L32.5439 29.0582L32.6568 29.171L38.548 25.8259C39.3877 25.3474 39.812 24.7199 39.812 24.0879C39.7398 24.6567 39.311 25.2165 38.548 25.6499V25.6453Z" fill="#050505"/>
<path d="M49.7031 15.6507V8.42773H51.9106C53.0212 8.42773 53.9105 8.7618 54.5741 9.42992C55.2377 10.098 55.5718 10.9693 55.5718 12.0392C55.5718 13.1091 55.2377 13.9804 54.5741 14.6485C53.906 15.3166 53.0212 15.6507 51.9106 15.6507H49.7031ZM50.6331 14.7614H51.9152C52.7503 14.7614 53.4094 14.5221 53.897 14.0436C54.3845 13.5651 54.6283 12.8969 54.6283 12.0347C54.6283 11.1725 54.3845 10.5134 53.897 10.0303C53.4094 9.55181 52.7503 9.30803 51.9152 9.30803H50.6331V14.7568V14.7614Z" fill="white"/>
<path d="M56.8762 15.6507V8.42773H57.8062V15.6507H56.8762Z" fill="white"/>
<path d="M61.4993 15.8136C60.9757 15.8136 60.4611 15.6421 59.96 15.299C59.4589 14.9559 59.1293 14.4728 58.9758 13.8544L59.8245 13.5113C59.9238 13.9086 60.1315 14.2426 60.443 14.5135C60.759 14.7843 61.1066 14.9243 61.4993 14.9243C61.8921 14.9243 62.2487 14.8205 62.5331 14.6083C62.8175 14.3961 62.962 14.1072 62.962 13.746C62.962 13.3443 62.8221 13.0328 62.5331 12.8116C62.2487 12.5949 61.7928 12.3872 61.1743 12.2021C60.5333 11.999 60.0502 11.7417 59.7207 11.4212C59.3911 11.1006 59.2241 10.6943 59.2241 10.1933C59.2241 9.69216 59.4318 9.22718 59.8381 8.84346C60.2489 8.45974 60.7816 8.26562 61.4407 8.26562C62.0546 8.26562 62.5512 8.41911 62.9349 8.72609C63.3186 9.03306 63.5669 9.36713 63.6798 9.72827L62.8311 10.0804C62.7679 9.85016 62.6189 9.63799 62.3842 9.44387C62.1449 9.24975 61.8379 9.15044 61.4587 9.15044C61.1021 9.15044 60.7996 9.24975 60.5468 9.44838C60.294 9.64701 60.1676 9.8953 60.1676 10.1887C60.1676 10.4596 60.285 10.6853 60.5152 10.8704C60.75 11.0555 61.0885 11.2225 61.54 11.3715C61.8966 11.4844 62.1946 11.5972 62.4338 11.7056C62.6731 11.8139 62.9169 11.9538 63.1606 12.1344C63.4044 12.3105 63.5895 12.5362 63.7159 12.8025C63.8423 13.0689 63.901 13.3759 63.901 13.7235C63.901 14.0711 63.8288 14.3871 63.6843 14.6625C63.5398 14.9378 63.3457 15.159 63.1065 15.317C62.8672 15.4795 62.6099 15.6014 62.3345 15.6872C62.0591 15.773 61.7747 15.8136 61.4858 15.8136H61.4993Z" fill="white"/>
<path d="M66.1714 15.6507H65.2415V8.42773H67.7018C68.3112 8.42773 68.8439 8.63088 69.2908 9.03717C69.7377 9.44346 69.9635 9.9581 69.9635 10.5766C69.9635 11.195 69.7423 11.7097 69.2908 12.116C68.8439 12.5222 68.3157 12.7254 67.7018 12.7254H66.1669V15.6507H66.1714ZM66.1714 11.8361H67.7243C68.1126 11.8361 68.4286 11.7051 68.6633 11.4433C68.8981 11.1815 69.0154 10.8926 69.0154 10.5766C69.0154 10.2606 68.8981 9.97164 68.6633 9.70981C68.4286 9.44798 68.1171 9.31706 67.7243 9.31706H66.1714V11.8406V11.8361Z" fill="white"/>
<path d="M77.042 14.7205C76.3332 15.4519 75.4484 15.813 74.3921 15.813C73.3357 15.813 72.4509 15.4473 71.7421 14.7205C71.0334 13.9892 70.6768 13.0999 70.6768 12.0435C70.6768 10.9872 71.0289 10.0933 71.7421 9.36652C72.4509 8.63519 73.3357 8.26953 74.3921 8.26953C75.4484 8.26953 76.3242 8.63519 77.0375 9.37103C77.7507 10.1024 78.1074 10.9962 78.1074 12.0435C78.1074 13.0909 77.7507 13.9937 77.042 14.7205ZM72.4283 14.1156C72.9655 14.6573 73.6156 14.9282 74.3921 14.9282C75.1685 14.9282 75.8186 14.6573 76.3558 14.1156C76.893 13.5739 77.1594 12.8832 77.1594 12.0435C77.1594 11.2039 76.893 10.5132 76.3558 9.97144C75.8231 9.42972 75.1685 9.15886 74.3921 9.15886C73.6156 9.15886 72.9655 9.42972 72.4283 9.97144C71.8956 10.5132 71.6248 11.2039 71.6248 12.0435C71.6248 12.8832 71.8911 13.5739 72.4283 14.1156Z" fill="white"/>
<path d="M79.4073 15.6507V8.42773H80.5359L84.0481 14.0481H84.0887L84.0481 12.6577V8.43225H84.9781V15.6552H84.0075L80.3328 9.76398H80.2922L80.3328 11.1544V15.6552H79.4028L79.4073 15.6507Z" fill="white"/>
<path d="M86.6306 15.6507V8.42773H87.5606V15.6507H86.6306Z" fill="white"/>
<path d="M89.2126 15.6507V8.42773H91.8265C92.3907 8.42773 92.8828 8.61282 93.2936 8.98751C93.7089 9.3622 93.9166 9.8317 93.9166 10.396C93.9166 10.7391 93.8263 11.0415 93.6502 11.3034C93.4742 11.5652 93.2349 11.7638 92.937 11.8993V11.9399C93.2936 12.0618 93.5871 12.2694 93.8173 12.5674C94.0475 12.8653 94.1604 13.2084 94.1604 13.5967C94.1604 14.188 93.9437 14.6801 93.5103 15.0683C93.0769 15.4566 92.5623 15.6552 91.9709 15.6552H89.2172L89.2126 15.6507ZM90.1426 11.5246H91.8265C92.1786 11.5246 92.4585 11.4072 92.6706 11.177C92.8828 10.9467 92.9866 10.6894 92.9866 10.414C92.9866 10.1387 92.8828 9.88587 92.6797 9.65564C92.4765 9.4254 92.2057 9.31255 91.8671 9.31255H90.1426V11.5201V11.5246ZM90.1426 14.7659H92.0115C92.3682 14.7659 92.6571 14.6395 92.8783 14.3912C93.0995 14.1429 93.2124 13.872 93.2124 13.5741C93.2124 13.2761 93.0995 13.0098 92.8693 12.7615C92.639 12.5177 92.3411 12.3913 91.9709 12.3913H90.1426V14.7614V14.7659Z" fill="white"/>
<path d="M95.4111 15.6507V8.42773H96.3411V14.7659H99.4695V15.6552H95.4156L95.4111 15.6507Z" fill="white"/>
<path d="M104.855 9.31706H101.564V11.6058H104.53V12.4726H101.564V14.7614H104.855V15.6507H100.638V8.42773H104.855V9.31706Z" fill="white"/>
<path d="M112.945 9.31706H109.654V11.6058H112.62V12.4726H109.654V14.7614H112.945V15.6507H108.728V8.42773H112.945V9.31706Z" fill="white"/>
<path d="M114.398 15.6507V8.42773H115.527L119.039 14.0481H119.08L119.039 12.6577V8.43225H119.969V15.6552H118.998L115.324 9.76398H115.283L115.324 11.1544V15.6552H114.394L114.398 15.6507Z" fill="white"/>
</svg>
