<svg width="123" height="38" viewBox="0 0 123 38" fill="none" xmlns="http://www.w3.org/2000/svg">
<path d="M87.8701 17.9293C87.7201 17.7293 87.5101 17.5693 87.2701 17.4493C87.0301 17.3393 86.7501 17.2793 86.4501 17.2793C86.1001 17.2793 85.7801 17.3493 85.4701 17.4993C85.1601 17.6493 84.8901 17.8393 84.6501 18.0893C84.4201 18.3293 84.2301 18.6193 84.0801 18.9593C83.9301 19.2893 83.8501 19.6493 83.8401 20.0293C83.8201 20.3393 83.8601 20.6093 83.9401 20.8593C84.0201 21.0993 84.1401 21.3093 84.3001 21.4893C84.4601 21.6593 84.6601 21.7893 84.8801 21.8893C85.3601 22.0793 86.0101 22.0693 86.5501 21.8493C86.8301 21.7293 87.0801 21.5693 87.3101 21.3593C87.5401 21.1493 87.7301 20.8993 87.8801 20.6093C88.0301 20.3293 88.1401 20.0093 88.2001 19.6593C88.2601 19.2993 88.2601 18.9593 88.2001 18.6693C88.1401 18.3893 88.0301 18.1393 87.8701 17.9293V17.9293Z" fill="#00F9D2"/>
<path d="M76.1 17.9293C75.95 17.7293 75.74 17.5693 75.5 17.4493C75.26 17.3393 74.98 17.2793 74.68 17.2793C74.33 17.2793 74 17.3493 73.69 17.4993C73.38 17.6493 73.11 17.8393 72.87 18.0893C72.64 18.3293 72.45 18.6193 72.3 18.9593C72.15 19.2893 72.07 19.6493 72.06 20.0293C72.04 20.3393 72.08 20.6093 72.16 20.8593C72.24 21.0993 72.36 21.3093 72.52 21.4893C72.68 21.6593 72.88 21.7893 73.1 21.8893C73.59 22.0793 74.24 22.0693 74.77 21.8493C75.05 21.7293 75.31 21.5693 75.53 21.3593C75.76 21.1493 75.95 20.8993 76.1 20.6093C76.25 20.3293 76.37 20.0093 76.42 19.6593C76.48 19.2993 76.48 18.9593 76.42 18.6693C76.36 18.3893 76.25 18.1393 76.09 17.9293H76.1Z" fill="#00F9D2"/>
<path d="M98.2301 17.4395C96.7601 17.4395 95.6801 18.5495 95.6801 20.0795C95.6801 21.2995 96.4601 22.0295 97.7401 22.0295C99.2101 22.0295 100.29 20.9095 100.29 19.3795C100.29 18.1695 99.5101 17.4395 98.2301 17.4395V17.4395Z" fill="#00F9D2"/>
<path d="M120.77 6.20922H53.68C52.88 6.20922 52.19 6.76922 52.02 7.54922L49.88 17.6392C48.33 24.9292 53.89 31.7892 61.34 31.7892H115.74C116.54 31.7892 117.23 31.2292 117.4 30.4492L122.23 8.00922C122.43 7.07922 121.72 6.19922 120.77 6.19922V6.20922ZM63.2 20.0592C63.2 20.0592 60.26 20.0392 60.14 20.0392C60.12 20.0992 59.64 22.7192 59.37 23.8992C59.21 24.5992 58.54 24.5992 58.5 24.5992H57.21H56.17C56.17 24.5992 56.07 24.5992 55.99 24.5192C55.91 24.4392 55.93 24.3292 55.93 24.3292L58.58 11.1092C58.6 10.9992 58.7 10.9192 58.81 10.9192H64.03C67.06 10.9192 68.88 12.4992 68.88 15.1392C68.88 18.1592 66.7 20.0292 63.19 20.0292L63.2 20.0592ZM78.17 24.5992H75.72C75.72 24.5992 75.62 24.5992 75.56 24.5292C75.49 24.4692 75.51 24.3492 75.51 24.3492C75.55 24.1292 75.62 23.8192 75.66 23.5692C74.7 24.3792 73.65 24.7392 72.43 24.6892C70.18 24.5792 68.7 23.0592 68.68 20.8092C68.66 18.2092 70.27 15.8392 72.68 14.9192C73.42 14.6392 74.18 14.5092 74.95 14.5592C75.81 14.6192 76.66 15.0292 77.23 15.6892C77.29 15.3592 77.38 14.8892 77.38 14.8892C77.4 14.7892 77.49 14.7192 77.59 14.7192H80.04L80.21 14.7892L80.26 14.9692L78.38 24.4292C78.36 24.5292 78.27 24.5992 78.17 24.5992V24.5992ZM90.39 23.2092C90.34 23.5092 90.25 23.9892 90.18 24.3092C89.71 26.9192 87.79 29.1592 84.4 29.1592C81.58 29.1592 79.95 27.7992 79.98 25.6192C79.98 25.4692 80.1 25.3492 80.25 25.3492H82.74C82.86 25.3492 82.97 25.4292 83 25.5492C83.16 26.1692 83.78 26.5592 84.73 26.5592C85.87 26.5592 86.87 25.9592 87.17 24.3092L87.28 23.6892C86.36 24.4192 85.35 24.7492 84.2 24.6892C81.95 24.5792 80.47 23.0592 80.45 20.8092C80.43 18.2092 82.03 15.8392 84.45 14.9192C85.18 14.6392 85.94 14.5092 86.72 14.5592C87.58 14.6192 88.43 15.0292 89 15.6892C89.06 15.3592 89.15 14.8892 89.15 14.8892C89.17 14.7792 89.26 14.7192 89.36 14.7192H91.81L91.98 14.7892L92.03 14.9692L90.39 23.2092ZM97.54 24.9992C94.49 24.9992 92.52 23.1492 92.52 20.2792C92.52 16.9192 95 14.4892 98.41 14.4892C101.46 14.4892 103.43 16.3392 103.43 19.2092C103.43 22.5692 100.95 24.9992 97.54 24.9992ZM112.21 15.5392L111.34 17.4892L111.21 17.6092H111.04C110.16 17.1792 109.26 16.9692 108.57 17.0292C107.88 17.0892 107.91 17.4092 107.92 17.5192C107.94 17.7092 107.97 17.8092 108.7 18.1992L109.93 18.8192C111.25 19.4892 111.83 20.2492 111.94 21.4692C112.12 23.4792 110.84 24.7492 108.43 24.9592C106.82 25.0992 105.26 24.6792 103.89 23.7592C103.8 23.6892 103.77 23.5692 103.82 23.4692L104.92 21.5392L105.06 21.4292L105.23 21.4592C106.34 22.1492 107.38 22.4692 108.24 22.3992C108.52 22.3792 108.99 22.2692 108.95 21.8692C108.93 21.6892 108.88 21.5492 108.32 21.2492L106.95 20.5292C105.71 19.8692 105.06 18.9992 104.96 17.8592C104.79 15.9692 106.03 14.6792 108.19 14.4992C109.43 14.3892 110.77 14.6492 112.08 15.2492C112.19 15.2992 112.24 15.4292 112.19 15.5392H112.21Z" fill="#00F9D2"/>
<path d="M63.81 13.7788C63.81 13.7788 61.53 13.7588 61.4 13.7588C61.38 13.8988 60.73 17.1288 60.71 17.2088C60.79 17.2088 63.31 17.1888 63.31 17.1888C64.76 17.1888 65.59 16.4988 65.59 15.2888C65.59 14.3088 64.96 13.7788 63.81 13.7788Z" fill="#00F9D2"/>
<path d="M25.7401 0.409648H25.3101L23.34 0.389648H0.700048C0.340048 0.389648 0.0500488 0.679648 0.0500488 1.03965V4.62965C0.0500488 8.56965 2.83005 10.7396 7.88005 10.7396L25.75 10.7696C27.64 10.7696 29.17 12.2996 29.17 14.1896C29.17 16.0796 27.64 17.6096 25.75 17.6096H5.70005C5.41005 17.6096 5.15005 17.8096 5.08005 18.0896L0.340049 36.8196C0.290049 37.0096 0.340049 37.2096 0.460049 37.3696C0.580049 37.5296 0.770049 37.6196 0.960049 37.6196H7.31005C9.69005 37.6196 10.83 35.6396 11.1 34.6096L12.97 27.7996H25.73C33.28 27.7996 39.42 21.6596 39.42 14.1096C39.42 6.55965 33.28 0.419648 25.73 0.419648" fill="#00F9D2"/>
</svg>
