<svg width="268" height="36" viewBox="0 0 268 36" fill="none" xmlns="http://www.w3.org/2000/svg">
<g clip-path="url(#clip0_418_826)">
<path d="M67.9304 1.3418C66.0297 1.3418 64.6232 2.79867 64.5852 4.79228C64.5852 6.36416 65.5355 7.32263 67.2082 7.32263C69.1088 7.32263 70.5153 5.86576 70.5534 3.87215C70.5534 2.26192 69.603 1.3418 67.9304 1.3418Z" fill="#00F9D2"/>
<path d="M62.0003 2.14652C62.0003 2.14652 61.8103 1.99316 61.6962 1.99316H57.5147C57.5147 1.99316 57.1726 2.10818 57.1346 2.29987C57.1346 2.29987 55.538 10.3893 55.424 10.9261C54.3596 9.04748 52.3068 7.89732 49.7599 7.89732C44.6661 7.89732 40.9788 12.0379 40.9788 17.712C40.9788 22.3893 43.7538 25.5331 47.9353 25.5331C49.912 25.5331 51.6986 24.728 52.9911 23.2711C52.9151 23.6928 52.839 24.1146 52.725 24.5746C52.725 24.6896 52.725 24.8047 52.801 24.8813C52.877 24.958 52.9911 25.0347 53.0671 25.0347H57.2486C57.2486 25.0347 57.5907 24.9197 57.6288 24.728L62.0764 2.41489C62.0764 2.41489 62.0764 2.18486 62.0003 2.10818M53.9794 16.7152C53.8654 17.3286 53.6753 17.8654 53.4092 18.3638C53.1431 18.8622 52.801 19.3222 52.4209 19.6673C52.0407 20.0507 51.5846 20.319 51.0904 20.5491C50.1781 20.9325 49.0377 20.9708 48.2014 20.6258C47.8212 20.4724 47.4791 20.2424 47.175 19.9357C46.9089 19.6289 46.6808 19.2456 46.5668 18.8238C46.4147 18.4021 46.3767 17.9037 46.4147 17.367C46.4147 16.7152 46.6048 16.1018 46.8329 15.4884C47.0609 14.9133 47.4031 14.3766 47.8212 13.9548C48.2394 13.5331 48.6955 13.1881 49.2277 12.9197C49.7599 12.6513 50.3301 12.5363 50.9383 12.5363C51.4705 12.5363 51.9647 12.6513 52.3829 12.843C52.801 13.0347 53.1431 13.3031 53.4092 13.6865C53.6753 14.0315 53.8654 14.4916 53.9794 14.99C54.0935 15.4884 54.0935 16.1018 53.9794 16.7152Z" fill="#00F9D2"/>
<path d="M68.5768 9.73828H64.2432C64.2432 9.73828 63.9011 9.8533 63.8631 10.0067L60.936 24.6137L61.0121 24.8821C61.0121 24.8821 61.2021 24.9971 61.3162 24.9971H65.6497C65.6497 24.9971 65.9919 24.8821 66.0299 24.7287L68.9569 10.1217L68.8809 9.8533C68.8809 9.8533 68.6908 9.73828 68.5768 9.73828Z" fill="#00F9D2"/>
<path d="M5.70205 23.7314C6.15822 21.7762 6.9565 17.3672 6.99452 17.2522C7.18458 17.2522 12.0883 17.2522 12.0883 17.2522C17.9044 17.2522 21.5538 14.1084 21.5538 9.04773C21.5538 4.60045 18.5507 1.95508 13.4949 1.95508H4.78972C4.78972 1.95508 4.4476 2.07009 4.40959 2.26179L0 24.4599C0 24.4599 0 24.6899 0.0760273 24.7666C0.152055 24.8433 0.266096 24.9199 0.380137 24.9199H4.25753C4.25753 24.9199 5.43596 24.9199 5.70205 23.7314ZM12.2404 12.4982C12.2404 12.4982 8.0589 12.4982 7.94486 12.4982C7.94486 12.3832 9.04726 6.9391 9.08527 6.70907C9.31335 6.70907 13.0767 6.70907 13.0767 6.70907C14.9774 6.70907 16.0418 7.59086 16.0418 9.23942C16.0418 11.2714 14.6733 12.4215 12.2404 12.4215" fill="#00F9D2"/>
<path d="M100.584 7.93652C94.9201 7.93652 90.7766 12.0388 90.7766 17.6362C90.7766 22.4669 94.0458 25.5723 99.1016 25.5723C104.766 25.5723 108.909 21.4701 108.909 15.8726C108.909 11.042 105.64 7.93652 100.584 7.93652ZM99.4437 20.5883C97.315 20.5883 96.0225 19.3614 96.0225 17.3295C96.0225 14.7608 97.8091 12.9205 100.242 12.9205C102.371 12.9205 103.663 14.1474 103.663 16.1793C103.663 18.748 101.877 20.6266 99.4437 20.6266" fill="#00F9D2"/>
<path d="M91.3848 2.14652C91.3848 2.14652 91.1948 1.99316 91.0807 1.99316H86.8992C86.8992 1.99316 86.5571 2.10818 86.5191 2.29987C86.5191 2.29987 84.9225 10.3893 84.8085 10.9261C83.7441 9.04748 81.6914 7.89732 79.1444 7.89732C74.0506 7.89732 70.3633 12.0379 70.3633 17.712C70.3633 22.3893 73.1383 25.5331 77.3198 25.5331C79.2965 25.5331 81.0831 24.728 82.3756 23.2711C82.2996 23.6928 82.2235 24.1146 82.1095 24.5746C82.1095 24.6896 82.1095 24.8047 82.1855 24.8813C82.2616 24.958 82.3756 25.0347 82.4516 25.0347H86.6331C86.6331 25.0347 86.9753 24.9197 87.0133 24.728L91.4609 2.41489C91.4609 2.41489 91.4609 2.18486 91.3848 2.10818M83.44 16.7152C83.3259 17.3286 83.1359 17.8654 82.8698 18.3638C82.6037 18.8622 82.2616 19.3222 81.8814 19.6673C81.5013 20.0507 81.0451 20.319 80.5509 20.5491C79.6386 20.9325 78.4982 20.9708 77.6619 20.6258C77.2818 20.4724 76.9396 20.2424 76.6736 19.9357C76.4075 19.6289 76.1794 19.2456 76.0653 18.8238C75.9133 18.4021 75.8753 17.9037 75.9133 17.367C75.9133 16.7152 76.1033 16.1018 76.3314 15.4884C76.5975 14.9133 76.9016 14.3766 77.3198 13.9548C77.7379 13.5331 78.1941 13.1881 78.7263 12.9197C79.2585 12.6513 79.8287 12.5363 80.4369 12.5363C80.9691 12.5363 81.4633 12.6513 81.8814 12.843C82.2996 13.0347 82.6417 13.3031 82.9458 13.6865C83.2119 14.0315 83.402 14.4916 83.516 14.99C83.6301 15.4884 83.6301 16.1018 83.516 16.7152" fill="#00F9D2"/>
<path d="M122.708 9.20139C120.541 8.20458 118.298 7.74452 116.246 7.93621C112.672 8.24292 110.582 10.4282 110.886 13.572C111.038 15.4889 112.14 16.9458 114.193 18.0576L116.474 19.2461C117.386 19.7445 117.5 19.9746 117.5 20.2813C117.576 20.9714 116.778 21.1247 116.322 21.163C114.915 21.2781 113.167 20.7413 111.304 19.5912H111L110.772 19.7062L108.947 22.965C108.947 22.965 108.909 23.3484 109.061 23.4634C111.342 25.0353 113.927 25.7253 116.588 25.4953C120.579 25.1503 122.708 23.0033 122.404 19.6295C122.214 17.5976 121.264 16.294 119.059 15.1822L117.006 14.1471C115.79 13.4953 115.752 13.3036 115.714 12.9969C115.714 12.8052 115.638 12.2685 116.816 12.1918C117.956 12.0768 119.439 12.4218 120.921 13.1503H121.187L121.416 12.9586L122.86 9.69979C122.86 9.69979 122.86 9.27807 122.67 9.20139" fill="#00F9D2"/>
<path d="M145.326 2.41558C145.326 2.41558 145.136 2.18555 144.984 2.18555H139.092C139.092 2.18555 138.826 2.26222 138.75 2.37724C138.75 2.37724 132.896 10.7734 132.478 11.5785C132.364 10.8117 129.475 2.49226 129.475 2.49226C129.436 2.30056 129.284 2.18555 129.094 2.18555H123.925C123.925 2.18555 123.658 2.26222 123.582 2.3389C123.506 2.45392 123.468 2.56893 123.544 2.72229L129.018 16.7159L127.384 24.8437C127.384 24.8437 127.384 25.0737 127.46 25.1887C127.536 25.2654 127.65 25.3421 127.764 25.3421H131.945C132.478 25.3421 132.972 24.9587 133.086 24.422L134.568 16.8693L145.326 2.79897C145.326 2.79897 145.44 2.53059 145.326 2.37724" fill="#00F9D2"/>
<path d="M157.871 8.77934C157.871 8.77934 157.719 8.66432 157.605 8.66432H153.537C153.537 8.66432 153.195 8.77934 153.195 8.97103C153.195 8.97103 153.043 9.7378 152.929 10.3129C152.017 9.20106 150.572 8.51097 149.128 8.43429C147.835 8.35761 146.581 8.5493 145.326 9.04771C141.297 10.5813 138.636 14.5685 138.674 18.9391C138.712 22.7346 141.183 25.265 144.908 25.4567C146.923 25.5717 148.672 24.9583 150.268 23.5781C150.192 23.9998 150.078 24.4982 150.002 24.8816L150.078 25.1883C150.078 25.1883 150.23 25.3033 150.344 25.3033H154.412C154.412 25.3033 154.716 25.1883 154.754 24.9966L157.871 9.12439C157.871 9.12439 157.871 8.89435 157.795 8.81768M151.485 16.9838C151.371 17.5589 151.219 18.0956 150.952 18.5557C150.686 19.0541 150.382 19.4758 150.002 19.8209C149.622 20.1659 149.204 20.4343 148.748 20.6643C147.873 21.0477 146.771 21.0477 145.973 20.741C145.592 20.5876 145.288 20.3576 145.022 20.0892C144.756 19.8209 144.566 19.4375 144.414 19.0541C144.262 18.6324 144.224 18.1723 144.262 17.6356C144.262 17.0221 144.414 16.4087 144.68 15.872C144.908 15.3352 145.25 14.8368 145.63 14.4151C146.011 13.9934 146.467 13.6867 146.999 13.4183C147.493 13.1883 148.063 13.0733 148.634 13.0733C149.128 13.0733 149.584 13.1499 150.002 13.3416C150.42 13.5333 150.724 13.8017 150.99 14.1467C151.257 14.4918 151.447 14.9135 151.523 15.3736C151.637 15.872 151.637 16.4087 151.523 17.0221" fill="#00F9D2"/>
<path d="M31.5135 7.93652C25.9254 7.93652 21.896 12.0388 21.896 17.6745C21.896 22.5436 25.1272 25.5723 30.373 25.5723C32.7299 25.5723 34.7066 24.9589 36.7593 23.5787C36.9494 23.4637 36.9874 23.1953 36.8354 23.042L34.2504 20.3582C34.2504 20.3582 33.9843 20.2049 33.8323 20.2816C32.6919 20.895 31.6655 21.1634 30.4871 21.1634C28.0922 21.1634 26.6857 20.0515 26.6857 18.1346H38.3939C38.3939 18.1346 38.7361 17.9813 38.7741 17.7896C39.0402 16.6011 39.1922 15.7193 39.1922 14.7991C39.1922 10.5819 36.2652 7.93652 31.5515 7.93652M27.2179 14.4541C27.9782 12.5755 29.3847 11.617 31.4754 11.617C33.5662 11.617 34.6686 12.5755 34.7066 14.4541C34.3645 14.4541 27.598 14.4541 27.2179 14.4541Z" fill="#00F9D2"/>
<path d="M219.719 16.4856C219.491 16.2172 219.225 15.9872 218.883 15.7955C218.541 15.6421 218.16 15.5654 217.742 15.5654C217.248 15.5654 216.792 15.6804 216.374 15.8721C215.956 16.0638 215.576 16.3322 215.233 16.7156C214.891 17.0606 214.663 17.4824 214.435 17.9424C214.245 18.4025 214.131 18.9009 214.093 19.4376C214.093 19.8594 214.093 20.2427 214.245 20.6261C214.359 20.9712 214.511 21.2779 214.739 21.5079C214.967 21.738 215.233 21.9296 215.538 22.083C216.222 22.3514 217.134 22.3514 217.856 22.0447C218.237 21.8913 218.617 21.6613 218.921 21.3546C219.225 21.0479 219.491 20.7028 219.719 20.2811C219.947 19.8977 220.099 19.4376 220.175 18.9392C220.251 18.4408 220.251 17.9424 220.175 17.559C220.099 17.1757 219.947 16.7923 219.719 16.5239V16.4856Z" fill="#00F9D2"/>
<path d="M203.335 16.4856C203.107 16.2172 202.841 15.9872 202.499 15.7955C202.157 15.6421 201.777 15.5654 201.359 15.5654C200.864 15.5654 200.408 15.6804 199.99 15.8721C199.572 16.0638 199.192 16.3322 198.85 16.7156C198.508 17.0606 198.279 17.4824 198.051 17.9424C197.861 18.4025 197.747 18.9009 197.709 19.4376C197.709 19.8594 197.709 20.2427 197.861 20.6261C197.975 20.9712 198.127 21.2779 198.355 21.5079C198.584 21.738 198.85 21.9296 199.154 22.083C199.838 22.3514 200.75 22.3514 201.473 22.0447C201.853 21.8913 202.233 21.6613 202.537 21.3546C202.841 21.0479 203.107 20.7028 203.335 20.2811C203.563 19.8977 203.715 19.4376 203.791 18.9392C203.867 18.4408 203.867 17.9424 203.791 17.559C203.715 17.1757 203.563 16.7923 203.335 16.5239V16.4856Z" fill="#00F9D2"/>
<path d="M234.164 15.7959C232.112 15.7959 230.629 17.3678 230.629 19.5147C230.629 21.24 231.694 22.2751 233.518 22.2751C235.571 22.2751 237.053 20.7032 237.053 18.5563C237.053 16.831 235.989 15.8342 234.164 15.8342V15.7959Z" fill="#00F9D2"/>
<path d="M265.602 0H172.05C170.948 0 169.959 0.805112 169.731 1.87859L166.728 16.0639C164.561 26.3003 172.316 35.9617 182.694 35.9617H258.569C259.671 35.9617 260.66 35.1949 260.888 34.0831L267.616 2.53035C267.882 1.22684 266.894 0 265.564 0L265.602 0ZM185.317 19.476C185.317 19.476 181.211 19.476 181.059 19.476C181.059 19.5527 180.375 23.2332 179.995 24.9201C179.767 25.9169 178.816 25.9169 178.778 25.9169H176.992H175.547C175.547 25.9169 175.395 25.9169 175.281 25.8019C175.167 25.6869 175.205 25.5335 175.205 25.5335L178.892 6.9393C178.892 6.9393 179.044 6.67093 179.197 6.67093H186.457C190.677 6.67093 193.224 8.89457 193.224 12.6134C193.224 16.869 190.183 19.5144 185.279 19.5144L185.317 19.476ZM206.186 25.8403H202.765C202.765 25.8403 202.613 25.8403 202.537 25.7252C202.423 25.6486 202.461 25.4569 202.461 25.4569C202.499 25.1502 202.613 24.6901 202.689 24.3834C201.359 25.5335 199.876 26.0319 198.203 25.9553C195.086 25.8019 192.996 23.6549 192.957 20.5112C192.957 16.8307 195.162 13.5335 198.546 12.23C199.572 11.8466 200.636 11.655 201.701 11.7316C202.879 11.8083 204.096 12.3834 204.894 13.3419C204.97 12.8818 205.122 12.23 205.122 12.23C205.122 12.0767 205.274 12 205.426 12H208.847L209.075 12.115L209.151 12.3834L206.528 25.6869C206.528 25.6869 206.376 25.9169 206.224 25.9169L206.186 25.8403ZM223.216 23.885C223.14 24.3067 223.026 24.9968 222.912 25.4185C222.266 29.099 219.567 32.2428 214.853 32.2428C210.9 32.2428 208.657 30.3259 208.695 27.2588C208.695 27.0671 208.847 26.8754 209.075 26.8754H212.535C212.535 26.8754 212.839 26.9904 212.915 27.1438C213.143 28.0256 214.017 28.5623 215.31 28.5623C216.906 28.5623 218.313 27.7188 218.731 25.4185L218.883 24.5367C217.59 25.5719 216.184 26.0319 214.587 25.9553C211.47 25.8019 209.379 23.6549 209.341 20.5112C209.341 16.8307 211.546 13.5335 214.929 12.23C215.956 11.8466 217.02 11.655 218.085 11.7316C219.263 11.8083 220.479 12.3834 221.278 13.3419C221.354 12.8818 221.506 12.23 221.506 12.23C221.506 12.0767 221.658 12 221.81 12H225.231L225.459 12.115L225.535 12.3834L223.254 23.9617L223.216 23.885ZM233.176 26.4153C228.918 26.4153 226.181 23.8083 226.181 19.7827C226.181 15.0671 229.641 11.655 234.392 11.655C238.65 11.655 241.387 14.262 241.387 18.2875C241.387 23.0032 237.928 26.4153 233.176 26.4153ZM253.627 13.1118L252.411 15.8722L252.221 16.0256H251.993C250.776 15.4121 249.522 15.1438 248.533 15.2204C247.583 15.2971 247.621 15.7572 247.621 15.9105C247.621 16.1789 247.697 16.3323 248.724 16.869L250.434 17.7508C252.297 18.7093 253.095 19.7827 253.247 21.4696C253.475 24.3067 251.727 26.0703 248.343 26.377C246.101 26.5687 243.934 25.9936 242.033 24.6901C241.919 24.6134 241.843 24.4217 241.957 24.2684L243.478 21.5463L243.668 21.393H243.896C245.454 22.3898 246.899 22.8498 248.077 22.7348C248.457 22.7348 249.104 22.5431 249.066 21.968C249.066 21.6997 248.99 21.508 248.191 21.0863L246.291 20.0895C244.542 19.1693 243.668 17.9425 243.516 16.3323C243.288 13.6869 244.998 11.885 248.039 11.6166C249.75 11.4633 251.651 11.8466 253.475 12.6518C253.627 12.7284 253.703 12.9201 253.627 13.0735V13.1118Z" fill="#00F9D2"/>
<path d="M186.191 10.6582C186.191 10.6582 182.998 10.6582 182.846 10.6582C182.846 10.8499 181.896 15.3739 181.896 15.4889C182.01 15.4889 185.507 15.4889 185.507 15.4889C187.522 15.4889 188.7 14.5304 188.7 12.8052C188.7 11.425 187.826 10.6965 186.229 10.6965L186.191 10.6582Z" fill="#00F9D2"/>
</g>
<defs>
<clipPath id="clip0_418_826">
<rect width="267.692" height="36" fill="white"/>
</clipPath>
</defs>
</svg>
