<svg width="135" height="41" viewBox="0 0 135 41" fill="none" xmlns="http://www.w3.org/2000/svg">
<path d="M129.268 41H5.2196C2.48943 41 0.256348 38.6974 0.256348 35.877V5.12301C0.256348 2.30257 2.48943 0 5.2196 0H129.268C131.999 0 134.232 2.30257 134.232 5.12301V35.877C134.232 38.6974 131.999 41 129.268 41Z" fill="white"/>
<path d="M43.5364 13.3207V7.16992H45.3986C46.3375 7.16992 47.0793 7.45675 47.6474 8.02243C48.2077 8.58811 48.4917 9.32907 48.4917 10.2453C48.4917 11.1616 48.2077 11.8946 47.6474 12.4682C47.0872 13.0419 46.3375 13.3207 45.3986 13.3207H43.5364ZM44.3175 12.5638H45.3986C46.1008 12.5638 46.6611 12.3646 47.0714 11.9503C47.4817 11.544 47.6869 10.9703 47.6869 10.2374C47.6869 9.50436 47.4817 8.93867 47.0714 8.53234C46.6611 8.126 46.1008 7.91885 45.3986 7.91885H44.3175V12.5559V12.5638Z" fill="#050505"/>
<path d="M49.5806 13.3207V7.16992H50.3617V13.3207H49.5806Z" fill="#050505"/>
<path d="M53.4783 13.4638C53.0364 13.4638 52.6025 13.3204 52.1843 13.0256C51.7582 12.7308 51.482 12.3245 51.3557 11.7987L52.0738 11.5039C52.1606 11.8385 52.3342 12.1253 52.5946 12.3564C52.8628 12.5874 53.1548 12.7069 53.4862 12.7069C53.8176 12.7069 54.1174 12.6193 54.362 12.436C54.6067 12.2528 54.725 12.0138 54.725 11.703C54.725 11.3605 54.6067 11.0975 54.362 10.9063C54.1174 10.7231 53.7387 10.5478 53.2179 10.3884C52.6814 10.2211 52.271 9.99804 51.9949 9.71918C51.7187 9.44829 51.5767 9.09772 51.5767 8.67545C51.5767 8.25319 51.7502 7.85482 52.0974 7.52816C52.4446 7.20149 52.8944 7.03418 53.4468 7.03418C53.9596 7.03418 54.3857 7.16166 54.7092 7.42458C55.0328 7.6875 55.2458 7.96636 55.3405 8.27709L54.6304 8.57985C54.5751 8.38863 54.4568 8.20538 54.2516 8.03807C54.0465 7.87075 53.7939 7.79108 53.4704 7.79108C53.1706 7.79108 52.9102 7.87872 52.705 8.04603C52.492 8.21335 52.3894 8.42847 52.3894 8.67545C52.3894 8.90651 52.4841 9.09772 52.6813 9.25707C52.8786 9.41642 53.1627 9.55983 53.5414 9.67934C53.8413 9.77495 54.0938 9.87056 54.2911 9.96617C54.4883 10.0538 54.6935 10.1813 54.9065 10.3327C55.1117 10.484 55.2695 10.6753 55.3721 10.8983C55.4747 11.1214 55.5299 11.3844 55.5299 11.6871C55.5299 11.9899 55.4667 12.2528 55.3484 12.4838C55.23 12.7229 55.0643 12.9061 54.8592 13.0416C54.6619 13.177 54.441 13.2806 54.2121 13.3523C53.9754 13.424 53.7387 13.4559 53.4941 13.4559L53.4783 13.4638Z" fill="#050505"/>
<path d="M57.4159 13.3207H56.6348V7.16992H58.71C59.2229 7.16992 59.6727 7.3452 60.0514 7.6878C60.4302 8.0304 60.6195 8.4686 60.6195 8.99445C60.6195 9.52029 60.4302 9.9585 60.0514 10.3011C59.6727 10.6517 59.2308 10.819 58.71 10.819H57.4159V13.3128V13.3207ZM57.4159 10.07H58.7258C59.0572 10.07 59.3176 9.9585 59.5149 9.73541C59.7121 9.51232 59.8147 9.26534 59.8147 8.99445C59.8147 8.72356 59.7121 8.47657 59.5149 8.25348C59.3176 8.0304 59.0493 7.91885 58.7258 7.91885H57.4159V10.0621V10.07Z" fill="#050505"/>
<path d="M66.5849 12.5315C65.9852 13.153 65.2435 13.4637 64.3519 13.4637C63.4602 13.4637 62.7185 13.153 62.1188 12.5315C61.5191 11.91 61.2192 11.1531 61.2192 10.2528C61.2192 9.35252 61.5191 8.59563 62.1188 7.97417C62.7185 7.35272 63.4602 7.04199 64.3519 7.04199C65.2435 7.04199 65.9773 7.35272 66.5849 7.98214C67.1846 8.60359 67.4844 9.36846 67.4844 10.2608C67.4844 11.1531 67.1846 11.918 66.5849 12.5395V12.5315ZM62.6948 12.0136C63.1446 12.4757 63.6969 12.7068 64.3519 12.7068C65.0068 12.7068 65.5591 12.4757 66.0089 12.0136C66.4586 11.5515 66.6875 10.9619 66.6875 10.2449C66.6875 9.52781 66.4586 8.93822 66.0089 8.47612C65.5591 8.01401 65.0068 7.78296 64.3519 7.78296C63.6969 7.78296 63.1446 8.01401 62.6948 8.47612C62.245 8.93822 62.0162 9.52781 62.0162 10.2449C62.0162 10.9619 62.245 11.5515 62.6948 12.0136Z" fill="#050505"/>
<path d="M68.5813 13.3209V7.17008H69.5361L72.4951 11.9505H72.5266L72.4951 10.7634V7.16211H73.2762V13.3129H72.4556L69.3625 8.29347H69.3309L69.3625 9.48061V13.3129H68.5813V13.3209Z" fill="#050505"/>
<path d="M74.665 13.3207V7.16992H75.4462V13.3207H74.665Z" fill="#050505"/>
<path d="M76.8425 13.3207V7.16992H79.044C79.5174 7.16992 79.9357 7.32927 80.2828 7.64796C80.63 7.96666 80.8036 8.36503 80.8036 8.84307C80.8036 9.13786 80.7247 9.39281 80.5748 9.6159C80.4249 9.83898 80.2276 10.0063 79.9751 10.1258V10.1577C80.2749 10.2613 80.5196 10.4365 80.7168 10.6915C80.9062 10.9464 81.0088 11.2333 81.0088 11.5679C81.0088 12.0698 80.8273 12.4921 80.4564 12.8188C80.0934 13.1534 79.6594 13.3207 79.1623 13.3207H76.8425ZM77.6237 9.80712H79.044C79.336 9.80712 79.5726 9.71151 79.7541 9.51232C79.9356 9.31314 80.0224 9.09802 80.0224 8.86697C80.0224 8.63591 79.9356 8.4208 79.762 8.22161C79.5884 8.0304 79.3596 7.92682 79.0755 7.92682H77.6237V9.80712V9.80712ZM77.6237 12.5638H79.2018C79.5017 12.5638 79.7463 12.4602 79.9357 12.2451C80.125 12.03 80.2197 11.799 80.2197 11.552C80.2197 11.305 80.125 11.0739 79.9278 10.8588C79.7384 10.6517 79.4859 10.5481 79.1702 10.5481H77.6316V12.5638H77.6237Z" fill="#050505"/>
<path d="M82.0664 13.3207V7.16992H82.8476V12.5638H85.483V13.3207H82.0664Z" fill="#050505"/>
<path d="M90.0279 7.92667H87.2504V9.87867H89.7518V10.6196H87.2504V12.5716H90.0279V13.3285H86.4692V7.17773H90.0279V7.93463V7.92667Z" fill="#050505"/>
<path d="M96.8536 7.92667H94.0761V9.87867H96.5774V10.6196H94.0761V12.5716H96.8536V13.3285H93.2949V7.17773H96.8536V7.93463V7.92667Z" fill="#050505"/>
<path d="M98.0767 13.3209V7.17008H99.0314L101.99 11.9505H102.022L101.99 10.7634V7.16211H102.772V13.3129H101.951L98.8578 8.29347H98.8263L98.8578 9.48061V13.3129H98.0767V13.3209Z" fill="#050505"/>
<path d="M28.6624 19.0878C28.6308 15.7734 31.3531 14.156 31.4793 14.0843C29.9407 11.8136 27.5498 11.5108 26.7134 11.4869C24.7092 11.2718 22.7681 12.698 21.7423 12.698C20.7165 12.698 19.1305 11.5108 17.434 11.5427C15.2562 11.5746 13.2125 12.8494 12.092 14.8332C9.78004 18.8727 11.5081 24.8004 13.7175 28.067C14.8222 29.6684 16.1162 31.4531 17.8127 31.3894C19.4698 31.3177 20.0853 30.3218 22.0895 30.3218C24.0937 30.3218 24.654 31.3894 26.3741 31.3496C28.1495 31.3177 29.27 29.7481 30.3352 28.1307C31.6135 26.2983 32.1264 24.4976 32.1501 24.402C32.1106 24.3861 28.7018 23.0715 28.6624 19.0958V19.0878Z" fill="#050505"/>
<path d="M25.3957 9.33665C26.2874 8.21325 26.895 6.68352 26.7292 5.12988C25.4431 5.18565 23.8255 6.03019 22.9023 7.12969C22.0816 8.10171 21.3478 9.68721 21.5372 11.1851C22.9891 11.2966 24.4725 10.4441 25.4036 9.33665H25.3957Z" fill="#050505"/>
<path d="M52.3343 30.7945H50.0776L48.8388 26.8746H44.5463L43.3706 30.7945H41.177L45.43 17.4492H48.0576L52.3343 30.7945V30.7945ZM48.468 25.2333L47.3475 21.7516C47.2291 21.3931 47.0082 20.5565 46.6847 19.2339H46.6452C46.519 19.7996 46.3059 20.6362 46.014 21.7516L44.9172 25.2333H48.468V25.2333Z" fill="#050505"/>
<path d="M63.2711 25.8625C63.2711 27.4958 62.8292 28.7945 61.9533 29.7426C61.1721 30.5871 60.1937 31.0094 59.0338 31.0094C57.7792 31.0094 56.8797 30.5553 56.3273 29.647H56.2878V34.7142H54.1731V24.3407C54.1731 23.3129 54.1495 22.2533 54.0942 21.1777H55.9564L56.0748 22.6995H56.1142C56.8165 21.5522 57.8896 20.9785 59.3257 20.9785C60.4541 20.9785 61.3852 21.4247 62.1427 22.325C62.8923 23.2253 63.2711 24.4045 63.2711 25.8705V25.8625ZM61.1169 25.9422C61.1169 25.01 60.9039 24.2372 60.4856 23.6237C60.028 22.9943 59.4125 22.6756 58.6393 22.6756C58.1185 22.6756 57.645 22.8508 57.2189 23.2014C56.7928 23.552 56.5166 24.0141 56.3825 24.5798C56.3194 24.8427 56.2878 25.0578 56.2878 25.2331V26.8345C56.2878 27.5356 56.5009 28.1252 56.927 28.6033C57.3531 29.0813 57.9054 29.3283 58.584 29.3283C59.381 29.3283 60.0043 29.0176 60.4462 28.3961C60.8881 27.7747 61.1169 26.954 61.1169 25.9422V25.9422Z" fill="#050505"/>
<path d="M74.231 25.8625C74.231 27.4958 73.7891 28.7945 72.9133 29.7426C72.1321 30.5871 71.1536 31.0094 69.9937 31.0094C68.7391 31.0094 67.8396 30.5553 67.2872 29.647H67.2478V34.7142H65.1331V24.3407C65.1331 23.3129 65.1094 22.2533 65.0542 21.1777H66.9164L67.0347 22.6995H67.0742C67.7765 21.5522 68.8496 20.9785 70.2857 20.9785C71.4061 20.9785 72.3451 21.4247 73.1026 22.325C73.8522 23.2253 74.231 24.4045 74.231 25.8705V25.8625ZM72.0768 25.9422C72.0768 25.01 71.8638 24.2372 71.4456 23.6237C70.9879 22.9943 70.3725 22.6756 69.5992 22.6756C69.0784 22.6756 68.605 22.8508 68.1789 23.2014C67.7528 23.552 67.4766 24.0141 67.3504 24.5798C67.2872 24.8427 67.2478 25.0578 67.2478 25.2331V26.8345C67.2478 27.5356 67.4608 28.1252 67.8869 28.6033C68.313 29.0813 68.8654 29.3283 69.544 29.3283C70.3409 29.3283 70.9643 29.0176 71.4062 28.3961C71.848 27.7747 72.0768 26.954 72.0768 25.9422V25.9422Z" fill="#050505"/>
<path d="M86.4853 27.0498C86.4853 28.1892 86.0986 29.1054 85.3096 29.8225C84.4495 30.6033 83.2501 30.9937 81.7114 30.9937C80.2911 30.9937 79.1469 30.7148 78.2869 30.1651L78.7761 28.3804C79.7072 28.9461 80.7251 29.2329 81.8377 29.2329C82.6346 29.2329 83.258 29.0496 83.6998 28.6832C84.1417 28.3246 84.3627 27.8306 84.3627 27.2251C84.3627 26.6833 84.1812 26.2292 83.8103 25.8547C83.4474 25.4882 82.8398 25.1377 81.9876 24.827C79.6756 23.9585 78.5157 22.6758 78.5157 21.0026C78.5157 19.9031 78.9181 19.0028 79.7309 18.3017C80.5436 17.6006 81.6167 17.25 82.966 17.25C84.1654 17.25 85.1675 17.4651 85.9645 17.8794L85.4358 19.6243C84.6941 19.2179 83.8498 19.0108 82.9029 19.0108C82.1612 19.0108 81.5773 19.194 81.1591 19.5685C80.804 19.8952 80.6304 20.3015 80.6304 20.7795C80.6304 21.3054 80.8276 21.7436 81.238 22.0862C81.593 22.4049 82.2322 22.7475 83.1633 23.114C84.2995 23.5761 85.1359 24.1179 85.6725 24.7393C86.2091 25.3608 86.4774 26.1336 86.4774 27.0498H86.4853Z" fill="#050505"/>
<path d="M93.484 22.7711H91.1484V27.44C91.1484 28.6271 91.5587 29.2247 92.3872 29.2247C92.766 29.2247 93.0816 29.1928 93.3262 29.129L93.3814 30.7544C92.9632 30.9137 92.4188 30.9934 91.7323 30.9934C90.8959 30.9934 90.2409 30.7384 89.7675 30.2206C89.2941 29.7027 89.0653 28.8422 89.0653 27.6232V22.7711H87.6765V21.1697H89.0653V19.4089L91.1405 18.7715V21.1697H93.4761V22.7791L93.484 22.7711Z" fill="#050505"/>
<path d="M104.018 25.9025C104.018 27.3844 103.6 28.5955 102.763 29.5436C101.888 30.5236 100.72 31.0096 99.2757 31.0096C97.8317 31.0096 96.7664 30.5395 95.93 29.6073C95.1015 28.6672 94.6833 27.488 94.6833 26.0618C94.6833 24.6357 95.1094 23.3529 95.9695 22.3969C96.8217 21.4487 97.9816 20.9707 99.4256 20.9707C100.87 20.9707 101.951 21.4408 102.795 22.373C103.608 23.2812 104.01 24.4524 104.01 25.8945L104.018 25.9025ZM101.816 25.9742C101.816 25.0898 101.627 24.325 101.248 23.6955C100.807 22.9307 100.167 22.5482 99.3467 22.5482C98.5261 22.5482 97.8475 22.9307 97.4056 23.6955C97.0269 24.3329 96.8375 25.1058 96.8375 26.022C96.8375 26.9383 97.0269 27.6712 97.4056 28.3007C97.8633 29.0655 98.5024 29.4559 99.331 29.4559C100.159 29.4559 100.775 29.0655 101.233 28.2847C101.619 27.6394 101.816 26.8665 101.816 25.9822V25.9742Z" fill="#050505"/>
<path d="M110.899 23.05C110.686 23.0102 110.465 22.9943 110.228 22.9943C109.487 22.9943 108.911 23.2811 108.5 23.8468C108.145 24.3487 107.972 24.9781 107.972 25.743V30.7943H105.857L105.873 24.2053C105.873 23.0978 105.849 22.086 105.794 21.1777H107.64L107.719 23.0182H107.774C107.995 22.3887 108.35 21.8788 108.832 21.4964C109.305 21.1538 109.81 20.9785 110.362 20.9785C110.56 20.9785 110.733 20.9944 110.891 21.0184V23.058L110.899 23.05Z" fill="#050505"/>
<path d="M120.368 25.5274C120.368 25.9098 120.344 26.2365 120.289 26.4994H113.937C113.96 27.4475 114.268 28.1805 114.86 28.6824C115.396 29.1286 116.091 29.3517 116.935 29.3517C117.874 29.3517 118.734 29.2003 119.507 28.8976L119.839 30.3795C118.939 30.7778 117.874 30.977 116.643 30.977C115.168 30.977 114.008 30.5388 113.163 29.6624C112.319 28.786 111.901 27.6068 111.901 26.1249C111.901 24.643 112.295 23.4638 113.077 22.4998C113.897 21.472 115.01 20.9541 116.406 20.9541C117.803 20.9541 118.821 21.472 119.523 22.4998C120.083 23.3204 120.36 24.3243 120.36 25.5274H120.368ZM118.348 24.9696C118.363 24.3323 118.221 23.7905 117.937 23.3284C117.574 22.7308 117.006 22.436 116.249 22.436C115.554 22.436 114.994 22.7229 114.56 23.3045C114.205 23.7666 114 24.3243 113.937 24.9696H118.348V24.9696Z" fill="#050505"/>
</svg>
