<svg width="328" height="86" viewBox="0 0 328 86" fill="none" xmlns="http://www.w3.org/2000/svg">
<rect width="328" height="86" rx="24" fill="white"/>
<path d="M196.308 44.0442V44.0434C196.46 43.764 196.615 43.4772 196.771 43.1844C198.668 39.6195 200.726 35.1827 200.795 32.591C200.877 29.5328 200.433 27.9974 199.994 27.0408C199.805 26.6277 199.617 26.3227 199.472 26.0493C199.421 25.9533 199.375 25.861 199.337 25.7695C199.242 25.5431 199.104 25.2758 198.949 24.9971H198.948C198.948 24.9971 198.947 24.9955 198.945 24.9922C198.839 24.8007 198.723 24.6047 198.606 24.4123C198.606 24.4123 198.603 24.4058 198.596 24.394C198.51 24.2535 198.425 24.1154 198.342 23.9834C198.012 23.4577 197.729 23.0308 197.688 22.9401C197.601 22.7493 197.236 22.4978 196.516 22.4978C196.404 22.4978 196.229 22.4674 196.014 22.416H196.011C194.836 22.1317 192.44 21.2216 192.271 21.1264C192.071 21.0134 190.908 20.9875 190.613 21.0049C190.318 21.0224 187.045 21.6473 186.594 21.6643C186.143 21.6817 185.326 21.838 184.745 22.6363C184.163 23.435 184.337 23.3568 183.911 23.4957C183.486 23.6347 180.379 25.5872 180.014 31.5234C179.649 37.4596 186.524 46.9368 187.097 48.4471C187.097 48.4471 184.154 54.9507 183.92 58.8068C183.887 59.3544 183.895 59.8521 183.937 60.3049C183.954 60.4916 183.977 60.671 184.006 60.8428C184.391 63.1882 185.744 64.1654 186.681 64.585C186.897 64.6822 187.081 64.7632 187.245 64.8293C187.476 64.9224 187.668 64.9856 187.86 65.0212C188.265 65.0966 188.666 65.0488 189.428 64.9022C189.428 64.9022 189.836 65.1476 190.536 65.3432C190.65 65.3752 190.772 65.4056 190.901 65.4335H190.901C190.998 65.4546 191.099 65.474 191.204 65.4914C191.399 65.5242 191.608 65.5502 191.828 65.5656C191.888 65.5696 191.947 65.5728 192.008 65.5753C192.065 65.5781 192.122 65.5797 192.18 65.5805C192.305 65.5826 192.435 65.581 192.567 65.5753H192.567C193.02 65.5558 193.51 65.4882 194.027 65.3501C194.387 65.2537 194.761 65.1233 195.146 64.9508C195.198 64.9281 195.249 64.9042 195.302 64.8795C195.302 64.8795 195.57 64.8345 195.937 64.6231C196.461 64.321 197.185 63.6794 197.61 62.3453C197.676 62.1408 197.734 61.9205 197.783 61.6823C198.098 60.1656 198.002 58.8072 197.758 57.6748C197.749 57.6306 197.739 57.5873 197.729 57.544C197.584 56.9085 197.394 56.348 197.209 55.8737C197.161 55.753 197.114 55.638 197.068 55.5286C197.021 55.4177 196.976 55.3136 196.932 55.2152C196.49 54.2176 194.926 51.1776 194.086 49.6103C193.965 49.3826 193.858 49.1866 193.773 49.0319C193.752 48.9942 193.732 48.9594 193.714 48.927C193.664 48.8371 193.623 48.767 193.594 48.7205C193.594 48.7205 193.716 48.5265 193.927 48.1786C194.395 47.4094 195.302 45.8878 196.307 44.0442H196.308ZM186.313 27.9099C186.359 27.801 186.408 27.6928 186.459 27.5855C186.459 27.5855 186.459 27.5851 186.46 27.5851C186.48 27.5689 187.076 27.1076 188.306 27.0047C188.867 26.9582 189.561 26.9861 190.393 27.1651C190.393 27.1651 190.394 27.1655 190.394 27.1655C191.178 27.3611 193.574 28.2667 193.677 32.0366C193.622 33.3407 193.308 34.955 192.664 36.9392C192.106 38.6584 191.301 40.6547 190.202 42.9665V42.9657C190.191 42.9523 190.019 42.7328 189.748 42.3472C189.545 42.0581 189.285 41.6753 188.996 41.2161C187.97 39.5863 186.567 36.9918 185.947 34.179C185.49 32.1078 185.458 29.9188 186.313 27.9099Z" fill="#EFECE8"/>
<path d="M190.01 60.3496C189.797 61.5813 189.362 62.5156 188.898 63.2033H188.898C188.112 64.3714 187.245 64.829 187.245 64.829C187.081 64.763 186.897 64.682 186.681 64.5848C185.744 64.1652 184.391 63.1879 184.006 60.8425C183.977 60.6708 183.954 60.4914 183.937 60.3047C184.725 62.7882 186.569 63.369 187.722 62.9883C188.347 62.7821 188.635 62.4719 188.764 62.1945C188.92 61.8579 188.842 61.5691 188.842 61.5691L189.154 60.4367L190.01 60.3496Z" fill="#EBE7E3"/>
<path d="M186.103 62.2976C185.374 61.8197 184.851 60.8732 184.884 59.4597C184.988 54.9034 187.496 49.2969 187.496 49.2969C187.496 49.2969 187.523 49.341 187.573 49.4261C187.722 49.6857 188.076 50.3256 188.477 51.2531C188.664 51.6852 188.861 52.1797 189.053 52.7269C189.604 54.2939 190.111 56.2954 190.209 58.5116C190.368 62.1053 187.724 63.3604 186.103 62.2976Z" fill="#9A9794"/>
<path d="M186.355 53.1197C185.966 54.9459 184.959 60.2054 186.103 62.2976C185.374 61.8197 184.851 60.8732 184.884 59.4597C184.988 54.9034 187.496 49.2969 187.496 49.2969C187.496 49.2969 187.523 49.341 187.573 49.4261C187.374 49.8732 186.717 51.4211 186.355 53.1197Z" fill="#ACA9A6"/>
<path d="M187.95 60.1821C187.846 60.2016 187.436 60.0064 187.084 57.5735C186.805 55.638 187.983 52.4688 188.477 51.2529C188.664 51.6851 188.861 52.1796 189.053 52.7268C186.535 57.4775 188.047 60.1639 187.95 60.1821Z" fill="#8F8C8A"/>
<path d="M188.898 63.204C188.112 64.3716 187.245 64.8293 187.245 64.8293C187.081 64.7633 186.897 64.6823 186.681 64.585C185.744 64.1655 184.391 63.1882 184.006 60.8428C184.417 61.8132 184.992 62.805 185.743 63.2963C187.469 64.4251 188.868 63.2295 188.898 63.204Z" fill="#CCC9C6"/>
<path d="M183.868 24.6758C183.868 24.6758 182.328 29.2062 182.751 33.1984C183.174 37.1905 184.216 39.0131 184.597 41.6861C184.597 41.6861 183.91 37.7632 183.638 36.826C183.365 35.8888 182.59 31.6415 182.983 29.9753C183.375 28.3087 183.23 27.6959 183.23 27.6959C183.23 27.6959 183.521 25.6996 183.868 24.6758H183.868Z" fill="#CCC9C6"/>
<path d="M186.716 47.5621C186.716 47.5621 187.688 45.8004 187.167 42.7802C186.646 39.7601 186.82 38.5799 186.82 38.5799L186.215 36.0283L186.083 36.1292C186.083 36.1292 186.976 42.5202 187.028 43.3881C187.081 44.2561 187.41 45.0025 186.716 47.5625L186.716 47.5621Z" fill="#E0DCD9"/>
<path d="M197.784 61.682C197.734 61.9202 197.676 62.1405 197.611 62.3446C197.185 63.6791 196.461 64.3206 195.938 64.6228C195.571 64.8342 195.302 64.8791 195.302 64.8791C195.302 64.8791 195.407 64.6928 195.556 64.3968C195.556 64.3964 195.557 64.3964 195.557 64.3964C195.628 64.2558 195.709 64.0902 195.794 63.9079C196.151 63.1425 196.571 62.0874 196.573 61.3625C196.575 60.7124 196.558 59.625 196.504 58.6035C196.498 58.4918 196.492 58.3808 196.485 58.2714C196.469 58.0151 196.451 57.7668 196.43 57.5347C196.43 57.5343 196.43 57.5343 196.43 57.5343C196.383 57.0151 196.321 56.5785 196.243 56.3185C195.977 55.4392 194.864 53.4 194.864 53.4C194.864 53.4 194.493 53.0051 193.977 52.4523C193.707 52.1635 193.399 51.8322 193.082 51.4912C193.079 51.4875 193.076 51.4843 193.073 51.4807C193.023 51.4276 192.974 51.3745 192.924 51.3207C192.454 50.8132 191.979 50.2972 191.604 49.8829H191.603C191.412 49.6715 191.247 49.4868 191.122 49.343C191.002 49.2045 190.918 49.1037 190.883 49.053C190.807 48.9449 190.63 48.6521 190.4 48.2673C190.4 48.2665 190.4 48.2665 190.4 48.2665C189.731 47.1455 188.623 45.2411 188.313 44.8276C188.126 44.5777 187.412 42.4093 186.816 39.9395C186.816 39.9395 186.816 39.9393 186.816 39.9387C186.554 38.8497 186.315 37.7015 186.154 36.6339C186.15 36.6051 186.146 36.5772 186.142 36.5508C186.128 36.4536 186.114 36.3572 186.102 36.2621C186.1 36.2455 186.098 36.2301 186.096 36.2167C186.094 36.2046 186.093 36.1932 186.091 36.1835C186.091 36.1762 186.089 36.1697 186.088 36.1641C186.088 36.1584 186.087 36.1531 186.086 36.1491C186.086 36.1466 186.086 36.145 186.086 36.143C186.086 36.139 186.085 36.1361 186.084 36.1337C186.084 36.1325 186.084 36.1317 186.084 36.1309C186.084 36.1288 186.084 36.128 186.084 36.128C185.998 35.4642 185.948 34.8421 185.948 34.2982C185.948 34.2577 185.948 34.218 185.948 34.1787C186.569 36.9915 187.971 39.586 188.997 41.2157C189.287 41.675 189.546 42.0577 189.749 42.3469C190.021 42.7325 190.192 42.952 190.203 42.9654V42.9662C191.302 40.6544 192.108 38.6581 192.665 36.9388L193.793 38.654L194.23 39.3179L194.916 40.3612L196.097 42.1566L196.436 42.6717L196.772 43.1841C196.616 43.4769 196.462 43.7636 196.309 44.0431V44.0439C195.304 45.8875 194.397 47.4091 193.929 48.1782C193.718 48.5261 193.596 48.7201 193.596 48.7201C193.625 48.7667 193.665 48.8368 193.716 48.9267C193.734 48.9591 193.754 48.9939 193.774 49.0316C193.86 49.1863 193.967 49.3823 194.088 49.6099C194.928 51.1773 196.492 54.2173 196.934 55.2148C196.978 55.3133 197.023 55.4173 197.069 55.5279C197.128 55.6178 197.213 55.8734 197.213 55.8734H197.21C197.396 56.3476 197.586 56.9082 197.731 57.5432C197.741 57.587 197.751 57.6303 197.76 57.6744C198.004 58.8069 198.1 60.1653 197.785 61.682H197.784Z" fill="#FFFBF7"/>
<path d="M188.712 23.8168C188.712 23.8168 185.151 25.1776 184.341 30.1989C183.53 35.2206 187.384 40.1933 185.639 45.4787C185.639 45.4787 186.759 43.0312 184.598 36.9387C182.436 30.8461 184.429 25.4308 188.712 23.8164L188.712 23.8168Z" fill="#CCC9C6"/>
<path d="M193.676 32.0361C193.574 28.2663 191.178 27.3607 190.394 27.165C190.575 27.2039 190.764 27.2505 190.96 27.3052C192.634 27.7726 193.798 29.1338 193.676 32.0361Z" fill="black"/>
<path d="M200.795 32.5909C200.725 35.1826 198.668 39.6195 196.771 43.1843C196.615 43.4772 196.46 43.7639 196.308 44.0434V44.0442C195.302 45.8878 194.395 47.4094 193.928 48.1785C193.716 48.5264 193.595 48.7204 193.595 48.7204L193.025 47.754L192.85 47.4588L192.545 46.9408L192.172 46.3065L191.383 44.9696L190.202 42.9664C191.301 40.6547 192.106 38.6584 192.664 36.9391C193.308 34.955 193.622 33.3406 193.676 32.0369C193.574 28.2667 191.178 27.3611 190.394 27.1655C190.394 27.1655 190.393 27.1651 190.393 27.1651C189.561 26.986 188.867 26.9581 188.306 27.0047C187.076 27.1075 186.48 27.5688 186.46 27.585C187.817 25.5167 188.905 24.603 189.912 24.3142C190.327 24.1951 190.728 24.1826 191.129 24.2389C191.717 24.3211 192.303 24.5523 192.931 24.8148C193.837 25.1943 194.491 25.1813 194.962 25.0262H194.963C195.158 24.9618 195.322 24.8735 195.46 24.7783C195.755 24.5754 195.93 24.3426 196.033 24.2547C196.034 24.2547 196.034 24.2539 196.035 24.2535C196.035 24.253 196.036 24.253 196.036 24.2526C196.062 24.2312 196.09 24.2085 196.121 24.1846H196.122C196.122 24.1846 196.122 24.1842 196.122 24.1838C196.414 23.9598 196.94 23.6585 197.657 23.9404C198.414 24.2381 198.901 24.9282 198.945 24.9922C198.947 24.9954 198.948 24.997 198.948 24.997H198.949C199.104 25.2757 199.242 25.543 199.337 25.7694C199.375 25.8609 199.421 25.9533 199.472 26.0493C199.617 26.3226 199.805 26.6276 199.994 27.0407C200.433 27.9973 200.877 29.5327 200.795 32.5909Z" fill="#CCC9C6"/>
<path d="M199.994 27.0407L199.823 28.2278H199.482C199.482 28.2278 199.482 28.2262 199.482 28.2254C199.739 25.6864 198.668 24.9533 197.922 24.2854C197.19 23.6301 196.162 24.1627 196.122 24.1838C196.414 23.9598 196.94 23.6585 197.657 23.9404C198.414 24.2381 198.901 24.9282 198.945 24.9922C198.947 24.9954 198.948 24.997 198.948 24.997H198.949C199.104 25.2757 199.242 25.543 199.337 25.7694C199.375 25.8609 199.421 25.9533 199.472 26.0493C199.617 26.3226 199.805 26.6276 199.994 27.0407Z" fill="#BBB8B5"/>
<path d="M198.99 33.3202C198.781 34.8131 197.306 37.5554 196.882 38.6315C196.463 39.6975 196.409 41.5322 196.408 41.5666L196.495 42.0161L196.434 42.6723L196.308 44.0436V44.0444C195.302 45.888 194.395 47.4096 193.928 48.1787C193.716 48.5266 193.595 48.7206 193.595 48.7206L193.025 47.7543L192.85 47.459L192.545 46.941L192.172 46.3068L191.383 44.9699L190.202 42.9667C191.301 40.6549 192.106 38.6586 192.664 36.9394C193.308 34.9552 193.622 33.3409 193.676 32.0371C193.574 28.2669 191.178 27.3613 190.394 27.1657C190.394 27.1657 190.393 27.1653 190.393 27.1653C189.561 26.9863 188.867 26.9583 188.306 27.0049C187.076 27.1078 186.48 27.5691 186.46 27.5853C187.817 25.5169 188.905 24.6032 189.912 24.3145C190.242 24.8138 190.722 25.3411 191.416 25.8304C191.518 25.9021 191.624 25.9734 191.736 26.043H191.736C192.3 26.3982 192.989 26.7271 193.831 27.0021C193.831 27.0021 193.832 27.0021 193.832 27.0021C193.986 27.0531 194.146 27.1017 194.31 27.1487C194.471 27.1945 194.626 27.2414 194.776 27.29C199.597 28.8489 199.191 31.8715 198.989 33.3194L198.99 33.3202Z" fill="#BBB8B5"/>
<path d="M200.795 32.5905C200.726 35.1822 198.669 39.619 196.771 43.1839C196.615 43.4767 196.46 43.7635 196.308 44.0429V44.0437C195.302 45.8873 194.395 47.409 193.928 48.1781C193.716 48.526 193.595 48.72 193.595 48.72L193.025 47.7536L192.851 47.4584C192.868 47.4333 193.56 46.4584 194.497 44.9311C194.883 44.3009 195.311 43.5772 195.75 42.7874C195.864 42.5813 195.98 42.3707 196.095 42.1564C196.199 41.9628 196.304 41.766 196.409 41.5663C198.54 37.4854 200.587 32.2013 199.194 28.8256C199.194 28.8256 199.35 28.6069 199.482 28.2274C199.482 28.2266 199.482 28.2257 199.482 28.2249C199.654 27.7296 199.784 26.9621 199.472 26.0488C199.617 26.3222 199.805 26.6272 199.994 27.0403C200.433 27.9969 200.877 29.5323 200.795 32.5905Z" fill="#EFECE8"/>
<path d="M194.497 44.9319L194.65 45.1409L194.357 46.413C194.357 46.413 194.356 46.4142 194.356 46.4146C194.287 46.6025 194.229 46.7726 194.18 46.9265L193.025 47.7544L192.851 47.4591L192.545 46.9411L192.172 46.3069L191.383 44.97L190.202 42.9668C191.301 40.655 192.106 38.6587 192.664 36.9395C193.308 34.9553 193.622 33.341 193.677 32.0372C193.575 28.267 191.178 27.3614 190.394 27.1658C190.394 27.1658 190.393 27.1654 190.393 27.1654C189.561 26.9864 188.867 26.9584 188.306 27.005C188.681 26.9236 189.146 26.8592 189.65 26.8657C191.044 26.8839 192.75 27.4453 193.764 29.6975C193.814 29.8073 193.861 29.9146 193.907 30.0191C195.623 33.9485 194.681 34.2 193.92 37.9026C193.868 38.1561 193.826 38.4072 193.792 38.6547C193.705 39.2849 193.673 39.8936 193.679 40.4675C193.688 41.3354 193.783 42.1244 193.905 42.789C194.044 43.5374 194.217 44.1288 194.339 44.4989C194.43 44.7699 194.493 44.9222 194.497 44.9315V44.9319Z" fill="#9A9794"/>
<path d="M196.134 36.2863C195.716 38.4361 194.769 40.8621 193.905 42.7887C192.991 44.8275 192.172 46.3066 192.172 46.3066L191.383 44.9697C191.875 44.009 192.954 41.8969 193.678 40.4672C193.681 40.4627 193.683 40.4583 193.685 40.4538C194.649 38.5531 197.279 32.8255 195.3 28.826C194.905 28.027 194.395 27.4365 193.832 27.0027C193.832 27.0027 193.832 27.0027 193.832 27.0027C193.173 26.4948 192.442 26.2028 191.736 26.0436H191.736C190.667 25.8023 189.658 25.8658 189.054 25.9472C189.937 25.8075 190.721 25.7743 191.416 25.831C192.915 25.9529 194.003 26.4928 194.777 27.2915C196.867 29.4461 196.678 33.4857 196.134 36.2871V36.2863Z" fill="#A5A2A0"/>
<path d="M195.993 42.5898C195.794 42.7745 195.619 43.4622 194.736 45.4784C194.583 45.8291 194.458 46.1389 194.357 46.4123C194.357 46.4127 194.356 46.4135 194.356 46.4139C194.287 46.6019 194.229 46.772 194.18 46.9259C193.889 47.8392 193.928 48.1781 193.928 48.1781C193.716 48.526 193.595 48.72 193.595 48.72L193.025 47.7537L192.851 47.4584L192.545 46.9404L194.339 44.4982L195.277 43.2221C195.379 43.103 195.585 42.9244 195.75 42.7875C195.877 42.6818 195.98 42.6004 195.993 42.5898Z" fill="#DAD7D3"/>
<path d="M197.74 39.9684C197.74 39.9684 202.058 33.0512 199.858 28.4961C199.858 28.4961 201.18 32.3757 197.74 39.9684Z" fill="#FFFBF7"/>
<path d="M188.48 26.0488C188.502 26.0431 188.714 25.9916 189.054 25.9463C188.867 25.9754 188.676 26.0095 188.48 26.0488Z" fill="#A5A2A0"/>
<path d="M195.335 25.0577L194.963 25.0261C194.963 25.0261 194.024 25.0925 193.217 24.6847C192.41 24.2768 190.561 22.658 188.217 24.9496C185.873 27.2407 183.803 26.2865 183.803 26.2865L183.907 26.0496C183.907 26.0496 184.103 23.752 184.493 23.3352C184.845 23.2182 187.514 22.2372 187.853 22.0983L189.103 21.8379L190.014 22.0331L191.564 22.8208L192.866 23.6086L194.046 24.2161L194.688 24.4332C194.688 24.4332 195.292 24.611 196.036 24.253L195.335 25.0581V25.0577Z" fill="#FEFAF6"/>
<path d="M198.596 24.3937C198.559 24.3386 198.441 24.1612 198.243 23.9449H198.242C197.782 23.4415 196.892 22.7275 195.63 22.853C194.138 23.0017 193.028 23.3026 192.082 23.0276C191.813 22.9494 191.556 22.8243 191.308 22.6359C191.256 22.5971 191.21 22.5606 191.167 22.5262C191.107 22.4772 191.055 22.4322 191.01 22.3917L191.009 22.3909C190.401 21.8344 191.203 22.0199 191.203 22.0199L192.575 22.2714L193.547 22.4496L194.025 22.3779C194.025 22.3779 195.166 22.4148 196.011 22.4156H196.014C196.23 22.467 196.404 22.4974 196.516 22.4974C197.236 22.4974 197.601 22.7489 197.688 22.9397C197.729 23.0304 198.013 23.4573 198.342 23.983C198.425 24.115 198.51 24.2531 198.596 24.3937H198.596Z" fill="#EBE7E3"/>
<path d="M194.024 22.3783C194.024 22.3783 193.172 22.8015 192.612 22.7687C192.052 22.7363 191.178 22.4694 191.153 22.5342L189.233 21.8376L188.972 21.7854C188.972 21.7854 190.339 21.3168 191.394 21.5509C192.449 21.7854 192.553 22.2928 194.024 22.3775V22.3783Z" fill="#BBB8B5"/>
<path d="M184.052 25.1183C184.052 25.1183 187.488 21.1087 190.014 22.1893C192.54 23.2698 194.367 25.2353 196.036 24.2528C196.036 24.2528 195.287 24.8234 193.66 23.9644C192.033 23.105 190.739 21.9531 189.181 21.734C187.622 21.5149 185.069 23.5566 184.052 25.1187V25.1183Z" fill="#CCC9C6"/>
<path d="M198.087 26.4131V26.4135V26.6679L196.407 25.9518L195.46 24.7785C195.755 24.5756 195.93 24.3427 196.033 24.2548C196.034 24.2548 196.035 24.254 196.035 24.2536C196.035 24.2532 196.036 24.2532 196.036 24.2528C196.062 24.2313 196.09 24.2087 196.121 24.1848H196.122C198.009 23.4395 198.086 26.3702 198.087 26.4131Z" fill="#DEDBD7"/>
<path d="M199.095 28.4955C197.968 26.4307 193.937 25.9516 192.688 25.4308C191.777 25.0517 191.314 24.507 191.129 24.2388C191.717 24.3211 192.303 24.5523 192.931 24.8148C193.837 25.1943 194.491 25.1813 194.962 25.0262H194.963C195.158 24.9618 195.322 24.8735 195.46 24.7783C195.755 24.5754 195.93 24.3425 196.033 24.2546C196.034 24.2546 196.035 24.2538 196.035 24.2534C196.035 24.253 196.036 24.253 196.036 24.2526C196.062 24.2311 196.09 24.2085 196.121 24.1846C197.008 24.9723 197.64 25.7447 198.087 26.4129C198.087 26.4129 198.087 26.4133 198.087 26.4133C198.897 27.6255 199.095 28.4955 199.095 28.4955Z" fill="#BCBAB7"/>
<path d="M194.489 61.2786C194.489 61.2786 194.979 59.8671 194.641 57.4679C194.641 57.4679 193.946 54.114 191.997 52.413C190.049 50.7119 191.568 50.8509 191.663 50.9201C191.663 50.9201 191.229 50.7204 190.882 51.0416C190.535 51.3628 188.521 48.386 187.184 43.6992V44.5497L187.317 44.2934C187.317 44.2934 188.516 48.2418 189.682 50.0072C189.682 50.0072 190.907 52.3692 191.05 52.8637C191.05 52.8637 190.311 50.8517 189.775 50.0473C189.775 50.0473 190.917 51.5965 191.559 52.2562C192.202 52.916 195.422 56.0143 194.489 61.2778V61.2786Z" fill="#E1DEDA"/>
<path d="M195.938 64.6232C195.571 64.8346 195.302 64.8795 195.302 64.8795C195.25 64.9043 195.198 64.9281 195.147 64.9508C194.762 65.1234 194.388 65.2538 194.027 65.3502C193.51 65.4883 193.021 65.5559 192.568 65.5754H192.568C192.435 65.581 192.306 65.5826 192.18 65.5806C192.122 65.5798 192.065 65.5782 192.008 65.5754C191.948 65.5729 191.888 65.5697 191.829 65.5656C191.608 65.5502 191.4 65.5243 191.204 65.4915C191.099 65.4741 190.999 65.4547 190.902 65.4336H190.901C190.772 65.4057 190.651 65.3753 190.537 65.3433C189.837 65.1477 189.428 64.9022 189.428 64.9022C189.428 64.9022 189.453 64.8929 189.497 64.8763C189.582 64.8455 189.737 64.7888 189.934 64.7216C190.056 64.6803 190.193 64.6345 190.34 64.5879C190.586 64.5102 190.857 64.4304 191.122 64.3644H191.122C191.251 64.332 191.377 64.3032 191.499 64.2793C191.771 64.2259 192.016 64.1983 192.193 64.2165C192.365 64.2344 192.56 64.3004 192.776 64.3814C193.127 64.5118 193.531 64.6819 193.976 64.7463C194.274 64.7904 194.591 64.7868 194.921 64.692C195.015 64.6653 195.11 64.6309 195.207 64.5879C195.322 64.5369 195.438 64.4741 195.556 64.3972C195.556 64.3968 195.557 64.3968 195.557 64.3968L195.926 64.4794L195.938 64.6232Z" fill="#CCC9C6"/>
<path d="M197.611 62.3447C197.185 63.6788 196.461 64.3204 195.938 64.6225C195.571 64.8339 195.302 64.8789 195.302 64.8789C195.302 64.8789 195.407 64.6926 195.556 64.3965C195.556 64.3961 195.557 64.3961 195.557 64.3961C195.628 64.2556 195.709 64.0899 195.794 63.9077C195.794 63.9077 196.287 64.597 197.611 62.3447Z" fill="#CCC9C6"/>
<path d="M194.537 57.4685C194.537 57.4685 194.025 59.0245 192.885 60.0791C192.885 60.0791 192.885 57.4992 191.996 55.2952C191.996 55.2952 191.316 53.8125 191.229 53.712C191.143 53.6116 189.806 51.5112 189.554 51.1904C189.554 51.1904 189.771 51.8251 189.814 51.8854C189.858 51.9458 191.143 53.9072 191.177 53.985C191.212 54.0632 191.403 54.9137 191.403 54.9137L191.837 55.4151C191.837 55.4151 193.021 58.1481 192.8 60.937C192.8 60.937 192.07 63.0074 192.74 63.1588C193.41 63.3103 193.894 63.2803 194.345 62.1783L194.584 61.9572L194.636 61.6404L194.493 61.3642L194.488 61.2804C194.488 61.2804 194.581 60.9025 194.586 60.8195C194.59 60.7365 194.68 59.9613 194.68 59.9613L194.71 59.3623C194.71 59.3623 194.684 57.673 194.536 57.4697L194.537 57.4685Z" fill="#E1DEDA"/>
<path d="M187.427 46.2856C187.427 46.2856 187.783 48.4204 187.948 48.6808V48.1778C187.948 48.1778 187.566 46.6152 187.427 46.2852V46.2856Z" fill="#CECBC8"/>
<path d="M191.021 59.2605C191.021 59.2605 190.774 54.8038 189.682 52.4888C188.591 50.1738 187.636 47.9693 185.978 45.5567C184.32 43.1441 181.663 37.0823 181.264 34.9755C180.865 32.8686 180.743 28.7027 182.34 25.5088C182.34 25.5088 180.639 30.5945 181.472 34.6474C182.306 38.7003 187.123 46.8843 187.722 47.7697C188.322 48.655 191.14 53.0878 191.021 59.2601V59.2605Z" fill="#E1DEDA"/>
<path d="M190.846 48.8924C190.846 48.8924 190.984 48.6571 191.052 48.7194C191.121 48.7822 191.076 48.9252 191.222 49.0592C191.368 49.1933 191.247 49.3869 191.115 49.2978C191.115 49.2978 191.142 49.3962 191.091 49.4452C191.039 49.4942 190.941 49.4898 190.829 49.4006C190.717 49.3111 190.581 49.2083 190.54 49.184C190.5 49.1597 190.572 48.9871 190.673 48.9738C190.673 48.9738 190.384 48.7644 190.268 48.4841C190.152 48.2038 190.217 48.171 190.256 48.18C190.295 48.1889 190.602 48.3395 190.846 48.8924Z" fill="#8C1539"/>
<path d="M192.164 50.6167C192.164 50.6167 191.721 50.2522 191.614 50.0622C191.506 49.8723 191.317 49.6524 191.144 49.6495C190.971 49.6467 191.022 49.9176 191.323 50.0878C191.624 50.2575 191.636 50.3024 191.633 50.3737C191.63 50.445 191.776 50.6596 191.892 50.7107C192.008 50.7617 192.244 50.9221 192.277 50.9966C192.309 51.0711 192.524 51.357 192.87 51.3303C193.216 51.3036 193.162 50.7609 193.084 50.6718C193.007 50.5827 192.774 50.3348 192.753 50.2566C192.733 50.1785 192.521 49.8229 192.405 49.7516C192.288 49.6799 192.228 49.7403 192.161 49.6378C192.094 49.5349 191.782 49.1522 191.6 49.1623C191.418 49.1728 191.54 49.426 191.725 49.5365C191.91 49.6467 192.44 49.9419 192.548 50.2473C192.548 50.2473 192.124 49.8435 191.942 49.7512C191.761 49.6588 191.573 49.62 191.57 49.7245C191.567 49.829 191.54 49.8885 192.163 50.6171L192.164 50.6167Z" fill="#8C1539"/>
<path d="M191.444 50.335C191.444 50.335 190.939 50.0264 190.715 50.1609C190.492 50.2949 190.791 50.5363 190.983 50.5051C191.175 50.474 191.025 50.2978 191.466 50.3443L191.444 50.3354V50.335Z" fill="#8C1539"/>
<path d="M192.163 49.4281C192.163 49.4281 191.73 49.0247 191.798 48.7732C191.867 48.5217 192.18 48.7452 192.202 48.9388C192.224 49.1324 192.014 49.0348 192.177 49.4471L192.163 49.4281Z" fill="#8C1539"/>
<path d="M193.085 51.4711C193.085 51.4711 192.906 51.6619 192.459 51.3877C192.012 51.1135 191.298 50.4278 190.96 50.6546C190.96 50.6546 191.118 50.8097 191.118 50.8304C191.118 50.8304 190.813 50.8515 190.757 51.0272C190.757 51.0272 190.999 51.2091 190.992 51.2358C190.986 51.2625 190.757 51.4772 190.942 51.5728C190.942 51.5728 190.99 51.4865 191.103 51.5728C191.216 51.659 191.291 51.8826 191.562 51.8858C191.833 51.8891 191.982 51.5189 191.6 51.248C191.466 51.1678 191.332 51.2184 191.365 51.3496C191.365 51.3496 191.678 51.3581 191.639 51.621C191.6 51.8838 191.285 51.6149 191.189 51.4659C191.094 51.3168 191.142 50.8964 191.508 50.9892C191.875 51.0815 192.173 51.4659 192.298 51.5732C192.423 51.6805 193.03 51.9555 193.085 51.4719L193.085 51.4711Z" fill="#8C1539"/>
<path d="M193.28 51.254C193.28 51.254 193.484 51.0907 193.246 50.6234C193.008 50.156 192.381 49.3905 192.633 49.0718C192.633 49.0718 192.776 49.2407 192.796 49.2423C192.796 49.2423 192.841 48.941 193.021 48.8984C193.021 48.8984 193.183 49.1536 193.211 49.1495C193.238 49.1459 193.47 48.9341 193.551 49.1256C193.551 49.1256 193.461 49.1666 193.538 49.286C193.615 49.4059 193.832 49.4978 193.814 49.7684C193.795 50.0389 193.415 50.1584 193.175 49.7566C193.105 49.6165 193.167 49.4869 193.295 49.5298C193.295 49.5298 193.278 49.8429 193.543 49.8247C193.809 49.8065 193.566 49.4707 193.424 49.3638C193.283 49.2569 192.86 49.2714 192.923 49.6441C192.987 50.0167 193.346 50.3443 193.444 50.4776C193.541 50.6108 193.767 51.2374 193.28 51.254H193.28Z" fill="#8C1539"/>
<path d="M194.903 51.2086C194.903 51.2086 194.45 50.9644 194.516 51.4945C194.581 52.0251 195.231 52.019 195.654 52.7104C196.078 53.4017 195.565 53.9145 195.565 53.9145C195.565 53.9145 195.654 53.4556 195.338 53.068C195.022 52.6804 194.015 51.84 193.89 51.4885C193.765 51.1369 193.812 50.8089 194.063 50.7672C194.313 50.7254 194.695 50.8149 194.903 51.2082V51.2086Z" fill="#8C1539"/>
<path d="M192.906 53.2825C192.906 53.2825 192.614 53.1456 192.631 52.585C192.649 52.0249 193.204 51.8103 193.776 52.6089C194.349 53.4076 194.146 54.0573 194.974 54.3792C194.974 54.3792 194.849 54.6235 194.426 54.5222C194.003 54.4209 193.847 54.0394 193.669 53.3481C193.49 52.6567 192.78 52.6984 192.906 53.2825Z" fill="#8C1539"/>
<path d="M193.666 51.8848C193.666 51.8848 194.203 52.8475 194.239 52.9726C194.274 53.0978 194.689 54.0337 195.035 54.0159C195.106 54.0159 195.392 54.3407 196.26 56.6388C196.313 56.755 196.29 56.883 196.271 56.9279C196.253 56.9725 196.085 57.3406 196.769 57.8505C196.769 57.8505 196.823 57.2916 196.769 57.0591C196.716 56.8267 196.492 56.8222 196.403 56.4958C196.313 56.1693 195.571 54.4797 195.356 54.171C195.142 53.8624 195.326 53.7834 195.291 53.6526C195.255 53.5214 194.927 52.6871 193.666 51.8852L193.666 51.8848Z" fill="#8C1539"/>
<path d="M196.03 53.7109C196.03 53.7109 195.749 54.2593 195.935 54.736C196.119 55.2127 196.346 55.5647 196.328 55.7076C196.328 55.7076 196.59 55.6598 196.697 55.2309C196.805 54.8016 196.083 53.8778 196.03 53.7109Z" fill="#8C1539"/>
<path d="M194.641 54.71C194.641 54.71 194.975 55.458 195.064 55.8156C195.154 56.1733 195.677 56.1911 195.872 55.9886C195.872 55.9886 195.672 55.4937 195.624 55.3746C195.577 55.2555 195.493 54.7488 194.641 54.71Z" fill="#8C1539"/>
<path d="M197.212 55.8738H197.209C197.055 55.8669 196.626 56.0301 196.626 56.0301C196.742 55.726 197.056 55.5117 197.056 55.5117C197.06 55.5162 197.064 55.5218 197.068 55.5283C197.127 55.6182 197.212 55.8738 197.212 55.8738Z" fill="#8C1539"/>
<path d="M195.872 56.473C195.872 56.473 194.739 57.2822 194.565 58.0603C194.565 58.0603 194.459 57.8723 194.486 57.78C194.486 57.78 194.17 57.9736 194.101 57.9497C194.101 57.9497 194.289 57.5593 194.298 57.5325C194.307 57.5058 194.176 57.5058 194.176 57.5058C194.176 57.5058 194.7 56.3912 195.872 56.473Z" fill="#8C1539"/>
<path d="M196.224 56.7998C196.224 56.7998 195.845 56.925 195.589 57.3543C195.333 57.7836 195.396 58.016 195.571 58.138C195.571 58.138 195.927 57.8877 195.821 57.5807C195.821 57.5807 196.221 57.5778 196.242 57.5628C196.263 57.5479 195.98 57.1663 196.224 56.7998H196.224Z" fill="#8C1539"/>
<path d="M196.626 56.5623C196.626 56.5623 196.675 56.3476 197.382 56.3744C197.382 56.3744 197.547 56.8527 197.563 57.0228C197.563 57.0228 197.424 56.8393 197.364 56.8393C197.364 56.8393 197.221 57.1411 197.033 57.15C197.033 57.15 197.061 56.6672 196.626 56.5619V56.5623Z" fill="#8C1539"/>
<path d="M196.337 57.6426C196.337 57.6426 196.432 58.0302 196.319 58.2477C196.206 58.4651 195.994 58.5903 195.782 58.3639C195.782 58.3639 195.955 58.3193 196.006 58.1849C196.057 58.0504 196.227 57.6426 196.337 57.6426Z" fill="#8C1539"/>
<path d="M196.489 57.8271C196.489 57.8271 196.546 58.465 196.358 58.6052C196.358 58.6052 196.719 58.6586 196.781 58.3727C196.844 58.0868 196.513 57.8271 196.489 57.8271Z" fill="#8C1539"/>
<path d="M196.957 58.2192C196.957 58.2192 196.867 58.7611 197.032 58.8028C197.196 58.8445 197.303 58.6096 197.205 58.5108C197.106 58.4119 196.975 58.258 196.957 58.2188V58.2192Z" fill="#8C1539"/>
<path d="M197.613 58.099C197.613 58.099 197.458 58.3254 197.372 58.3404C197.285 58.3554 196.957 58.2898 197.038 57.7354C197.038 57.7354 197.365 58.0573 197.449 58.0812C197.533 58.1051 197.613 58.099 197.613 58.099H197.613Z" fill="#8C1539"/>
<path d="M197.759 57.6755C197.751 57.6888 197.742 57.7038 197.732 57.7204C197.562 57.9857 197.294 57.7982 197.242 57.6909C197.19 57.5835 197.025 57.3571 197.025 57.3571C197.025 57.3571 197.139 57.1903 197.378 57.3989C197.509 57.5127 197.653 57.5191 197.73 57.5442C197.74 57.588 197.749 57.6313 197.759 57.6755Z" fill="#8C1539"/>
<path d="M192.414 53.4692C192.414 53.4692 193.053 54.0281 192.566 54.685C192.566 54.685 193.044 54.6494 193.027 54.1439C193.009 53.6389 192.414 53.4688 192.414 53.4688V53.4692Z" fill="#8C1539"/>
<path d="M191.913 54.3138C191.913 54.3138 191.887 54.8249 192.244 54.7297C192.602 54.6345 192.727 54.0679 192.293 53.6524C191.86 53.2364 191.426 53.6123 191.399 53.7419C191.399 53.7419 191.122 53.522 191.117 53.462C191.117 53.462 190.822 53.6123 191.175 54.2336C191.175 54.2336 190.827 54.2291 190.804 54.153C190.804 54.153 190.603 54.5062 191.234 54.931C191.234 54.931 190.991 55.0651 190.96 55.074C190.96 55.074 191.135 55.5478 191.703 55.5077C192.271 55.4676 192.843 55.0962 193.434 55.2218C194.024 55.3469 194.44 55.9638 194.167 56.762C194.127 56.8447 194.176 56.9552 194.198 56.9698C194.198 56.9698 194.417 56.6183 194.411 56.2396C194.405 55.8609 194.368 55.4632 193.684 55.0877C192.999 54.7123 192.069 55.3263 191.524 54.7107C190.978 54.0951 191.953 53.3754 192.244 54.0372C192.297 54.1757 192.275 54.6317 191.913 54.3142L191.913 54.3138Z" fill="#8C1539"/>
<path d="M194.101 56.1678C194.101 56.1678 192.93 55.834 191.993 56.7996C191.993 56.7996 192.047 56.4302 192.154 56.3524C192.154 56.3524 191.788 56.3375 191.767 56.3496C191.767 56.3496 192.005 55.9531 192.309 55.8786C192.309 55.8786 192.223 55.8486 192.154 55.8608C192.154 55.8608 193.316 54.9106 194.1 56.1678H194.101Z" fill="#8C1539"/>
<path d="M190.12 64.082C190.12 64.082 190.071 63.2238 189.249 62.8479C189.249 62.8479 189.436 62.8034 189.575 62.8747C189.575 62.8747 189.537 62.6398 189.486 62.5977C189.486 62.5977 189.783 62.7026 189.904 62.8658C189.904 62.8658 189.924 62.7831 189.892 62.7471C189.892 62.7471 190.787 63.3113 190.12 64.0816V64.082Z" fill="#8C1539"/>
<path d="M190.82 62.1551C190.82 62.1551 190.536 62.2085 190.619 62.4301C190.701 62.6512 191.102 62.7298 191.296 62.5532C191.491 62.3766 191.642 61.8379 191.037 61.6302C191.037 61.6302 191.086 61.3653 191.14 61.3685C191.14 61.3685 190.873 61.3001 190.676 61.6577C190.676 61.6577 190.567 61.5071 190.604 61.3633C190.604 61.3633 190.272 61.4447 190.213 61.8914C190.213 61.8914 190.062 61.7869 190.062 61.759C190.062 61.759 189.737 62.0481 190.032 62.4353C190.327 62.8229 190.712 63.2073 190.718 63.4875C190.724 63.7678 190.451 64.3146 189.964 64.3057C189.865 64.3057 189.749 64.3927 189.85 64.4733C189.951 64.5539 190.62 64.3312 190.829 63.9881C191.037 63.6455 190.989 63.3146 190.772 63.0554C190.554 62.7962 190.253 62.3373 190.465 61.9975C190.676 61.6577 191.04 61.7472 191.132 61.9469C191.225 62.1466 191.085 62.3402 190.977 62.3612C190.87 62.3823 190.716 62.3017 190.82 62.1555V62.1551Z" fill="#8C1539"/>
<path d="M190.348 65.2798C190.348 65.2798 189.633 64.7476 189.061 64.8594C189.061 64.8594 189.15 64.7176 189.221 64.7148C189.221 64.7148 189.052 64.5629 189.016 64.5479C189.016 64.5479 189.198 64.5001 189.362 64.5658C189.362 64.5658 189.347 64.4973 189.323 64.4795C189.323 64.4795 190.165 64.6002 190.348 65.2798H190.348Z" fill="#8C1539"/>
<path d="M191.073 63.9346C191.073 63.9346 190.715 64.2877 190.592 64.357C190.469 64.4262 190.252 64.5781 190.337 64.7729C190.422 64.9673 190.525 65.0366 190.525 65.0366C190.525 65.0366 190.986 64.645 191.082 64.4898C191.178 64.3347 191.1 63.984 191.073 63.9346Z" fill="#8C1539"/>
<path d="M193.617 63.5369C193.617 63.5369 193.617 63.2417 193.456 63.2911C193.295 63.3401 193.116 63.5547 193.072 63.7738C193.041 63.9213 192.946 64.1882 192.776 64.3822C192.693 64.4769 192.592 64.5539 192.472 64.5919C192.105 64.7082 191.909 64.6053 191.837 64.5247C191.837 64.5247 191.317 65.0346 190.902 65.4344H190.901C190.772 65.4064 190.651 65.376 190.537 65.344C190.737 65.2035 191.279 64.803 191.578 64.3818C191.578 64.3818 191.542 64.3384 191.499 64.2801C191.44 64.2011 191.366 64.095 191.345 64.033C191.31 63.9257 191.287 63.6353 191.614 63.4518C191.94 63.2688 192.226 62.9869 192.182 62.7994C192.137 62.6115 191.882 62.6248 191.802 62.7321C191.802 62.7321 191.922 62.3255 192.329 62.3433C192.383 62.3458 192.428 62.3555 192.466 62.3709C192.711 62.4705 192.633 62.8079 192.57 62.8929C192.56 62.9067 192.542 62.9298 192.519 62.9594C192.378 63.14 192.037 63.5705 192.083 63.7204C192.083 63.7204 192.422 63.3814 192.66 63.1274C192.771 63.0088 192.86 62.9091 192.884 62.8707C192.884 62.8707 192.856 62.9966 192.801 63.172C192.73 63.3992 192.614 63.709 192.455 63.9338C192.473 63.9176 192.757 63.6523 192.852 63.4879C192.887 63.4284 192.941 63.321 193.01 63.2084C193.138 62.9982 193.316 62.7686 193.505 62.7949C193.647 62.8144 193.744 62.912 193.774 63.046C193.804 63.1858 193.761 63.3656 193.617 63.5369Z" fill="#8C1539"/>
<path d="M192.427 64.8332L191.829 65.5663C191.608 65.5509 191.4 65.5249 191.204 65.4921C191.49 65.1924 191.965 64.7907 192.427 64.8332Z" fill="#8C1539"/>
<path d="M195.01 64.5581C195.01 64.5581 194.977 64.6168 194.921 64.6925C194.826 64.8201 194.663 64.9967 194.471 65.0275C194.19 65.0728 192.989 64.6379 192.18 65.5811C192.122 65.5803 192.065 65.5787 192.009 65.5759C192.3 65.2012 192.853 64.6176 193.42 64.7035C193.637 64.7363 193.82 64.7509 193.976 64.7468C194.414 64.7363 194.636 64.5787 194.797 64.2653C195.016 63.8408 194.896 63.6573 194.547 63.778C194.198 63.8987 194.225 64.5536 194.551 64.181C194.546 64.2033 194.44 64.6354 194.118 64.4309C193.787 64.2207 194.039 63.2224 194.832 63.5439C194.93 63.5767 195.031 63.6545 195.165 63.2969C195.165 63.2969 195.343 63.4249 195.039 63.9344C195.039 63.9344 195.267 63.825 195.296 63.7468C195.296 63.7468 195.392 64.0328 194.847 64.5516C194.847 64.5516 194.943 64.5803 195.01 64.5581Z" fill="#8C1539"/>
<path d="M194.027 65.3506C193.51 65.4887 193.021 65.5563 192.568 65.5758C192.893 65.3514 193.499 65.0375 194.027 65.3506Z" fill="#8C1539"/>
<path d="M193.827 61.5291C193.827 61.5291 193.899 61.4874 193.983 61.3631C194.068 61.2388 194.328 61.0419 194.417 61.0913C194.417 61.0913 194.39 61.2635 194.406 61.2724C194.406 61.2724 194.533 61.1784 194.712 61.2699C194.712 61.2699 194.589 61.4623 194.625 61.5182C194.625 61.5182 194.811 61.5251 194.844 61.6389C194.844 61.6389 194.672 61.677 194.659 61.8224C194.645 61.9678 194.54 62.2428 194.397 62.2472C194.254 62.2517 194.14 62.1646 194.135 61.9856C194.131 61.8066 194.252 61.5117 194.435 61.6839C194.435 61.6839 194.194 61.8025 194.335 61.9945C194.477 62.1869 194.79 61.6057 194.395 61.4534C193.999 61.3015 193.961 62.2067 193.793 62.3991C193.625 62.5915 193.466 62.5874 193.275 62.4833C193.084 62.3793 192.944 62.5728 192.726 62.2987C192.509 62.0245 192.845 61.5863 192.768 61.3064C192.691 61.0261 192.452 60.9516 192.327 61.1367C192.202 61.3214 192.235 61.5777 192.345 61.551C192.455 61.5243 192.551 61.372 192.452 61.3007C192.452 61.3007 192.529 61.1816 192.592 61.2829C192.655 61.3842 192.583 61.7892 192.372 61.7952C192.16 61.8013 192.082 61.6106 192.121 61.408C192.16 61.2055 192.266 61.1189 192.111 61.0804C192.111 61.0804 192.097 60.8779 192.383 60.9731C192.383 60.9731 192.389 60.7884 192.344 60.7467C192.344 60.7467 192.455 60.6693 192.672 60.884C192.672 60.884 192.711 60.7762 192.687 60.7333C192.687 60.7333 192.833 60.7171 192.935 61.0597C193.036 61.4024 193.09 61.3967 193.09 61.3967C193.09 61.3967 193.12 60.9735 193.311 60.9111C193.501 60.8483 193.272 60.6308 193.278 60.5235C193.278 60.5235 193.453 60.4579 193.526 60.5855C193.526 60.5855 193.518 59.9059 193.629 59.7471C193.741 59.5883 193.833 59.9909 193.801 60.2052C193.77 60.4198 193.665 60.5247 193.797 60.5292C193.929 60.5336 193.956 60.641 193.956 60.641C193.956 60.641 193.802 60.8868 193.796 60.9346C193.79 60.9824 193.826 61.0719 193.865 61.0925C193.903 61.1132 193.984 61.2477 193.808 61.5247L193.826 61.5308L193.827 61.5291Z" fill="#8C1539"/>
<path d="M183.349 30.8518C184.251 30.8518 184.982 30.1205 184.982 29.2184C184.982 28.3163 184.251 27.585 183.349 27.585C182.446 27.585 181.715 28.3163 181.715 29.2184C181.715 30.1205 182.446 30.8518 183.349 30.8518Z" fill="#8C1539"/>
<path d="M182.751 29.8911C182.751 30.0069 182.705 30.1102 182.632 30.1859C182.406 30.0191 182.241 29.7752 182.176 29.4938C182.222 29.4759 182.273 29.4658 182.326 29.4658C182.561 29.4658 182.751 29.6562 182.751 29.8907V29.8911Z" fill="white"/>
<path d="M182.839 28.4012C182.839 28.6361 182.649 28.826 182.414 28.826C182.347 28.826 182.283 28.8106 182.227 28.7815C182.329 28.5178 182.522 28.2995 182.766 28.165C182.812 28.2319 182.839 28.3141 182.839 28.4008V28.4012Z" fill="white"/>
<path d="M184.069 28.254C183.996 28.3796 183.861 28.4642 183.704 28.4642C183.469 28.4642 183.279 28.2739 183.279 28.0394C183.279 28.0317 183.279 28.024 183.28 28.0171C183.304 28.0159 183.326 28.0146 183.349 28.0146C183.619 28.0146 183.869 28.1038 184.069 28.254Z" fill="white"/>
<path d="M184.553 29.219C184.553 29.3891 184.517 29.5507 184.454 29.6974C184.267 29.654 184.128 29.4859 184.128 29.2859C184.128 29.0688 184.29 28.891 184.5 28.8643C184.534 28.9764 184.553 29.0955 184.553 29.219Z" fill="white"/>
<path d="M184.034 30.2081C183.84 30.3437 183.604 30.4227 183.349 30.4227C183.309 30.4227 183.27 30.4207 183.231 30.4162C183.23 30.4106 183.23 30.4053 183.23 30.3996C183.23 30.1659 183.42 29.9756 183.655 29.9756C183.821 29.9756 183.963 30.0704 184.034 30.2081Z" fill="white"/>
<path d="M183.732 29.5957L183.122 29.6925L182.841 29.1421L183.278 28.7051L183.829 28.9857L183.732 29.5957Z" fill="white"/>
<path d="M183.683 32.1159L183.133 31.5654L182.603 32.0947L183.154 32.6451L183.683 32.1159Z" fill="#8C1539"/>
<path d="M184.571 26.5052L184.181 25.8311L183.533 26.2053L183.922 26.8794L184.571 26.5052Z" fill="#8C1539"/>
<path d="M184.835 46.1094L184.596 45.7101L184.813 45.5801L185.492 46.7137L185.276 46.8437L185.036 46.4444L183.869 47.1438L183.668 46.8089L184.835 46.1094Z" fill="#BCBAB7"/>
<path d="M185.42 48.563C185.656 48.4213 185.929 48.2649 186.09 48.1766L186.085 48.1689C185.784 48.2621 185.254 48.4383 184.733 48.5849L184.552 48.2828C184.915 47.9421 185.347 47.5367 185.579 47.3164L185.573 47.3059C185.418 47.4136 185.133 47.5959 184.894 47.7392L184.403 48.0337L184.219 47.7279L185.603 46.8984L185.903 47.3986C185.579 47.7259 185.244 48.043 185.065 48.2018L185.066 48.2046C185.277 48.1301 185.764 47.9972 186.189 47.8753L186.482 48.3634L185.097 49.1928L184.905 48.872L185.42 48.5634L185.42 48.563Z" fill="#BCBAB7"/>
<path d="M266.176 46.8707C266.199 46.8968 266.216 46.928 266.244 46.9701C266.213 47.014 266.185 47.0624 266.15 47.1044C265.892 47.4082 265.605 47.6789 265.292 47.9292C265.177 48.0203 265.102 48.0114 264.993 47.9241C264.649 47.6426 264.12 47.3566 264.114 46.9841C264.109 46.5841 264.653 46.3045 265.002 46.0179C265.073 45.9587 265.138 45.8956 265.242 45.9778C265.586 46.2415 265.899 46.537 266.176 46.8707H266.176Z" fill="#8C1539"/>
<path d="M268.338 43.776C267.457 42.885 266.332 42.5952 265.114 42.5844C264.786 42.5755 264.461 42.6105 264.138 42.6627C262.075 42.9965 260.781 44.5473 260.846 46.6121C260.911 48.6508 262.615 50.7748 264.587 51.2818C264.996 51.3869 265.396 51.3811 265.789 51.2347C267.513 50.5882 268.719 49.4176 269.223 47.6362C269.621 46.2179 269.42 44.8689 268.338 43.7754L268.338 43.776ZM267.359 46.6796C267.342 47.8362 267.118 48.9399 266.334 49.8348C265.406 50.8914 264.812 50.9054 263.91 49.8329C262.916 48.6521 262.684 47.2299 262.967 45.7485C263.173 44.674 264.155 44.0734 265.326 44.1779C266.516 44.283 267.271 45.0288 267.358 46.1905C267.37 46.3529 267.36 46.5153 267.36 46.6796H267.359Z" fill="#8C1539"/>
<path d="M254.844 49.6612C256.503 49.6612 258.161 49.6714 259.82 49.6529C260.151 49.6491 260.192 49.7689 260.124 50.0325C260.04 50.3593 259.95 50.6853 259.879 51.0153C259.842 51.1859 259.759 51.2375 259.59 51.2369C257.581 51.2324 255.572 51.2312 253.563 51.2382C253.378 51.2388 253.312 51.1668 253.299 51.0038C253.297 50.9809 253.289 50.9579 253.285 50.935C253.176 50.2816 253.41 49.7833 253.986 49.4402C255.007 48.8275 256.03 48.2174 256.921 47.4181C257.467 46.9277 257.876 46.3666 257.847 45.5787C257.818 44.768 257.372 44.2712 256.565 44.1941C255.531 44.0954 254.545 44.3024 253.534 44.7107C253.657 44.1292 253.78 43.5955 254.098 43.1286C254.14 43.0675 254.224 43.0254 254.298 42.9981C255.521 42.5344 256.774 42.4178 258.038 42.7783C260.291 43.4209 260.231 46.0583 259.138 47.2805C258.416 48.0868 257.488 48.5639 256.513 48.9676C255.957 49.1976 255.389 49.3995 254.828 49.6141C254.833 49.63 254.838 49.6453 254.844 49.6612Z" fill="#8C1539"/>
<path d="M271.322 49.6611C272.992 49.6611 274.662 49.6681 276.332 49.6541C276.608 49.6516 276.655 49.7216 276.618 49.9828C276.442 51.233 276.45 51.2336 275.214 51.2336C273.521 51.2336 271.827 51.2266 270.134 51.2413C269.874 51.2432 269.8 51.1578 269.762 50.9216C269.607 49.9541 269.6 49.9547 270.423 49.4656C271.456 48.8516 272.489 48.2345 273.391 47.4314C273.9 46.9792 274.296 46.4639 274.333 45.7392C274.379 44.8405 273.9 44.2673 272.999 44.1902C271.978 44.103 271.004 44.3119 270.017 44.7112C270.132 44.1539 270.263 43.6438 270.539 43.1789C270.596 43.0827 270.681 43.0317 270.783 42.9935C272.009 42.5369 273.264 42.4076 274.524 42.7833C276.285 43.3088 276.922 45.3284 275.868 46.9442C275.386 47.6817 274.679 48.1498 273.915 48.5459C273.21 48.9122 272.468 49.1892 271.722 49.4548C271.582 49.5045 271.445 49.5586 271.306 49.6102C271.311 49.6267 271.316 49.6439 271.32 49.6605L271.322 49.6611Z" fill="#8C1539"/>
<path d="M278.892 49.661C280.55 49.661 282.208 49.6705 283.866 49.6527C284.182 49.6495 284.228 49.745 284.183 50.0246C283.989 51.2328 283.995 51.2334 282.778 51.2334C281.097 51.2334 279.415 51.2239 277.734 51.2424C277.439 51.2455 277.363 51.1392 277.327 50.8806C277.198 49.9425 277.191 49.9431 277.998 49.4635C279.03 48.8489 280.063 48.233 280.964 47.4287C281.452 46.9937 281.847 46.502 281.897 45.8059C281.968 44.8435 281.491 44.2639 280.533 44.1869C279.525 44.106 278.563 44.3168 277.589 44.7104C277.704 44.1525 277.835 43.6411 278.112 43.1768C278.169 43.0806 278.256 43.0303 278.357 42.9927C279.582 42.5367 280.834 42.4182 282.098 42.7806C284.336 43.422 284.272 46.0224 283.236 47.2293C282.636 47.9286 281.866 48.3776 281.047 48.761C280.343 49.0909 279.604 49.3349 278.892 49.661Z" fill="#8C1539"/>
<path d="M246.386 44.774C246.386 44.5975 246.335 44.5192 246.155 44.5084C245.002 44.4421 243.849 44.3269 242.694 44.4912C241.088 44.7198 240.077 45.651 239.766 47.2164C239.628 47.9062 239.612 48.6087 239.736 49.3054C239.785 49.5761 239.759 49.6742 239.434 49.6704C237.215 49.6532 234.996 49.6634 232.777 49.6583C232.509 49.6583 232.239 49.6373 231.975 49.5991C231.384 49.515 231.079 49.187 231.065 48.5909C231.047 47.8431 231.065 47.0954 231.056 46.3496C231.054 46.17 231.105 46.0981 231.293 46.1051C231.595 46.1191 231.9 46.1083 232.204 46.1083C233.484 46.1083 233.502 46.084 233.654 44.7963C233.682 44.5517 233.602 44.5307 233.403 44.5345C232.737 44.5434 232.071 44.5243 231.405 44.5434C231.126 44.5523 231.04 44.4772 231.065 44.1938C231.119 43.5925 231.142 42.99 231.178 42.3506C230.416 42.5983 229.754 42.9461 229.211 43.4983C229.141 43.5683 229.115 43.6486 229.103 43.746C229.071 44.0046 229.244 44.3574 229.019 44.4988C228.825 44.6211 228.498 44.5319 228.229 44.537C228.218 44.537 228.206 44.5389 228.194 44.537C227.993 44.4988 227.926 44.6103 227.914 44.7867C227.89 45.1606 227.865 45.5325 227.83 45.9044C227.816 46.0567 227.867 46.1159 228.022 46.1089C228.267 46.1019 228.515 46.1248 228.758 46.1038C229.029 46.0796 229.115 46.1618 229.113 46.4464C229.11 47.3324 229.062 48.2215 229.143 49.1067C229.248 50.2646 229.952 51.0193 231.098 51.1945C231.349 51.2327 231.61 51.2314 231.867 51.2314C234.915 51.2346 237.964 51.2015 241.012 51.2505C242.143 51.2677 242.901 50.7996 243.488 49.9092C243.843 49.3711 244.108 48.7896 244.428 48.2094C244.428 49.1284 244.435 50.0455 244.423 50.9639C244.421 51.1785 244.48 51.2454 244.698 51.2384C245.164 51.2225 245.632 51.2263 246.099 51.2365C246.298 51.2416 246.389 51.2053 246.389 50.9728C246.38 48.9061 246.382 46.8394 246.387 44.7733L246.386 44.774ZM243.441 48.666C243.289 48.9819 243.11 49.2844 242.823 49.501C242.451 49.7787 242.072 49.6965 241.923 49.2615C241.627 48.3966 241.622 47.4973 241.744 46.6025C241.799 46.1974 242.144 46.028 242.523 45.9529C243.137 45.8306 243.754 45.8968 244.415 45.8796C244.112 46.8598 243.862 47.7922 243.44 48.666H243.441Z" fill="#8C1539"/>
<path d="M220.568 53.1056C220.474 52.2585 220.037 51.6643 219.272 51.2873C218.624 50.9656 217.993 50.6128 217.355 50.2721C216.988 50.0766 216.621 49.8772 216.197 49.6486C216.648 49.4683 217.018 49.2989 217.366 49.0824C217.724 48.8607 218.056 48.6034 218.346 48.2964C219.873 46.6768 219.631 44.0305 217.836 42.8338C216.882 42.1995 215.802 42.018 214.687 42.1122C213.081 42.2485 211.768 42.9281 211.103 44.4636C210.431 46.0202 210.619 47.5207 211.691 48.869C212.357 49.7091 213.23 50.2925 214.161 50.7886C215.592 51.5503 217.032 52.2929 218.468 53.0419C219.169 53.4069 219.87 53.7705 220.596 54.1514C220.624 53.7724 220.605 53.4387 220.568 53.105V53.1056ZM215.774 49.2588C215.694 49.3358 215.624 49.353 215.528 49.2989C214.771 48.8811 214.025 48.448 213.464 47.7653C212.851 47.0176 212.676 46.1667 212.904 45.2394C213.132 44.305 213.871 43.749 214.939 43.6828C215.907 43.6216 216.667 44.0847 217.025 44.9528C217.197 45.3686 217.254 45.8049 217.26 46.2527C217.276 47.5067 216.638 48.4378 215.775 49.2588H215.774Z" fill="#8C1539"/>
<path d="M226.981 44.7636C226.981 44.5801 226.92 44.5158 226.748 44.5069C225.595 44.4406 224.438 44.3133 223.289 44.4948C222.079 44.6852 221.082 45.2215 220.609 46.4182C220.119 47.655 220.112 48.9339 220.542 50.1861C220.958 51.3987 222.073 51.7178 223.125 50.9758C223.572 50.6599 223.89 50.23 224.178 49.7721C224.491 49.2728 224.726 48.7308 225.019 48.2034V48.5352C225.019 49.3403 225.024 50.1459 225.014 50.951C225.012 51.1484 225.038 51.2465 225.274 51.2376C225.765 51.2204 226.256 51.2255 226.745 51.2357C226.932 51.2407 226.981 51.1745 226.979 50.9962C226.974 48.9174 226.974 46.8405 226.981 44.7636H226.981ZM223.909 48.9021C223.78 49.1377 223.626 49.3581 223.401 49.5135C223.032 49.7682 222.702 49.6797 222.52 49.274C222.36 48.9174 222.334 48.5301 222.307 48.1493C222.277 47.7442 222.272 47.3353 222.283 46.9283C222.299 46.359 222.566 46.0622 223.135 45.9501C223.747 45.8278 224.363 45.894 225.015 45.8819C224.681 46.9233 224.429 47.9608 223.909 48.9021Z" fill="#8C1539"/>
<path d="M249.932 47.4081C250.102 46.9622 250.22 46.5018 250.427 46.075C250.808 45.2891 251.326 44.6624 252.232 44.4548C252.461 44.4026 252.559 44.4166 252.589 44.6866C252.643 45.1853 252.705 45.6821 252.715 46.1846C252.719 46.3285 252.719 46.4145 252.519 46.4056C251.706 46.3706 251.152 46.8005 250.755 47.4616C250.27 48.2679 250.082 49.1678 249.979 50.0887C249.946 50.39 249.925 50.6938 249.921 50.9963C249.919 51.1734 249.873 51.2421 249.684 51.2371C249.205 51.225 248.726 51.2205 248.247 51.2383C248.012 51.2472 247.952 51.1689 247.953 50.9415C247.961 49.5174 247.963 48.0934 247.949 46.6693C247.943 46.0515 247.901 45.4337 247.861 44.8165C247.847 44.614 247.877 44.5217 248.112 44.5312C248.578 44.5497 249.046 44.5433 249.513 44.5338C249.692 44.5299 249.746 44.5943 249.769 44.7707C249.887 45.6451 249.922 46.5234 249.931 47.4081H249.932Z" fill="#8C1539"/>
<path d="M283.478 35.1431C283.478 35.8666 283.493 36.5908 283.475 37.3143C283.44 38.6766 282.707 39.5682 281.377 39.8727C280.445 40.086 279.521 40.0548 278.632 39.6746C277.773 39.3078 277.268 38.6307 277.188 37.7206C277.044 36.0915 277.155 34.4546 277.128 32.821C277.125 32.686 277.175 32.6357 277.312 32.6363C277.837 32.6408 278.363 32.644 278.888 32.6357C279.134 32.6319 279.062 32.8038 279.063 32.9248C279.067 34.1973 279.066 35.4692 279.065 36.7417C279.065 37.0933 279.085 37.4417 279.202 37.7767C279.392 38.3142 279.744 38.56 280.313 38.5581C280.878 38.5562 281.235 38.3027 281.421 37.7697C281.549 37.399 281.548 37.0118 281.549 36.6277C281.553 35.4023 281.556 34.1763 281.546 32.9509C281.544 32.7172 281.591 32.6198 281.849 32.6319C282.303 32.6535 282.76 32.6491 283.214 32.6331C283.427 32.6255 283.493 32.6803 283.489 32.9019C283.474 33.6483 283.483 34.396 283.483 35.1431H283.479H283.478Z" fill="#8C1539"/>
<path d="M288.319 32.8072C288.151 32.762 287.976 32.734 287.804 32.7092C286.794 32.5697 285.777 32.676 284.763 32.6308C284.48 32.6187 284.445 32.7232 284.447 32.9677C284.459 34.0511 284.452 35.1357 284.454 36.2203C284.454 37.34 284.459 38.4597 284.447 39.5793C284.445 39.808 284.508 39.878 284.739 39.8691C285.193 39.8519 285.649 39.8532 286.103 39.8691C286.318 39.878 286.381 39.815 286.376 39.5984C286.362 38.945 286.383 38.2915 286.366 37.6387C286.359 37.3852 286.443 37.3241 286.681 37.3349C287.125 37.354 287.567 37.3419 288.007 37.2649C289.206 37.0502 289.953 36.2535 289.997 35.13C290.046 33.897 289.489 33.1193 288.32 32.8066L288.319 32.8072ZM287.119 35.9516C287.014 35.9618 286.909 35.9688 286.715 35.9847C286.44 36.056 286.336 35.9064 286.364 35.5478C286.397 35.1198 286.38 34.6848 286.367 34.2536C286.362 34.0543 286.425 33.974 286.626 33.995C286.799 34.0122 286.975 34.0052 287.148 34.0263C287.784 34.1033 288.067 34.409 288.06 34.9994C288.051 35.5758 287.742 35.8904 287.119 35.9516Z" fill="#8C1539"/>
<path d="M274.469 39.9973C273.691 39.989 272.933 39.8738 272.223 39.5419C270.729 38.8445 269.983 37.3377 270.267 35.6187C270.555 33.8768 271.739 32.7858 273.519 32.5641C274.455 32.4482 275.356 32.5629 276.255 32.8004C276.467 32.8565 276.53 32.9412 276.493 33.1628C276.439 33.4959 276.418 33.8354 276.4 34.1729C276.389 34.3869 276.336 34.4372 276.129 34.3303C275.645 34.0806 275.126 33.9609 274.58 33.9456C273.102 33.9054 272.055 35.0442 272.225 36.5148C272.363 37.709 273.138 38.4465 274.347 38.5439C274.975 38.5942 275.582 38.4904 276.169 38.2815C276.388 38.2038 276.467 38.2389 276.464 38.4739C276.461 38.6955 276.476 38.9172 276.492 39.1388C276.532 39.7101 276.534 39.712 275.963 39.8324C275.471 39.9362 274.974 40.0011 274.469 39.9954V39.9973Z" fill="#8C1539"/>
<path d="M235.034 34.4127C234.896 35.2146 234.758 36.0171 234.619 36.8189C234.457 37.7609 234.288 38.7016 234.138 39.6454C234.108 39.8308 234.034 39.8696 233.867 39.8683C233.178 39.8613 232.488 39.8626 231.8 39.8683C231.665 39.8696 231.582 39.841 231.55 39.6951C231.035 37.3533 230.516 35.012 229.991 32.639C230.611 32.639 231.205 32.6453 231.799 32.6358C232.002 32.6326 231.984 32.7829 232.003 32.8937C232.202 34.0542 232.394 35.2158 232.588 36.3769C232.684 36.9514 232.782 37.5252 232.925 38.1048C233.069 37.2947 233.213 36.4845 233.356 35.6738C233.522 34.7324 233.689 33.7911 233.845 32.8485C233.872 32.688 233.93 32.6339 234.091 32.6358C234.768 32.6428 235.446 32.6441 236.123 32.6352C236.306 32.6326 236.351 32.7052 236.381 32.874C236.676 34.5261 236.982 36.1763 237.285 37.8271C237.299 37.9048 237.292 37.9895 237.392 38.0755C237.593 36.8972 237.79 35.7464 237.985 34.5962C238.082 34.0217 238.185 33.4478 238.269 32.8708C238.298 32.6715 238.392 32.6313 238.572 32.6358C239.015 32.6466 239.46 32.6543 239.903 32.6339C240.162 32.6218 240.185 32.711 240.135 32.9339C239.686 34.9108 239.247 36.8896 238.804 38.8678C238.745 39.1296 238.666 39.3875 238.628 39.6518C238.601 39.839 238.512 39.8709 238.348 39.8696C237.682 39.8633 237.016 39.855 236.351 39.8741C236.13 39.8804 236.076 39.7887 236.043 39.6053C235.729 37.8736 235.409 36.1432 235.091 34.4127C235.073 34.4127 235.054 34.4134 235.035 34.414L235.034 34.4127Z" fill="#8C1539"/>
<path d="M267.693 35.6554C267.616 34.8434 267.35 34.1059 266.724 33.5454C266.145 33.0263 265.432 32.8136 264.681 32.7194C263.46 32.564 262.23 32.6703 261.005 32.6353C260.755 32.6264 260.792 32.7805 260.792 32.9308V36.2567C260.792 37.1216 260.788 37.9846 260.793 38.8488C260.797 39.1736 260.655 39.5984 260.848 39.7959C261.057 40.0124 261.489 39.864 261.821 39.8621C262.871 39.85 263.924 39.9424 264.964 39.7169C266.336 39.4214 267.288 38.6724 267.615 37.2572C267.737 36.7299 267.742 36.1917 267.693 35.6554ZM265.647 36.9674C265.458 37.7642 264.89 38.2654 264.064 38.3909C263.704 38.445 263.342 38.4399 262.98 38.4501C262.78 38.4571 262.722 38.3922 262.726 38.1935C262.736 37.54 262.729 36.8865 262.729 36.2337C262.729 35.5809 262.736 34.9498 262.726 34.3084C262.722 34.1078 262.784 34.0479 262.982 34.0537C263.436 34.0638 263.893 34.0505 264.337 34.1791C265.035 34.3836 265.477 34.8358 265.647 35.5453C265.759 36.0172 265.759 36.4955 265.647 36.9674Z" fill="#8C1539"/>
<path d="M247.521 36.0242C247.477 34.0046 246.424 32.7887 244.423 32.5461C243.251 32.4028 242.131 32.5932 241.245 33.4683C240.48 34.2249 240.284 35.1994 240.272 36.3681C240.291 37.5349 240.59 38.7176 241.792 39.4551C242.78 40.0633 243.866 40.1136 244.968 39.871C246.269 39.5863 247.059 38.7653 247.384 37.4833C247.504 37.0043 247.531 36.5171 247.52 36.0248L247.521 36.0242ZM245.204 37.752C244.947 38.2934 244.489 38.5641 243.88 38.559C243.282 38.5539 242.861 38.2654 242.587 37.752C242.332 37.2788 242.262 36.7598 242.258 36.3178C242.26 35.7363 242.328 35.2503 242.55 34.8032C242.819 34.2581 243.254 33.9523 243.881 33.9473C244.507 33.9422 244.972 34.2179 245.225 34.779C245.67 35.7662 245.667 36.7725 245.204 37.752H245.204Z" fill="#8C1539"/>
<path d="M254.292 39.621C253.97 38.772 253.668 37.916 253.354 37.0651C253.233 36.7435 253.06 36.4588 252.725 36.3212C252.737 36.297 252.741 36.283 252.749 36.2773C252.779 36.2582 252.807 36.2353 252.838 36.2263C253.447 36.0359 253.833 35.6379 253.97 35.0124C254.234 33.8195 253.656 32.9037 252.441 32.7203C251.11 32.5177 249.761 32.6782 248.421 32.6362C248.235 32.6311 248.259 32.7585 248.259 32.8718C248.259 35.1232 248.261 37.3753 248.254 39.6267C248.254 39.8452 248.343 39.8713 248.522 39.8681C248.991 39.8592 249.457 39.8509 249.924 39.8713C250.151 39.8802 250.191 39.798 250.19 39.5917C250.177 38.8338 250.193 38.0752 250.179 37.3173C250.176 37.0868 250.22 36.9995 250.478 36.9957C251.069 36.9836 251.448 37.2352 251.666 37.7804C251.908 38.3867 252.089 39.0134 252.285 39.6337C252.339 39.8069 252.414 39.8732 252.601 39.8694C253.102 39.8554 253.603 39.8573 254.105 39.8675C254.312 39.8726 254.374 39.8362 254.292 39.6197V39.621ZM251.561 35.5455C251.156 35.6748 250.735 35.6417 250.317 35.6468C250.174 35.6487 250.184 35.5487 250.184 35.4544V34.6526C250.184 33.952 250.184 33.9488 250.901 34.01C251.122 34.0272 251.341 34.0361 251.555 34.108C251.885 34.2201 252.091 34.4188 252.096 34.7876C252.101 35.1806 251.939 35.4251 251.562 35.5455H251.561Z" fill="#8C1539"/>
<path d="M255.212 36.2557C255.212 35.1596 255.219 34.0629 255.206 32.9668C255.203 32.7191 255.245 32.614 255.524 32.6318C255.954 32.6586 256.389 32.6586 256.819 32.6318C257.098 32.614 257.137 32.7191 257.136 32.9662C257.126 34.6807 257.137 36.3946 257.124 38.1091C257.122 38.3906 257.202 38.4594 257.474 38.4537C258.268 38.4358 259.061 38.4536 259.854 38.4428C260.062 38.4403 260.148 38.4887 260.134 38.7129C260.115 39.0147 260.122 39.3192 260.132 39.6223C260.138 39.7918 260.105 39.8726 259.907 39.8714C258.413 39.8637 256.92 39.8625 255.426 39.872C255.176 39.8739 255.212 39.7293 255.212 39.5797C255.212 38.4715 255.212 37.3639 255.212 36.2557H255.212Z" fill="#8C1539"/>
<path d="M228.649 39.7374C227.81 37.428 226.968 35.1206 226.133 32.8093C226.077 32.6558 225.982 32.6348 225.839 32.6348C225.233 32.6418 224.625 32.6539 224.019 32.6316C223.769 32.6214 223.683 32.7188 223.606 32.9341C222.895 34.9066 222.172 36.8733 221.454 38.8438C221.333 39.1737 221.218 39.5075 221.092 39.866H222.506C223.276 39.866 223.285 39.868 223.512 39.1272C223.566 38.9508 223.638 38.8846 223.825 38.8878C224.302 38.9018 224.782 38.891 225.261 38.8929C225.541 38.8948 225.869 38.8145 226.086 38.9349C226.291 39.0502 226.273 39.4119 226.357 39.6654C226.395 39.7775 226.425 39.8718 226.586 39.8699C227.272 39.8609 227.961 39.8667 228.651 39.8667C228.651 39.8074 228.661 39.7686 228.649 39.7393V39.7374ZM225.5 37.5032C225.081 37.4911 224.661 37.4911 224.242 37.5051C224.003 37.5121 224.008 37.4089 224.062 37.2293C224.32 36.3504 224.572 35.4702 224.829 34.5843C224.961 34.6824 224.956 34.8378 224.995 34.9652C225.228 35.718 225.442 36.4778 225.675 37.2325C225.734 37.4191 225.736 37.5102 225.5 37.5032Z" fill="#8C1539"/>
<path d="M222.241 32.6379C222.058 33.1423 221.886 33.6092 221.72 34.0786C221.658 34.2556 221.512 34.1989 221.395 34.1996C220.671 34.204 219.947 34.211 219.223 34.1964C218.988 34.1919 218.916 34.2677 218.93 34.4951C218.947 34.7861 218.951 35.0798 218.929 35.3695C218.909 35.6281 219.016 35.6797 219.249 35.6727C219.786 35.6574 220.324 35.6727 220.861 35.6651C221.057 35.6619 221.146 35.6899 221.054 35.916C220.9 36.293 220.76 36.6764 220.636 37.0649C220.581 37.2382 220.483 37.2668 220.327 37.2637C219.954 37.2567 219.579 37.2726 219.206 37.2567C218.992 37.2477 218.925 37.3133 218.929 37.5299C218.943 38.2184 218.925 38.9075 218.939 39.596C218.943 39.8112 218.884 39.8749 218.666 39.8692C218.083 39.8539 217.498 39.8577 216.914 39.8673C216.732 39.8705 216.675 39.8157 216.676 39.6304C216.682 37.3777 216.68 35.125 216.678 32.8723C216.678 32.7277 216.684 32.6322 216.876 32.6328C218.649 32.6385 220.422 32.636 222.24 32.636L222.241 32.6379Z" fill="#8C1539"/>
<path d="M212.187 32.638C212.011 33.1271 211.842 33.5723 211.691 34.0226C211.632 34.1996 211.514 34.2041 211.366 34.2034C210.63 34.1996 209.895 34.2092 209.16 34.1971C208.947 34.1933 208.864 34.248 208.884 34.469C208.919 34.8601 208.722 35.3721 208.963 35.6097C209.155 35.7989 209.67 35.6638 210.042 35.6683C210.31 35.6721 210.579 35.6728 210.847 35.6677C210.998 35.6645 211.096 35.667 211.014 35.8727C210.854 36.2721 210.711 36.679 210.574 37.0873C210.522 37.2427 210.427 37.2682 210.284 37.265C209.922 37.258 209.558 37.2835 209.199 37.2561C208.92 37.2344 208.875 37.3414 208.882 37.5898C208.898 38.2547 208.876 38.9203 208.893 39.5846C208.899 39.8202 208.824 39.8769 208.599 39.8712C208.028 39.8559 207.455 39.8578 206.883 39.8712C206.68 39.8756 206.633 39.8068 206.633 39.6138C206.639 37.3739 206.637 35.1333 206.635 32.8934C206.635 32.7405 206.632 32.6335 206.846 32.6348C208.608 32.6431 210.371 32.6392 212.186 32.6392L212.187 32.638Z" fill="#8C1539"/>
<path d="M212.884 36.2557C212.884 35.1596 212.895 34.0635 212.876 32.9681C212.871 32.6821 212.962 32.6222 213.226 32.6318C213.774 32.6515 214.322 32.6439 214.87 32.6343C215.05 32.6312 215.138 32.6541 215.138 32.8725C215.129 35.1227 215.13 37.3728 215.138 39.6223C215.138 39.828 215.069 39.8726 214.879 39.8694C214.308 39.8586 213.736 39.8535 213.165 39.8714C212.928 39.879 212.877 39.8 212.88 39.5784C212.891 38.4708 212.885 37.3633 212.885 36.2557H212.884Z" fill="#8C1539"/>
<path d="M38.6992 57.3926L40.3223 64.3945L42.2676 57.3926H43.5332L45.4785 64.3945L47.1016 57.3926H48.3789L46.1172 66H44.8926L42.9062 58.8633L40.9082 66H39.6836L37.4336 57.3926H38.6992Z" fill="#0030CE"/>
<path d="M51.6016 65.3203C52.3008 65.3203 52.7793 65.0566 53.0371 64.5293C53.2988 63.998 53.4297 63.4082 53.4297 62.7598C53.4297 62.1738 53.3359 61.6973 53.1484 61.3301C52.8516 60.752 52.3398 60.4629 51.6133 60.4629C50.9688 60.4629 50.5 60.709 50.207 61.2012C49.9141 61.6934 49.7676 62.2871 49.7676 62.9824C49.7676 63.6504 49.9141 64.207 50.207 64.6523C50.5 65.0977 50.9648 65.3203 51.6016 65.3203ZM51.6426 59.543C52.4512 59.543 53.1348 59.8125 53.6934 60.3516C54.252 60.8906 54.5312 61.6836 54.5312 62.7305C54.5312 63.7422 54.2852 64.5781 53.793 65.2383C53.3008 65.8984 52.5371 66.2285 51.502 66.2285C50.6387 66.2285 49.9531 65.9375 49.4453 65.3555C48.9375 64.7695 48.6836 63.9844 48.6836 63C48.6836 61.9453 48.9512 61.1055 49.4863 60.4805C50.0215 59.8555 50.7402 59.543 51.6426 59.543Z" fill="#0030CE"/>
<path d="M55.8203 59.7246H56.8223V60.8086C56.9043 60.5977 57.1055 60.3418 57.4258 60.041C57.7461 59.7363 58.1152 59.584 58.5332 59.584C58.5527 59.584 58.5859 59.5859 58.6328 59.5898C58.6797 59.5938 58.7598 59.6016 58.873 59.6133V60.7266C58.8105 60.7148 58.752 60.707 58.6973 60.7031C58.6465 60.6992 58.5898 60.6973 58.5273 60.6973C57.9961 60.6973 57.5879 60.8691 57.3027 61.2129C57.0176 61.5527 56.875 61.9453 56.875 62.3906V66H55.8203V59.7246Z" fill="#0030CE"/>
<path d="M59.8164 57.3926H60.8711V66H59.8164V57.3926Z" fill="#0030CE"/>
<path d="M63.127 62.9355C63.127 63.6074 63.2695 64.1699 63.5547 64.623C63.8398 65.0762 64.2969 65.3027 64.9258 65.3027C65.4141 65.3027 65.8145 65.0938 66.127 64.6758C66.4434 64.2539 66.6016 63.6504 66.6016 62.8652C66.6016 62.0723 66.4395 61.4863 66.1152 61.1074C65.791 60.7246 65.3906 60.5332 64.9141 60.5332C64.3828 60.5332 63.9512 60.7363 63.6191 61.1426C63.291 61.5488 63.127 62.1465 63.127 62.9355ZM64.7148 59.6133C65.1953 59.6133 65.5977 59.7148 65.9219 59.918C66.1094 60.0352 66.3223 60.2402 66.5605 60.5332V57.3633H67.5742V66H66.625V65.127C66.3789 65.5137 66.0879 65.793 65.752 65.9648C65.416 66.1367 65.0312 66.2227 64.5977 66.2227C63.8984 66.2227 63.293 65.9297 62.7812 65.3438C62.2695 64.7539 62.0137 63.9707 62.0137 62.9941C62.0137 62.0801 62.2461 61.2891 62.7109 60.6211C63.1797 59.9492 63.8477 59.6133 64.7148 59.6133Z" fill="#0030CE"/>
<path d="M69.625 59.7246L70.832 64.6699L72.0566 59.7246H73.2402L74.4707 64.6406L75.7539 59.7246H76.8086L74.9863 66H73.8906L72.6133 61.1426L71.377 66H70.2812L68.4707 59.7246H69.625Z" fill="#0030CE"/>
<path d="M77.8105 59.7539H78.8828V66H77.8105V59.7539ZM77.8105 57.3926H78.8828V58.5879H77.8105V57.3926Z" fill="#0030CE"/>
<path d="M81.1504 62.9355C81.1504 63.6074 81.293 64.1699 81.5781 64.623C81.8633 65.0762 82.3203 65.3027 82.9492 65.3027C83.4375 65.3027 83.8379 65.0938 84.1504 64.6758C84.4668 64.2539 84.625 63.6504 84.625 62.8652C84.625 62.0723 84.4629 61.4863 84.1387 61.1074C83.8145 60.7246 83.4141 60.5332 82.9375 60.5332C82.4062 60.5332 81.9746 60.7363 81.6426 61.1426C81.3145 61.5488 81.1504 62.1465 81.1504 62.9355ZM82.7383 59.6133C83.2188 59.6133 83.6211 59.7148 83.9453 59.918C84.1328 60.0352 84.3457 60.2402 84.584 60.5332V57.3633H85.5977V66H84.6484V65.127C84.4023 65.5137 84.1113 65.793 83.7754 65.9648C83.4395 66.1367 83.0547 66.2227 82.6211 66.2227C81.9219 66.2227 81.3164 65.9297 80.8047 65.3438C80.293 64.7539 80.0371 63.9707 80.0371 62.9941C80.0371 62.0801 80.2695 61.2891 80.7344 60.6211C81.2031 59.9492 81.8711 59.6133 82.7383 59.6133Z" fill="#0030CE"/>
<path d="M89.7754 59.584C90.2207 59.584 90.6523 59.6895 91.0703 59.9004C91.4883 60.1074 91.8066 60.377 92.0254 60.709C92.2363 61.0254 92.377 61.3945 92.4473 61.8164C92.5098 62.1055 92.541 62.5664 92.541 63.1992H87.9414C87.9609 63.8359 88.1113 64.3477 88.3926 64.7344C88.6738 65.1172 89.1094 65.3086 89.6992 65.3086C90.25 65.3086 90.6895 65.127 91.0176 64.7637C91.2051 64.5527 91.3379 64.3086 91.416 64.0312H92.4531C92.4258 64.2617 92.334 64.5195 92.1777 64.8047C92.0254 65.0859 91.8535 65.3164 91.6621 65.4961C91.3418 65.8086 90.9453 66.0195 90.4727 66.1289C90.2188 66.1914 89.9316 66.2227 89.6113 66.2227C88.8301 66.2227 88.168 65.9395 87.625 65.373C87.082 64.8027 86.8105 64.0059 86.8105 62.9824C86.8105 61.9746 87.084 61.1562 87.6309 60.5273C88.1777 59.8984 88.8926 59.584 89.7754 59.584ZM91.457 62.3613C91.4141 61.9043 91.3145 61.5391 91.1582 61.2656C90.8691 60.7578 90.3867 60.5039 89.7109 60.5039C89.2266 60.5039 88.8203 60.6797 88.4922 61.0312C88.1641 61.3789 87.9902 61.8223 87.9707 62.3613H91.457Z" fill="#0030CE"/>
<path d="M97.4336 57.3926H101.307C102.072 57.3926 102.689 57.6094 103.158 58.043C103.627 58.4727 103.861 59.0781 103.861 59.8594C103.861 60.5312 103.652 61.1172 103.234 61.6172C102.816 62.1133 102.174 62.3613 101.307 62.3613H98.5996V66H97.4336V57.3926ZM102.684 59.8652C102.684 59.2324 102.449 58.8027 101.98 58.5762C101.723 58.4551 101.369 58.3945 100.92 58.3945H98.5996V61.377H100.92C101.443 61.377 101.867 61.2656 102.191 61.043C102.52 60.8203 102.684 60.4277 102.684 59.8652Z" fill="#0030CE"/>
<path d="M105.994 64.3301C105.994 64.6348 106.105 64.875 106.328 65.0508C106.551 65.2266 106.814 65.3145 107.119 65.3145C107.49 65.3145 107.85 65.2285 108.197 65.0566C108.783 64.7715 109.076 64.3047 109.076 63.6562V62.8066C108.947 62.8887 108.781 62.957 108.578 63.0117C108.375 63.0664 108.176 63.1055 107.98 63.1289L107.342 63.2109C106.959 63.2617 106.672 63.3418 106.48 63.4512C106.156 63.6348 105.994 63.9277 105.994 64.3301ZM108.549 62.1973C108.791 62.166 108.953 62.0645 109.035 61.8926C109.082 61.7988 109.105 61.6641 109.105 61.4883C109.105 61.1289 108.977 60.8691 108.719 60.709C108.465 60.5449 108.1 60.4629 107.623 60.4629C107.072 60.4629 106.682 60.6113 106.451 60.9082C106.322 61.0723 106.238 61.3164 106.199 61.6406H105.215C105.234 60.8672 105.484 60.3301 105.965 60.0293C106.449 59.7246 107.01 59.5723 107.646 59.5723C108.385 59.5723 108.984 59.7129 109.445 59.9941C109.902 60.2754 110.131 60.7129 110.131 61.3066V64.9219C110.131 65.0312 110.152 65.1191 110.195 65.1855C110.242 65.252 110.338 65.2852 110.482 65.2852C110.529 65.2852 110.582 65.2832 110.641 65.2793C110.699 65.2715 110.762 65.2617 110.828 65.25V66.0293C110.664 66.0762 110.539 66.1055 110.453 66.1172C110.367 66.1289 110.25 66.1348 110.102 66.1348C109.738 66.1348 109.475 66.0059 109.311 65.748C109.225 65.6113 109.164 65.418 109.129 65.168C108.914 65.4492 108.605 65.6934 108.203 65.9004C107.801 66.1074 107.357 66.2109 106.873 66.2109C106.291 66.2109 105.814 66.0352 105.443 65.6836C105.076 65.3281 104.893 64.8848 104.893 64.3535C104.893 63.7715 105.074 63.3203 105.438 63C105.801 62.6797 106.277 62.4824 106.867 62.4082L108.549 62.1973Z" fill="#0030CE"/>
<path d="M111.895 59.7246H112.896V60.8086C112.979 60.5977 113.18 60.3418 113.5 60.041C113.82 59.7363 114.189 59.584 114.607 59.584C114.627 59.584 114.66 59.5859 114.707 59.5898C114.754 59.5938 114.834 59.6016 114.947 59.6133V60.7266C114.885 60.7148 114.826 60.707 114.771 60.7031C114.721 60.6992 114.664 60.6973 114.602 60.6973C114.07 60.6973 113.662 60.8691 113.377 61.2129C113.092 61.5527 112.949 61.9453 112.949 62.3906V66H111.895V59.7246Z" fill="#0030CE"/>
<path d="M116.072 57.9727H117.139V59.7246H118.141V60.5859H117.139V64.6816C117.139 64.9004 117.213 65.0469 117.361 65.1211C117.443 65.1641 117.58 65.1855 117.771 65.1855C117.822 65.1855 117.877 65.1855 117.936 65.1855C117.994 65.1816 118.062 65.1758 118.141 65.168V66C118.02 66.0352 117.893 66.0605 117.76 66.0762C117.631 66.0918 117.49 66.0996 117.338 66.0996C116.846 66.0996 116.512 65.9746 116.336 65.7246C116.16 65.4707 116.072 65.1426 116.072 64.7402V60.5859H115.223V59.7246H116.072V57.9727Z" fill="#0030CE"/>
<path d="M119.201 59.7246H120.203V60.6152C120.5 60.248 120.814 59.9844 121.146 59.8242C121.479 59.6641 121.848 59.584 122.254 59.584C123.145 59.584 123.746 59.8945 124.059 60.5156C124.23 60.8555 124.316 61.3418 124.316 61.9746V66H123.244V62.0449C123.244 61.6621 123.188 61.3535 123.074 61.1191C122.887 60.7285 122.547 60.5332 122.055 60.5332C121.805 60.5332 121.6 60.5586 121.439 60.6094C121.15 60.6953 120.896 60.8672 120.678 61.125C120.502 61.332 120.387 61.5469 120.332 61.7695C120.281 61.9883 120.256 62.3027 120.256 62.7129V66H119.201V59.7246Z" fill="#0030CE"/>
<path d="M128.494 59.584C128.939 59.584 129.371 59.6895 129.789 59.9004C130.207 60.1074 130.525 60.377 130.744 60.709C130.955 61.0254 131.096 61.3945 131.166 61.8164C131.229 62.1055 131.26 62.5664 131.26 63.1992H126.66C126.68 63.8359 126.83 64.3477 127.111 64.7344C127.393 65.1172 127.828 65.3086 128.418 65.3086C128.969 65.3086 129.408 65.127 129.736 64.7637C129.924 64.5527 130.057 64.3086 130.135 64.0312H131.172C131.145 64.2617 131.053 64.5195 130.896 64.8047C130.744 65.0859 130.572 65.3164 130.381 65.4961C130.061 65.8086 129.664 66.0195 129.191 66.1289C128.938 66.1914 128.65 66.2227 128.33 66.2227C127.549 66.2227 126.887 65.9395 126.344 65.373C125.801 64.8027 125.529 64.0059 125.529 62.9824C125.529 61.9746 125.803 61.1562 126.35 60.5273C126.896 59.8984 127.611 59.584 128.494 59.584ZM130.176 62.3613C130.133 61.9043 130.033 61.5391 129.877 61.2656C129.588 60.7578 129.105 60.5039 128.43 60.5039C127.945 60.5039 127.539 60.6797 127.211 61.0312C126.883 61.3789 126.709 61.8223 126.689 62.3613H130.176Z" fill="#0030CE"/>
<path d="M132.59 59.7246H133.592V60.8086C133.674 60.5977 133.875 60.3418 134.195 60.041C134.516 59.7363 134.885 59.584 135.303 59.584C135.322 59.584 135.355 59.5859 135.402 59.5898C135.449 59.5938 135.529 59.6016 135.643 59.6133V60.7266C135.58 60.7148 135.521 60.707 135.467 60.7031C135.416 60.6992 135.359 60.6973 135.297 60.6973C134.766 60.6973 134.357 60.8691 134.072 61.2129C133.787 61.5527 133.645 61.9453 133.645 62.3906V66H132.59V59.7246Z" fill="#0030CE"/>
<path d="M86.0227 17.5716L79.4072 48.5122H71.4081L78.0236 17.5716H86.0227ZM119.677 37.5475L123.891 25.9324L126.313 37.5475H119.677ZM128.608 48.5122H136L129.549 17.5716H122.718C121.182 17.5716 119.885 18.4633 119.314 19.8377L107.311 48.5122H115.706L117.377 43.8936H127.64L128.608 48.5122ZM107.723 38.4163C107.761 30.2385 96.4386 29.7914 96.5173 26.1508C96.5427 25.033 97.5987 23.8517 99.9088 23.5494C101.056 23.402 104.212 23.2877 107.799 24.9339L109.2 18.3693C107.281 17.6758 104.798 17 101.719 17C93.8162 17 88.2465 21.2071 88.2034 27.2356C88.1526 31.6866 92.1738 34.1737 95.2099 35.6574C98.3222 37.1715 99.3656 38.142 99.358 39.5037C99.3351 41.5767 96.8676 42.4938 94.5702 42.5243C90.5491 42.5929 88.211 41.442 86.3528 40.5783L84.9007 47.3563C86.7691 48.215 90.219 48.9543 93.7985 49C102.201 49 107.7 44.8412 107.723 38.4163ZM74.594 17.5716L61.632 48.5122H53.1734L46.7964 23.8187C46.4055 22.2944 46.0679 21.7431 44.8925 21.0978C42.9733 20.0511 39.7975 19.073 37 18.4633L37.1929 17.5716H50.8023C52.5387 17.5716 54.0974 18.7225 54.4934 20.7269L57.8621 38.6348L66.1837 17.5716H74.594Z" fill="#0031CE"/>
<line x1="153.5" y1="19" x2="153.5" y2="68" stroke="#0031CE"/>
</svg>
