<svg width="160" height="49" viewBox="0 0 160 49" fill="none" xmlns="http://www.w3.org/2000/svg">
<path d="M153.571 48.1635H6.4348C3.19802 48.1635 0.548096 45.4549 0.548096 42.1414V6.02214C0.548096 2.71312 3.19802 0 6.4348 0H153.571C156.808 0 159.458 2.70861 159.458 6.02214V42.1414C159.458 45.4504 156.808 48.1635 153.571 48.1635Z" fill="#050505"/>
<path d="M51.8853 15.6487V8.42578H54.0927C55.2033 8.42578 56.0926 8.75984 56.7562 9.42797C57.4198 10.0961 57.7539 10.9674 57.7539 12.0373C57.7539 13.1072 57.4198 13.9784 56.7562 14.6465C56.0881 15.3147 55.2033 15.6487 54.0927 15.6487H51.8853ZM52.8152 14.7594H54.0973C54.9324 14.7594 55.5915 14.5201 56.0791 14.0416C56.5666 13.5631 56.8104 12.895 56.8104 12.0327C56.8104 11.1705 56.5666 10.5114 56.0791 10.0284C55.5915 9.54985 54.9324 9.30608 54.0973 9.30608H52.8152V14.7549V14.7594Z" fill="white"/>
<path d="M59.0583 15.6487V8.42578H59.9883V15.6487H59.0583Z" fill="white"/>
<path d="M63.6812 15.8117C63.1576 15.8117 62.6429 15.6401 62.1418 15.297C61.6407 14.9539 61.3112 14.4709 61.1577 13.8524L62.0064 13.5093C62.1057 13.9066 62.3134 14.2407 62.6249 14.5115C62.9409 14.7824 63.2885 14.9223 63.6812 14.9223C64.074 14.9223 64.4306 14.8185 64.715 14.6063C64.9994 14.3942 65.1439 14.1052 65.1439 13.7441C65.1439 13.3423 65.0039 13.0308 64.715 12.8096C64.4306 12.5929 63.9747 12.3853 63.3562 12.2002C62.7152 11.997 62.2321 11.7397 61.9026 11.4192C61.573 11.0987 61.406 10.6924 61.406 10.1913C61.406 9.69021 61.6137 9.22523 62.02 8.84151C62.4308 8.45779 62.9635 8.26367 63.6226 8.26367C64.2365 8.26367 64.7331 8.41716 65.1168 8.72414C65.5005 9.03111 65.7488 9.36517 65.8617 9.72632L65.013 10.0784C64.9498 9.84821 64.8008 9.63603 64.566 9.44192C64.3268 9.2478 64.0198 9.14848 63.6406 9.14848C63.284 9.14848 62.9815 9.2478 62.7287 9.44643C62.4759 9.64506 62.3495 9.89335 62.3495 10.1868C62.3495 10.4576 62.4669 10.6834 62.6971 10.8684C62.9319 11.0535 63.2704 11.2206 63.7219 11.3695C64.0785 11.4824 64.3765 11.5953 64.6157 11.7036C64.855 11.8119 65.0987 11.9519 65.3425 12.1325C65.5863 12.3085 65.7714 12.5342 65.8978 12.8006C66.0242 13.0669 66.0829 13.3739 66.0829 13.7215C66.0829 14.0691 66.0106 14.3851 65.8662 14.6605C65.7217 14.9359 65.5276 15.1571 65.2884 15.3151C65.0491 15.4776 64.7918 15.5995 64.5164 15.6853C64.241 15.771 63.9566 15.8117 63.6677 15.8117H63.6812Z" fill="white"/>
<path d="M68.3535 15.6487H67.4236V8.42578H69.8839C70.4933 8.42578 71.026 8.62893 71.4729 9.03522C71.9199 9.44151 72.1456 9.95614 72.1456 10.5746C72.1456 11.1931 71.9244 11.7077 71.4729 12.114C71.026 12.5203 70.4979 12.7234 69.8839 12.7234H68.349V15.6487H68.3535ZM68.3535 11.8341H69.9065C70.2947 11.8341 70.6107 11.7032 70.8455 11.4414C71.0802 11.1795 71.1976 10.8906 71.1976 10.5746C71.1976 10.2586 71.0802 9.96969 70.8455 9.70786C70.6107 9.44602 70.2992 9.31511 69.9065 9.31511H68.3535V11.8386V11.8341Z" fill="white"/>
<path d="M79.2241 14.7186C78.5154 15.4499 77.6306 15.811 76.5742 15.811C75.5179 15.811 74.633 15.4454 73.9243 14.7186C73.2155 13.9873 72.8589 13.0979 72.8589 12.0416C72.8589 10.9852 73.211 10.0914 73.9243 9.36456C74.633 8.63324 75.5179 8.26758 76.5742 8.26758C77.6306 8.26758 78.5063 8.63324 79.2196 9.36908C79.9329 10.1004 80.2895 10.9942 80.2895 12.0416C80.2895 13.0889 79.9329 13.9918 79.2241 14.7186ZM74.6105 14.1137C75.1477 14.6554 75.7977 14.9262 76.5742 14.9262C77.3507 14.9262 78.0007 14.6554 78.5379 14.1137C79.0751 13.5719 79.3415 12.8812 79.3415 12.0416C79.3415 11.2019 79.0751 10.5112 78.5379 9.96949C78.0052 9.42777 77.3507 9.1569 76.5742 9.1569C75.7977 9.1569 75.1477 9.42777 74.6105 9.96949C74.0778 10.5112 73.8069 11.2019 73.8069 12.0416C73.8069 12.8812 74.0732 13.5719 74.6105 14.1137Z" fill="white"/>
<path d="M81.5897 15.6487V8.42578H82.7183L86.2305 14.0461H86.2711L86.2305 12.6557V8.4303H87.1604V15.6532H86.1898L82.5152 9.76203H82.4745L82.5152 11.1524V15.6532H81.5852L81.5897 15.6487Z" fill="white"/>
<path d="M88.8125 15.6487V8.42578H89.7425V15.6487H88.8125Z" fill="white"/>
<path d="M91.395 15.6487V8.42578H94.0088C94.5731 8.42578 95.0652 8.61087 95.476 8.98556C95.8913 9.36025 96.099 9.82974 96.099 10.394C96.099 10.7371 96.0087 11.0396 95.8326 11.3014C95.6566 11.5633 95.4173 11.7619 95.1194 11.8973V11.9379C95.476 12.0598 95.7694 12.2675 95.9997 12.5654C96.2299 12.8634 96.3428 13.2065 96.3428 13.5947C96.3428 14.1861 96.1261 14.6781 95.6927 15.0664C95.2593 15.4546 94.7447 15.6532 94.1533 15.6532H91.3995L91.395 15.6487ZM92.325 11.5226H94.0088C94.361 11.5226 94.6408 11.4052 94.853 11.175C95.0652 10.9448 95.169 10.6875 95.169 10.4121C95.169 10.1367 95.0652 9.88391 94.8621 9.65368C94.6589 9.42345 94.388 9.31059 94.0495 9.31059H92.325V11.5181V11.5226ZM92.325 14.7639H94.1939C94.5506 14.7639 94.8395 14.6375 95.0607 14.3892C95.2819 14.1409 95.3948 13.8701 95.3948 13.5721C95.3948 13.2742 95.2819 13.0078 95.0517 12.7596C94.8214 12.5158 94.5235 12.3894 94.1533 12.3894H92.325V14.7594V14.7639Z" fill="white"/>
<path d="M97.5933 15.6487V8.42578H98.5232V14.7639H101.652V15.6532H97.5978L97.5933 15.6487Z" fill="white"/>
<path d="M107.037 9.31511H103.746V11.6039H106.712V12.4706H103.746V14.7594H107.037V15.6487H102.821V8.42578H107.037V9.31511Z" fill="white"/>
<path d="M115.127 9.31511H111.836V11.6039H114.802V12.4706H111.836V14.7594H115.127V15.6487H110.911V8.42578H115.127V9.31511Z" fill="white"/>
<path d="M116.58 15.6487V8.42578H117.709L121.221 14.0461H121.262L121.221 12.6557V8.4303H122.151V15.6532H121.181L117.506 9.76203H117.465L117.506 11.1524V15.6532H116.576L116.58 15.6487Z" fill="white"/>
<path d="M34.2426 22.4187C34.2065 18.5228 37.4298 16.6267 37.5787 16.5365C35.7549 13.873 32.9244 13.5119 31.9268 13.4802C29.5477 13.232 27.2409 14.9023 26.031 14.9023C24.8212 14.9023 22.9297 13.5028 20.9208 13.5435C18.3341 13.5841 15.9144 15.0828 14.5872 17.4077C11.847 22.1478 13.892 29.1179 16.5148 32.9506C17.8285 34.8286 19.3588 36.9232 21.3677 36.851C23.3315 36.7698 24.0673 35.6005 26.4373 35.6005C28.8074 35.6005 29.4755 36.851 31.5205 36.8059C33.6287 36.7743 34.9559 34.9189 36.2199 33.0274C37.7367 30.8785 38.3462 28.7568 38.3687 28.6484C38.3191 28.6304 34.2742 27.0865 34.2336 22.4187H34.2426Z" fill="white"/>
<path d="M30.3737 10.9608C31.4301 9.63808 32.1524 7.84137 31.9538 6.01758C30.4234 6.08529 28.5138 7.07393 27.4123 8.36955C26.4372 9.50717 25.5705 11.3761 25.7917 13.1277C27.5071 13.2541 29.2722 12.2609 30.3737 10.9608Z" fill="white"/>
<path d="M62.3175 36.1666H59.645L58.1778 31.562H53.0856L51.6907 36.1666H49.0859L54.133 20.4883H57.2524L62.322 36.1666H62.3175ZM57.7354 29.6298L56.4082 25.5353C56.2682 25.1155 56.0064 24.1314 55.6182 22.5829H55.573C55.4196 23.2511 55.1713 24.2352 54.8282 25.5353L53.528 29.6298H57.7354Z" fill="white"/>
<path d="M75.2967 30.3803C75.2967 32.3034 74.7775 33.8202 73.7392 34.9398C72.8093 35.933 71.6536 36.4295 70.2722 36.4295C68.7825 36.4295 67.7126 35.8968 67.0625 34.8269H67.0174V40.7814H64.5074V28.5926C64.5074 27.3828 64.4758 26.1459 64.4126 24.8728H66.6201L66.7601 26.665H66.8052C67.6449 25.3152 68.9134 24.6426 70.6198 24.6426C71.9561 24.6426 73.0666 25.1708 73.9559 26.2226C74.8497 27.279 75.2967 28.6649 75.2967 30.3848V30.3803ZM72.7371 30.4706C72.7371 29.3691 72.4888 28.4617 71.9922 27.7484C71.4505 27.0036 70.7191 26.6334 69.8072 26.6334C69.1888 26.6334 68.6245 26.8411 68.1189 27.2519C67.6133 27.6627 67.2837 28.1999 67.1302 28.868C67.0535 29.1795 67.0129 29.4323 67.0129 29.6309V31.5179C67.0129 32.3395 67.2657 33.0347 67.7668 33.599C68.2724 34.1633 68.9269 34.4477 69.7305 34.4477C70.6785 34.4477 71.4143 34.0821 71.938 33.3553C72.4662 32.6239 72.7325 31.6624 72.7325 30.4706H72.7371Z" fill="white"/>
<path d="M88.2979 30.3803C88.2979 32.3034 87.7788 33.8202 86.736 34.9398C85.806 35.933 84.6503 36.4295 83.2734 36.4295C81.7837 36.4295 80.7138 35.8968 80.0637 34.8269H80.0186V40.7814H77.5086V28.5926C77.5086 27.3828 77.477 26.1459 77.4138 24.8728H79.6213L79.7613 26.665H79.8064C80.6416 25.3152 81.9146 24.6426 83.621 24.6426C84.9528 24.6426 86.0678 25.1708 86.9572 26.2226C87.8465 27.279 88.2934 28.6649 88.2934 30.3848L88.2979 30.3803ZM85.7383 30.4706C85.7383 29.3691 85.49 28.4617 84.9934 27.7484C84.4517 27.0036 83.7249 26.6334 82.8085 26.6334C82.1855 26.6334 81.6257 26.8411 81.1201 27.2519C80.6145 27.6627 80.2895 28.1999 80.1315 28.868C80.0547 29.1795 80.0141 29.4323 80.0141 29.6309V31.5179C80.0141 32.3395 80.2669 33.0347 80.768 33.599C81.2736 34.1633 81.9282 34.4477 82.7362 34.4477C83.6797 34.4477 84.4201 34.0821 84.9437 33.3553C85.4719 32.6239 85.7338 31.6624 85.7338 30.4706H85.7383Z" fill="white"/>
<path d="M102.834 31.7746C102.834 33.1109 102.374 34.1943 101.444 35.0295C100.423 35.9459 99.0013 36.4018 97.173 36.4018C95.4847 36.4018 94.1349 36.0768 93.1101 35.4267L93.6924 33.3321C94.7939 34.0002 96.0038 34.3343 97.322 34.3343C98.2655 34.3343 99.0058 34.1221 99.534 33.6932C100.062 33.2689 100.324 32.6956 100.324 31.9823C100.324 31.3458 100.107 30.8086 99.674 30.3752C99.2406 29.9418 98.5183 29.5355 97.5116 29.1654C94.7669 28.1406 93.3945 26.6418 93.3945 24.6691C93.3945 23.3825 93.8775 22.3216 94.8391 21.5C95.8006 20.6784 97.0782 20.2676 98.6763 20.2676C100.103 20.2676 101.286 20.5159 102.234 21.0124L101.606 23.062C100.721 22.5789 99.7236 22.3397 98.6041 22.3397C97.7192 22.3397 97.0285 22.5564 96.5365 22.9897C96.1212 23.378 95.909 23.852 95.909 24.4117C95.909 25.0302 96.1483 25.5448 96.6268 25.9466C97.0466 26.3168 97.805 26.7231 98.9065 27.1565C100.256 27.6982 101.245 28.3347 101.881 29.0615C102.518 29.7883 102.834 30.6957 102.834 31.7792V31.7746Z" fill="white"/>
<path d="M111.136 26.7502H108.368V32.2397C108.368 33.6346 108.856 34.3343 109.836 34.3343C110.283 34.3343 110.657 34.2982 110.951 34.2169L111.018 36.122C110.522 36.3071 109.872 36.4019 109.064 36.4019C108.07 36.4019 107.299 36.0994 106.739 35.4945C106.179 34.8896 105.904 33.8739 105.904 32.4473V26.7502H104.256V24.8677H105.904V22.7956L108.368 22.0508V24.8677H111.136V26.7547V26.7502Z" fill="white"/>
<path d="M123.627 30.4241C123.627 32.1621 123.13 33.5887 122.137 34.7037C121.099 35.8503 119.718 36.4237 117.998 36.4237C116.278 36.4237 115.018 35.8729 114.034 34.7759C113.05 33.6744 112.558 32.2885 112.558 30.6137C112.558 28.9389 113.063 27.4266 114.079 26.3115C115.09 25.1965 116.463 24.6367 118.183 24.6367C119.903 24.6367 121.176 25.1875 122.182 26.289C123.149 27.3589 123.627 28.7357 123.627 30.4286V30.4241ZM121.022 30.5054C121.022 29.4626 120.801 28.5687 120.35 27.8238C119.821 26.921 119.068 26.4741 118.097 26.4741C117.126 26.4741 116.318 26.9255 115.795 27.8238C115.343 28.5687 115.122 29.4806 115.122 30.555C115.122 31.6294 115.343 32.4917 115.795 33.2365C116.336 34.1394 117.095 34.5908 118.074 34.5908C119.054 34.5908 119.785 34.1304 120.327 33.214C120.788 32.4556 121.022 31.5527 121.022 30.5099V30.5054Z" fill="white"/>
<path d="M131.789 27.0745C131.541 27.0293 131.275 27.0067 130.999 27.0067C130.114 27.0067 129.433 27.3408 128.95 28.0089C128.53 28.5958 128.322 29.3407 128.322 30.239V36.1709H125.812L125.835 28.4288C125.835 27.1286 125.803 25.9414 125.74 24.8715H127.929L128.02 27.0338H128.087C128.354 26.289 128.769 25.6931 129.342 25.2416C129.902 24.8399 130.507 24.6367 131.157 24.6367C131.387 24.6367 131.6 24.6548 131.785 24.6819V27.079L131.789 27.0745Z" fill="white"/>
<path d="M143.02 29.9834C143.02 30.4348 142.989 30.814 142.93 31.121H135.396C135.427 32.2361 135.788 33.0938 136.488 33.6806C137.125 34.2043 137.946 34.4707 138.953 34.4707C140.068 34.4707 141.088 34.2946 142 33.938L142.393 35.6805C141.323 36.1455 140.064 36.3802 138.605 36.3802C136.854 36.3802 135.477 35.8656 134.475 34.8363C133.477 33.807 132.976 32.4211 132.976 30.6831C132.976 28.9451 133.441 27.5592 134.376 26.4261C135.351 25.2163 136.669 24.6113 138.326 24.6113C139.982 24.6113 141.188 25.2163 142.027 26.4261C142.691 27.3877 143.025 28.5704 143.025 29.9834H143.02ZM140.623 29.3333C140.641 28.5885 140.474 27.9474 140.136 27.4012C139.702 26.7015 139.034 26.3539 138.136 26.3539C137.314 26.3539 136.646 26.6924 136.136 27.3786C135.721 27.9203 135.468 28.5749 135.391 29.3333H140.623Z" fill="white"/>
</svg>
