<svg width="48" height="49" viewBox="0 0 48 49" fill="none" xmlns="http://www.w3.org/2000/svg">
<circle cx="24" cy="24.8691" r="24" fill="#E6EDFC"/>
<g clip-path="url(#clip0_1297_10440)">
<path d="M27.3499 14.8555H27.106H26.007H13.3534C13.1582 14.8555 13 15.0102 13 15.2011V17.1715C13 19.3215 14.5512 20.5071 17.3675 20.5071H27.3499C28.3727 20.5502 29.1793 21.3739 29.1793 22.3755C29.1793 23.377 28.3727 24.2008 27.3499 24.2438H16.159C15.992 24.2516 15.8534 24.3727 15.8269 24.5342L13.1661 34.7556C13.1393 34.859 13.1627 34.9687 13.2297 35.0528C13.2964 35.1376 13.3995 35.1874 13.5088 35.1876H17.0424C18.0466 35.1671 18.9136 34.4943 19.1625 33.5423L20.2226 29.8229H27.3499C31.5748 29.8229 35 26.4723 35 22.3392C35 18.206 31.5748 14.8555 27.3499 14.8555Z" fill="#004ADD"/>
</g>
<defs>
<clipPath id="clip0_1297_10440">
<rect width="22" height="22" fill="white" transform="translate(13 14)"/>
</clipPath>
</defs>
</svg>
