<svg width="48" height="49" viewBox="0 0 48 49" fill="none" xmlns="http://www.w3.org/2000/svg">
<circle cx="24" cy="24.8691" r="24" fill="#E6EDFC"/>
<g clip-path="url(#clip0_1297_10446)">
<path fill-rule="evenodd" clip-rule="evenodd" d="M24.5492 11.1384C24.2064 10.9539 23.7938 10.9539 23.451 11.1384L10.6091 18.0533C10.2339 18.2553 10 18.6469 10 19.073V22.0365C10 22.6761 10.5185 23.1946 11.1581 23.1946H13.9546V32.7324H13.1338C12.6951 32.7324 12.2941 32.9803 12.098 33.3726L10.1223 37.324C9.94277 37.6829 9.96195 38.1093 10.173 38.4507C10.384 38.7922 10.7567 39 11.1581 39H36.842C37.2435 39 37.6162 38.7922 37.8272 38.4507C38.0383 38.1093 38.0574 37.6829 37.8779 37.324L35.9022 33.3726C35.706 32.9803 35.305 32.7324 34.8663 32.7324H34.0453V23.1946H36.842C37.4817 23.1946 38.0002 22.6761 38.0002 22.0365V19.073C38.0002 18.6469 37.7664 18.2553 37.3912 18.0533L24.5492 11.1384ZM12.3162 20.8784V19.7647L24.0001 13.4734L35.6839 19.7647V20.8784H32.9248C32.9124 20.878 32.8998 20.8778 32.8872 20.8778C32.8744 20.8778 32.862 20.878 32.8494 20.8784H27.0007C26.9946 20.8782 26.9885 20.8781 26.9825 20.878C26.9759 20.8779 26.9696 20.8778 26.963 20.8778C26.9504 20.8778 26.9378 20.878 26.9252 20.8784H21.0746C21.0621 20.878 21.0495 20.8778 21.0369 20.8778C21.0243 20.8778 21.0117 20.878 20.9991 20.8784H15.1505C15.1379 20.878 15.1254 20.8778 15.1127 20.8778C15.1001 20.8778 15.0875 20.878 15.075 20.8784H12.3162ZM16.2708 32.7324V23.1946H19.8788V32.7324H16.2708ZM22.195 32.7324V23.1946H25.8049V32.7324H22.195ZM28.1211 32.7324V23.1946H31.7291V32.7324H28.1211ZM13.032 36.6838L13.8496 35.0486H34.1506L34.9682 36.6838H13.032Z" fill="#004ADD"/>
</g>
<defs>
<clipPath id="clip0_1297_10446">
<rect width="28" height="28" fill="white" transform="translate(10 11)"/>
</clipPath>
</defs>
</svg>
