<svg width="48" height="49" viewBox="0 0 48 49" fill="none" xmlns="http://www.w3.org/2000/svg">
<circle cx="24" cy="24.8691" r="24" fill="#E6EDFC"/>
<path d="M22.7417 14.4719C22.7417 13.6655 23.3954 13.0117 24.2018 13.0117C25.0082 13.0117 25.662 13.6655 25.662 14.4719V23.3388H34.5289C35.3353 23.3388 35.9891 23.9925 35.9891 24.7989C35.9891 25.6053 35.3353 26.2591 34.5289 26.2591H25.662V35.5293C25.662 36.3357 25.0082 36.9895 24.2018 36.9895C23.3954 36.9895 22.7417 36.3357 22.7417 35.5293L22.7417 26.2591H13.4714C12.665 26.2591 12.0112 25.6053 12.0112 24.7989C12.0112 23.9925 12.665 23.3388 13.4714 23.3388H22.7417V14.4719Z" fill="#004ADD"/>
</svg>
