<svg width="48" height="49" viewBox="0 0 48 49" fill="none" xmlns="http://www.w3.org/2000/svg">
<circle cx="24" cy="24.8691" r="24" fill="#E6EDFC"/>
<g clip-path="url(#clip0_1297_10434)">
<path fill-rule="evenodd" clip-rule="evenodd" d="M22.6325 13C21.6672 13 20.8168 13.6424 20.5419 14.5792L18.6281 21.1024C18.3407 20.9529 18.0146 20.8684 17.6696 20.8684H14.767C13.6069 20.8684 12.6665 21.8205 12.6665 22.9949V33.8736C12.6665 35.0479 13.6069 36 14.7671 36H17.6696C18.3659 36 18.9829 35.6569 19.3648 35.1294L21.8838 35.8004C22.2653 35.9022 22.6582 35.9536 23.0527 35.9536H30.8225C32.0032 35.9536 33.0517 35.1899 33.4269 34.0565L34.9036 29.5961C35.1881 28.7369 35.3332 27.8366 35.3332 26.9304V22.2183C35.3332 20.6826 34.1034 19.4376 32.5864 19.4376H26.1166C26.104 19.4376 26.0937 19.4273 26.0937 19.4145V16.504C26.0937 14.5688 24.5441 13 22.6325 13ZM22.2681 15.0982C22.316 14.9349 22.4643 14.823 22.6325 14.823C23.5496 14.823 24.293 15.5756 24.293 16.504V19.4145C24.293 20.4341 25.1094 21.2606 26.1166 21.2606H32.5864C33.1089 21.2606 33.5324 21.6894 33.5324 22.2183V26.9304C33.5324 27.6396 33.4189 28.3442 33.1962 29.0168L31.7194 33.4772C31.5902 33.8675 31.2292 34.1306 30.8225 34.1306H23.0527C22.8128 34.1306 22.574 34.0994 22.342 34.0376L19.7701 33.3523V23.6129L22.2681 15.0982ZM14.4673 22.9949C14.4673 22.8273 14.6015 22.6914 14.767 22.6914H17.6696C17.8351 22.6914 17.9694 22.8273 17.9694 22.9949V33.8736C17.9694 34.0411 17.8351 34.177 17.6696 34.177H14.7671C14.6015 34.177 14.4673 34.0411 14.4673 33.8736V22.9949Z" fill="#004ADD"/>
</g>
<defs>
<clipPath id="clip0_1297_10434">
<rect width="24" height="23" fill="white" transform="translate(12 13)"/>
</clipPath>
</defs>
</svg>
