<svg width="144" height="22" viewBox="0 0 144 22" fill="none" xmlns="http://www.w3.org/2000/svg">
<path d="M61.7877 0C60.0508 0 58.769 1.28715 58.7398 3.05956C58.7147 4.4742 59.6082 5.31722 61.128 5.31722C62.8649 5.31722 64.1468 4.03007 64.176 2.25766C64.201 0.843024 63.3075 0 61.7877 0Z" fill="white"/>
<path d="M56.418 0.71496C56.3554 0.636826 56.2594 0.595703 56.1592 0.595703H52.3513C52.1885 0.595703 52.0507 0.706736 52.0215 0.867116C52.0215 0.867116 50.5518 8.0431 50.4599 8.54069C49.5038 6.87932 47.6332 5.85946 45.3076 5.85946C40.6772 5.85946 37.3203 9.52765 37.3203 14.5817C37.3203 18.7392 39.8589 21.5356 43.6375 21.5356C45.4538 21.5356 47.0445 20.8201 48.2345 19.5247C48.1552 19.8824 48.08 20.2567 47.9965 20.6926C47.9798 20.7872 48.0048 20.89 48.0716 20.964C48.1343 21.038 48.2303 21.0832 48.3305 21.0832H52.13C52.2929 21.0832 52.4306 20.9681 52.4599 20.8118L56.4932 0.99871C56.5141 0.900014 56.4848 0.801319 56.4222 0.723185L56.418 0.71496ZM49.1155 13.6852C49.0194 14.2198 48.8483 14.7174 48.6019 15.1656C48.3556 15.6139 48.0508 16.0045 47.6959 16.3376C47.3452 16.6625 46.936 16.9216 46.4892 17.1066C45.65 17.4521 44.6103 17.4726 43.8463 17.1642C43.4914 17.0203 43.1824 16.8147 42.9319 16.5474C42.6814 16.2801 42.4893 15.9511 42.364 15.5686C42.2346 15.1821 42.1845 14.7379 42.2096 14.2609C42.2388 13.6811 42.3724 13.1218 42.5979 12.6037C42.8233 12.0855 43.1239 11.629 43.4955 11.2425C43.863 10.86 44.2972 10.5516 44.7857 10.3254C45.27 10.1034 45.7961 9.98822 46.3431 9.98822C46.8232 9.98822 47.2616 10.0787 47.6458 10.2514C48.0257 10.4241 48.3472 10.675 48.5977 10.9916C48.8483 11.3083 49.0236 11.6989 49.1196 12.1472C49.2157 12.6037 49.2157 13.1218 49.1196 13.6893L49.1155 13.6852Z" fill="white"/>
<path d="M62.3888 7.47189H58.4598C58.2928 7.47189 58.1509 7.57469 58.1175 7.71862L55.4578 20.7053C55.4369 20.7958 55.4662 20.8904 55.533 20.9603C55.5998 21.0302 55.6958 21.0713 55.8002 21.0713H59.7291C59.8961 21.0713 60.0381 20.9685 60.0715 20.8246L62.7311 7.83377C62.752 7.7433 62.7228 7.65283 62.656 7.57881C62.5892 7.5089 62.4931 7.46777 62.3888 7.46777V7.47189Z" fill="white"/>
<path d="M5.18729 19.896C5.58811 18.14 6.32714 14.2498 6.34801 14.147C6.52338 14.147 10.97 14.1757 10.97 14.1757C16.2768 14.1757 19.5711 11.3835 19.5711 6.88461C19.5711 2.94502 16.828 0.592773 12.2352 0.592773H4.34806C4.18105 0.592773 4.03909 0.707918 4.00986 0.868298L0.00577057 20.558C-0.0151058 20.6567 0.0224717 20.7596 0.0892761 20.8377C0.15608 20.9158 0.252112 20.9611 0.356494 20.9611H1.91805L3.87625 20.9487C3.87625 20.9487 4.94512 20.9611 5.19146 19.896H5.18729ZM11.1287 9.91538C11.1287 9.91538 7.32503 9.93595 7.20812 9.93595C7.23317 9.81669 8.21854 5.00117 8.25194 4.79967C8.444 4.80789 11.8886 4.83257 11.8886 4.83257C13.6255 4.83257 14.5817 5.63035 14.5817 7.07789C14.5817 8.88319 13.3249 9.91538 11.1287 9.91538Z" fill="white"/>
<path d="M91.5112 5.85547C86.3422 5.85547 82.5928 9.48664 82.5928 14.4831C82.5928 18.7599 85.5697 21.5275 90.1792 21.5275C95.3441 21.5275 99.0935 17.8963 99.0935 12.8999C99.0935 8.62306 96.1165 5.85547 91.507 5.85547H91.5112ZM90.4799 17.1068C88.5258 17.1068 87.3609 16.0211 87.3609 14.2076C87.3609 11.9294 88.9809 10.2762 91.2105 10.2762C93.1646 10.2762 94.3295 11.3619 94.3295 13.1754C94.3295 15.4536 92.7136 17.1068 90.484 17.1068H90.4799Z" fill="white"/>
<path d="M83.1566 0.71496C83.0939 0.636826 82.9979 0.595703 82.8977 0.595703H79.0899C78.927 0.595703 78.7892 0.706736 78.7558 0.867116C78.7558 0.867116 77.2861 8.0431 77.1943 8.54069C76.2381 6.87932 74.3676 5.85946 72.042 5.85946C67.4116 5.85946 64.0547 9.52765 64.0547 14.5817C64.0547 18.7392 66.5933 21.5356 70.3719 21.5356C72.1881 21.5356 73.7789 20.8201 74.9689 19.5247C74.8895 19.8824 74.8144 20.2567 74.7309 20.6926C74.7142 20.7872 74.7392 20.89 74.806 20.964C74.8687 21.038 74.9647 21.0832 75.0649 21.0832H78.8644C79.0272 21.0832 79.165 20.9681 79.1942 20.8118L83.2276 0.99871C83.2484 0.900014 83.2192 0.801319 83.1566 0.723185V0.71496ZM75.9166 13.6852C75.8206 14.2198 75.6494 14.7174 75.4031 15.1656C75.1567 15.6139 74.8519 16.0045 74.4929 16.3376C74.1422 16.6625 73.733 16.9216 73.2862 17.1066C72.447 17.4521 71.4073 17.4726 70.6433 17.1642C70.2884 17.0203 69.9794 16.8147 69.7289 16.5474C69.4784 16.2801 69.2863 15.9511 69.161 15.5686C69.0316 15.1821 68.9815 14.7379 69.0066 14.2609C69.0358 13.6811 69.1694 13.1218 69.3949 12.6037C69.6203 12.0855 69.921 11.629 70.2926 11.2425C70.66 10.86 71.0942 10.5516 71.5827 10.3254C72.067 10.1034 72.5931 9.98822 73.1401 9.98822C73.6202 9.98822 74.0586 10.0787 74.4428 10.2514C74.8227 10.4241 75.1442 10.675 75.3947 10.9916C75.6453 11.3083 75.8206 11.6989 75.9166 12.1472C76.0127 12.6037 76.0127 13.1218 75.9166 13.6893V13.6852Z" fill="white"/>
<path d="M111.649 6.99517C109.665 6.10279 107.628 5.71624 105.761 5.88073C102.492 6.16448 100.617 8.08493 100.868 10.8936C101.018 12.5879 102.004 13.8874 103.878 14.8661L105.945 15.9312C106.793 16.3795 106.868 16.5851 106.893 16.8483C106.947 17.4528 106.242 17.6049 105.82 17.6419C104.525 17.753 102.951 17.2718 101.265 16.2479C101.185 16.1985 101.089 16.1862 101.006 16.2109C100.918 16.2314 100.843 16.289 100.797 16.3671L99.1394 19.2457C99.0517 19.3938 99.0976 19.583 99.2438 19.6816C101.302 21.0634 103.674 21.6843 106.104 21.4746C109.745 21.1621 111.678 19.2663 111.411 16.2725C111.252 14.4672 110.367 13.324 108.367 12.3288L106.505 11.3995C105.411 10.8114 105.352 10.6592 105.327 10.3796C105.315 10.2233 105.269 9.74219 106.317 9.65172C107.356 9.56125 108.713 9.86967 110.049 10.4989C110.129 10.5359 110.225 10.54 110.308 10.5112C110.392 10.4824 110.463 10.4166 110.5 10.3344L111.816 7.42285C111.891 7.25835 111.816 7.06507 111.649 6.98694V6.99517Z" fill="white"/>
<path d="M132.203 1.17981C132.141 1.05644 132.015 0.982422 131.878 0.982422H126.5C126.379 0.982422 126.262 1.04411 126.195 1.1428C126.195 1.1428 120.855 8.59842 120.483 9.31396C120.383 8.63955 117.761 1.25383 117.761 1.25383C117.715 1.10168 117.573 0.994759 117.41 0.994759H112.705C112.588 0.994759 112.475 1.05233 112.404 1.14691C112.337 1.2415 112.316 1.36487 112.358 1.4759L117.348 13.9239L115.853 21.1574C115.832 21.2643 115.861 21.3713 115.932 21.4576C116.003 21.5399 116.108 21.5892 116.216 21.5892H120.024C120.525 21.5892 120.951 21.2397 121.047 20.7585L122.379 14.0513L132.178 1.56637C132.262 1.45534 132.274 1.31141 132.212 1.18804L132.203 1.17981Z" fill="white"/>
<path d="M143.627 6.8262C143.564 6.75218 143.473 6.70695 143.372 6.70695H139.665C139.506 6.70695 139.373 6.81798 139.343 6.97013C139.343 6.97013 139.201 7.66923 139.114 8.15448V8.17093C138.27 7.17164 136.963 6.55479 135.665 6.47666C134.479 6.40263 133.331 6.5918 132.22 7.00714C128.571 8.37654 126.141 11.909 126.179 15.7828C126.212 19.1549 128.45 21.4126 131.857 21.573C133.69 21.6593 135.281 21.1206 136.73 19.9034C136.654 20.2652 136.558 20.7382 136.496 21.063C136.479 21.1576 136.504 21.2522 136.567 21.3262C136.629 21.4002 136.721 21.4414 136.817 21.4414H140.517C140.675 21.4414 140.809 21.3303 140.838 21.1782L143.686 7.08939C143.702 6.99481 143.677 6.89611 143.615 6.82209L143.627 6.8262ZM137.886 14.0803C137.794 14.5902 137.631 15.0632 137.393 15.4908C137.16 15.9185 136.867 16.2927 136.525 16.6094C136.187 16.9219 135.803 17.1687 135.373 17.3414C134.571 17.6704 133.581 17.6909 132.851 17.3948C132.513 17.2591 132.216 17.0617 131.978 16.8068C131.736 16.5518 131.556 16.2393 131.435 15.8733C131.314 15.5032 131.264 15.0837 131.289 14.6231C131.318 14.068 131.444 13.5375 131.661 13.044C131.878 12.5505 132.166 12.1146 132.517 11.7445C132.867 11.3785 133.281 11.0866 133.748 10.8686C134.212 10.6548 134.709 10.5478 135.235 10.5478C135.694 10.5478 136.112 10.6342 136.479 10.7987C136.842 10.9632 137.147 11.2017 137.385 11.506C137.623 11.8103 137.794 12.1804 137.886 12.6081C137.978 13.044 137.978 13.5416 137.886 14.0803Z" fill="white"/>
<path d="M28.6609 5.84375C23.5837 5.84375 19.9011 9.48726 19.9011 14.5043C19.9011 18.8304 22.8572 21.5158 27.6087 21.5158C29.7631 21.5158 31.546 20.9729 33.4207 19.7393C33.5877 19.6282 33.6127 19.3897 33.4749 19.2458L31.1368 16.8647C31.0366 16.7619 30.8779 16.7414 30.7527 16.8113C29.7297 17.3459 28.7652 17.5885 27.7005 17.5885C25.521 17.5885 24.2559 16.6057 24.2309 14.9032L34.8862 14.8703C35.0448 14.8703 35.1826 14.7634 35.216 14.6112C35.4582 13.5461 35.596 12.7648 35.596 11.9464C35.596 8.18366 32.9405 5.84786 28.6609 5.84786V5.84375ZM24.7069 11.6503C25.4083 9.98896 26.6776 9.1336 28.569 9.1336C30.4604 9.1336 31.4583 9.99719 31.5167 11.6668C31.2119 11.6668 25.0325 11.6503 24.7027 11.6503H24.7069Z" fill="white"/>
</svg>
