<svg width="249" height="34" viewBox="0 0 249 34" fill="none" xmlns="http://www.w3.org/2000/svg">
<g clip-path="url(#clip0_418_869)">
<path d="M61.776 2.30762C60.0394 2.30762 58.7578 3.58165 58.7285 5.33599C58.7035 6.73621 59.5969 7.57064 61.1164 7.57064C62.8531 7.57064 64.1347 6.2966 64.1639 4.54226C64.189 3.14205 63.2956 2.30762 61.776 2.30762Z" fill="#004ADD"/>
<path d="M56.4075 3.0155C56.3449 2.93816 56.2489 2.89746 56.1487 2.89746H52.3414C52.1786 2.89746 52.0408 3.00736 52.0116 3.16611C52.0116 3.16611 50.5421 10.2689 50.4503 10.7615C49.4943 9.11702 47.6241 8.10756 45.2988 8.10756C40.6691 8.10756 37.3127 11.7384 37.3127 16.7409C37.3127 20.856 39.8509 23.6239 43.629 23.6239C45.4449 23.6239 47.0355 22.9157 48.2252 21.6335C48.1459 21.9876 48.0708 22.358 47.9873 22.7895C47.9706 22.8831 47.9956 22.9849 48.0624 23.0581C48.125 23.1314 48.2211 23.1762 48.3212 23.1762H52.1202C52.283 23.1762 52.4207 23.0622 52.45 22.9075L56.4826 3.29636C56.5035 3.19867 56.4743 3.10098 56.4117 3.02364L56.4075 3.0155ZM49.1061 15.8535C49.0101 16.3827 48.8389 16.8752 48.5926 17.3189C48.3463 17.7625 48.0415 18.1492 47.6867 18.4789C47.336 18.8005 46.9269 19.0569 46.4802 19.2401C45.6411 19.582 44.6017 19.6024 43.8377 19.2971C43.4828 19.1546 43.1739 18.9511 42.9234 18.6865C42.673 18.4219 42.4809 18.0963 42.3557 17.7178C42.2263 17.3351 42.1762 16.8955 42.2012 16.4234C42.2305 15.8495 42.364 15.2959 42.5895 14.783C42.8149 14.2701 43.1155 13.8183 43.487 13.4357C43.8544 13.0572 44.2886 12.7519 44.777 12.528C45.2612 12.3082 45.7872 12.1942 46.3341 12.1942C46.8142 12.1942 47.2525 12.2838 47.6366 12.4547C48.0165 12.6257 48.3379 12.874 48.5884 13.1874C48.8389 13.5008 49.0142 13.8875 49.1102 14.3312C49.2063 14.783 49.2063 15.2959 49.1102 15.8576L49.1061 15.8535Z" fill="#004ADD"/>
<path d="M62.3772 9.70329H58.4489C58.2819 9.70329 58.1399 9.80505 58.1066 9.94751L55.4473 22.8018C55.4264 22.8914 55.4557 22.985 55.5225 23.0542C55.5892 23.1234 55.6853 23.1641 55.7896 23.1641H59.718C59.8849 23.1641 60.0269 23.0623 60.0603 22.9199L62.7195 10.0615C62.7404 9.97193 62.7112 9.88239 62.6444 9.80912C62.5776 9.73992 62.4816 9.69922 62.3772 9.69922V9.70329Z" fill="#004ADD"/>
<path d="M5.18478 22C5.58554 20.2619 6.32445 16.4113 6.34532 16.3096C6.52066 16.3096 10.9666 16.3381 10.9666 16.3381C16.2726 16.3381 19.5664 13.5743 19.5664 9.12126C19.5664 5.22182 16.8236 2.89355 12.2316 2.89355H4.34568C4.17869 2.89355 4.03675 3.00753 4.00753 3.16627L0.00406069 22.6553C-0.0168125 22.753 0.0207592 22.8548 0.0875533 22.9321C0.154347 23.0094 0.250364 23.0542 0.35473 23.0542H1.91604L3.87394 23.042C3.87394 23.042 4.94265 23.0542 5.18895 22H5.18478ZM11.1253 12.1211C11.1253 12.1211 7.32219 12.1415 7.2053 12.1415C7.23035 12.0234 8.21556 7.25702 8.24895 7.05757C8.44099 7.06571 11.8851 7.09013 11.8851 7.09013C13.6217 7.09013 14.5777 7.87979 14.5777 9.31256C14.5777 11.0995 13.3211 12.1211 11.1253 12.1211Z" fill="#004ADD"/>
<path d="M91.4951 8.10352C86.3269 8.10352 82.5781 11.6977 82.5781 16.6432C82.5781 20.8764 85.5546 23.6158 90.1634 23.6158C95.3274 23.6158 99.0763 20.0216 99.0763 15.0761C99.0763 10.8429 96.0998 8.10352 91.491 8.10352H91.4951ZM90.464 19.2401C88.5103 19.2401 87.3456 18.1655 87.3456 16.3705C87.3456 14.1155 88.9653 12.4792 91.1946 12.4792C93.1483 12.4792 94.313 13.5538 94.313 15.3488C94.313 17.6038 92.6974 19.2401 90.4682 19.2401H90.464Z" fill="#004ADD"/>
<path d="M83.1419 3.0155C83.0793 2.93816 82.9833 2.89746 82.8831 2.89746H79.0758C78.913 2.89746 78.7752 3.00736 78.7418 3.16611C78.7418 3.16611 77.2724 10.2689 77.1805 10.7615C76.2245 9.11702 74.3543 8.10756 72.029 8.10756C67.3994 8.10756 64.043 11.7384 64.043 16.7409C64.043 20.856 66.5811 23.6239 70.3592 23.6239C72.1751 23.6239 73.7657 22.9157 74.9555 21.6335C74.8761 21.9876 74.801 22.358 74.7175 22.7895C74.7008 22.8831 74.7258 22.9849 74.7926 23.0581C74.8553 23.1314 74.9513 23.1762 75.0515 23.1762H78.8504C79.0132 23.1762 79.151 23.0622 79.1802 22.9075L83.2129 3.29636C83.2337 3.19867 83.2045 3.10098 83.1419 3.02364V3.0155ZM75.9031 15.8535C75.8071 16.3827 75.6359 16.8752 75.3896 17.3189C75.1433 17.7625 74.8386 18.1492 74.4795 18.4789C74.1289 18.8005 73.7198 19.0569 73.2731 19.2401C72.434 19.582 71.3945 19.6024 70.6305 19.2971C70.2757 19.1546 69.9668 18.9511 69.7163 18.6865C69.4658 18.4219 69.2738 18.0963 69.1485 17.7178C69.0191 17.3351 68.969 16.8955 68.9941 16.4234C69.0233 15.8495 69.1569 15.2959 69.3823 14.783C69.6077 14.2701 69.9083 13.8183 70.2799 13.4357C70.6472 13.0572 71.0814 12.7519 71.5698 12.528C72.0541 12.3082 72.5801 12.1942 73.127 12.1942C73.607 12.1942 74.0454 12.2838 74.4294 12.4547C74.8093 12.6257 75.1308 12.874 75.3813 13.1874C75.6317 13.5008 75.8071 13.8875 75.9031 14.3312C75.9991 14.783 75.9991 15.2959 75.9031 15.8576V15.8535Z" fill="#004ADD"/>
<path d="M111.629 9.23148C109.647 8.3482 107.609 7.96558 105.743 8.1284C102.475 8.40926 100.6 10.3101 100.851 13.0902C101.001 14.7672 101.986 16.0535 103.86 17.0222L105.927 18.0764C106.774 18.5201 106.85 18.7236 106.875 18.9841C106.929 19.5825 106.223 19.7331 105.802 19.7697C104.508 19.8796 102.934 19.4034 101.247 18.3899C101.168 18.341 101.072 18.3288 100.988 18.3532C100.901 18.3736 100.826 18.4306 100.78 18.5079L99.1223 21.3572C99.0346 21.5037 99.0805 21.691 99.2267 21.7886C101.285 23.1563 103.656 23.7709 106.086 23.5633C109.726 23.254 111.659 21.3775 111.392 18.4143C111.233 16.6274 110.348 15.4958 108.348 14.5108L106.486 13.5909C105.393 13.0088 105.334 12.8582 105.309 12.5814C105.297 12.4267 105.251 11.9505 106.298 11.8609C107.338 11.7714 108.695 12.0767 110.031 12.6995C110.11 12.7361 110.206 12.7402 110.289 12.7117C110.373 12.6832 110.444 12.618 110.481 12.5366L111.796 9.6548C111.872 9.49198 111.796 9.30067 111.629 9.22333V9.23148Z" fill="#004ADD"/>
<path d="M132.181 3.47565C132.119 3.35354 131.993 3.28027 131.856 3.28027H126.479C126.358 3.28027 126.241 3.34133 126.174 3.43902C126.174 3.43902 120.835 10.8186 120.463 11.5269C120.363 10.8593 117.741 3.54892 117.741 3.54892C117.695 3.39831 117.553 3.29248 117.39 3.29248H112.686C112.569 3.29248 112.456 3.34947 112.385 3.44309C112.318 3.53671 112.297 3.65882 112.339 3.76872L117.328 16.0898L115.833 23.2496C115.812 23.3555 115.842 23.4613 115.913 23.5468C115.984 23.6282 116.088 23.677 116.197 23.677H120.004C120.505 23.677 120.931 23.331 121.027 22.8548L122.358 16.216L132.156 3.85827C132.24 3.74837 132.252 3.6059 132.19 3.48379L132.181 3.47565Z" fill="#004ADD"/>
<path d="M143.603 9.06467C143.54 8.9914 143.448 8.94663 143.348 8.94663H139.641C139.483 8.94663 139.349 9.05653 139.32 9.20713C139.32 9.20713 139.178 9.8991 139.09 10.3794V10.3957C138.247 9.40658 136.94 8.79602 135.642 8.71868C134.456 8.64542 133.308 8.83265 132.198 9.24376C128.549 10.5992 126.12 14.0957 126.157 17.93C126.191 21.2677 128.428 23.5024 131.835 23.6611C133.667 23.7466 135.258 23.2134 136.706 22.0085C136.631 22.3667 136.535 22.8348 136.473 23.1564C136.456 23.25 136.481 23.3436 136.544 23.4169C136.606 23.4901 136.698 23.5308 136.794 23.5308H140.493C140.651 23.5308 140.785 23.4209 140.814 23.2703L143.661 9.32517C143.678 9.23155 143.653 9.13386 143.59 9.0606L143.603 9.06467ZM137.863 16.2448C137.771 16.7496 137.608 17.2177 137.37 17.641C137.136 18.0643 136.844 18.4347 136.502 18.7481C136.164 19.0575 135.78 19.3017 135.35 19.4727C134.548 19.7983 133.559 19.8186 132.828 19.5256C132.49 19.3913 132.194 19.1959 131.956 18.9435C131.714 18.6911 131.534 18.3818 131.413 18.0195C131.292 17.6532 131.242 17.238 131.267 16.7821C131.296 16.2326 131.421 15.7075 131.638 15.2191C131.856 14.7307 132.144 14.2992 132.494 13.9329C132.845 13.5706 133.258 13.2816 133.726 13.0659C134.189 12.8542 134.686 12.7484 135.212 12.7484C135.671 12.7484 136.089 12.8339 136.456 12.9967C136.819 13.1595 137.124 13.3956 137.362 13.6968C137.6 13.998 137.771 14.3643 137.863 14.7876C137.955 15.2191 137.955 15.7116 137.863 16.2448Z" fill="#004ADD"/>
<path d="M28.6546 8.0918C23.5783 8.0918 19.8962 11.6982 19.8962 16.664C19.8962 20.9461 22.8519 23.6041 27.6026 23.6041C29.7567 23.6041 31.5393 23.0668 33.4137 21.8457C33.5807 21.7358 33.6057 21.4997 33.468 21.3572L31.1302 19.0005C31.03 18.8987 30.8713 18.8783 30.7461 18.9475C29.7233 19.4767 28.759 19.7168 27.6944 19.7168C25.5153 19.7168 24.2504 18.744 24.2253 17.0589L34.879 17.0263C35.0376 17.0263 35.1754 16.9205 35.2088 16.7699C35.4509 15.7156 35.5887 14.9423 35.5887 14.1323C35.5887 10.4079 32.9336 8.09587 28.6546 8.09587V8.0918ZM24.7012 13.8392C25.4026 12.1948 26.6717 11.3481 28.5628 11.3481C30.4539 11.3481 31.4516 12.2029 31.5101 13.8555C31.2053 13.8555 25.0269 13.8392 24.6971 13.8392H24.7012Z" fill="#004ADD"/>
<path d="M222.921 15.3945C222.019 15.3945 221.168 15.9644 220.575 17.1285H224.157C224.411 16.0946 224.011 15.3945 222.921 15.3945Z" fill="#004ADD"/>
<path d="M184.974 20.5186C184.874 21.2187 185.366 21.6583 186.164 21.6583C187.224 21.6583 188.326 21.0111 188.606 20.0017L188.827 19.1998C188.652 19.1224 188.276 18.9678 187.399 18.9678C186.047 18.9678 185.112 19.5621 184.974 20.5186Z" fill="#004ADD"/>
<path d="M248.971 1.97007C248.583 0.866994 247.364 0.150605 246.216 0.150605L245.552 0.0651263L238.948 0H158.694C157.492 0 156.248 0.952472 155.918 2.12475L152.612 13.8882C148.984 26.7873 156.327 33.8942 173.281 33.8942L237.44 34.0041C237.461 34.0041 237.486 34.0041 237.507 34.0041C237.833 33.9634 240.496 33.5726 241.594 31.5333C241.615 31.4926 241.636 31.4479 241.648 31.4031C243.836 23.9136 248.52 4.23321 248.983 2.28756C249.008 2.1858 249.008 2.07997 248.971 1.97821V1.97007ZM174.22 23.8281L176.708 15.264L171.978 19.7129H170.358L168.221 15.2355L165.729 23.824H161.909L166.413 8.29953H169.519L172.537 14.9506L179.392 8.29953H182.498L178.048 23.824H174.228L174.22 23.8281ZM193.102 17.1282L191.177 23.8281H188.551L188.397 22.5093H188.293C187.466 23.4414 186.205 24.0886 184.348 24.0886C182.093 24.0886 181.004 22.8186 181.25 21.1131C181.609 18.6302 183.692 17.0753 187.462 17.0753C188.284 17.0753 188.906 17.1771 189.39 17.3073L189.495 16.9695C189.808 15.9071 188.977 15.5977 187.466 15.5977C185.955 15.5977 184.469 16.3223 184.469 16.3223L184.055 13.6847C184.055 13.6847 185.976 12.6996 189.132 12.6996C192.476 12.6996 193.862 14.4865 193.11 17.1241L193.102 17.1282ZM199.368 18.5773L197.836 23.8281H194.016L197.155 12.9601H199.464L199.648 14.4336H199.806C200.72 13.4242 201.823 12.9601 203.309 12.9601H203.893L202.987 16.1147H202.403C200.996 16.1147 199.802 17.0224 199.368 18.5732V18.5773ZM210.047 23.8281L208.819 19.8432L207.421 21.0602L206.623 23.8281H202.804L207.325 8.17335H211.144L208.598 16.9695L212.626 12.9601H217.139L212.13 17.694L214.213 23.824H210.047V23.8281ZM227.747 17.23C227.613 18.1621 227.229 19.1431 227.229 19.1431H219.957C219.719 20.6165 220.45 21.2393 222.04 21.2393C223.631 21.2393 225.025 20.413 225.025 20.413L225.635 22.8186C225.635 22.8186 223.819 24.1659 220.93 24.1659C217.452 24.1659 215.887 21.9679 216.292 19.1716C216.818 15.5245 220.12 12.7037 223.81 12.7037C226.703 12.7037 228.152 14.4133 227.747 17.23ZM237.691 15.8338H235.195L234.013 19.949C233.846 20.5433 234.034 20.9055 234.723 20.9055C235.278 20.9055 235.804 20.5962 235.804 20.5962L236.1 23.132C235.282 23.649 233.917 24.0886 232.752 24.0886C230.018 24.0886 229.496 22.379 230.139 20.1281L231.371 15.8338H229.538L230.377 12.9642H232.205L233.161 9.6509H236.981L236.025 12.9642H238.522L237.683 15.8338H237.691Z" fill="#004ADD"/>
</g>
<defs>
<clipPath id="clip0_418_869">
<rect width="249" height="34" fill="white"/>
</clipPath>
</defs>
</svg>
