<svg width="48" height="48" viewBox="0 0 48 48" fill="none" xmlns="http://www.w3.org/2000/svg">
<circle cx="24" cy="24" r="24" fill="#E6EDFC"/>
<g clip-path="url(#clip0_1296_9220)">
<path d="M23.103 17.12C23.103 16.6165 23.5071 16.2129 24.0001 16.2129C24.4931 16.2129 24.8973 16.6165 24.8973 17.12V17.7932C25.1004 17.829 25.3003 17.8801 25.4966 17.9464C25.9328 18.0789 26.3277 18.274 26.6744 18.5362L26.6836 18.5431C27.1022 18.8725 27.4382 19.3155 27.4382 19.88C27.4382 20.1491 27.3609 20.4143 27.1821 20.6386C27.0066 20.8586 26.7476 21.0186 26.4234 21.0186C26.2208 21.0186 26.0424 20.9437 25.9161 20.8773C25.7833 20.8074 25.6477 20.7139 25.5125 20.6078C25.2544 20.4238 25.0212 20.2884 24.8124 20.1953C24.654 20.1247 24.4242 20.0753 24.1 20.0753C23.72 20.0753 23.4741 20.1678 23.3084 20.2998C23.1711 20.4162 23.0993 20.5593 23.0993 20.789C23.0993 20.9337 23.1243 21.0142 23.1455 21.0565C23.1905 21.1069 23.2808 21.1818 23.4482 21.2689C23.657 21.3602 23.9766 21.4623 24.4242 21.5708C25.1413 21.7471 25.7366 21.9503 26.1803 22.1904C26.641 22.4341 27.0186 22.7585 27.2544 23.1855C27.4826 23.5991 27.5767 24.0867 27.5767 24.6136C27.5767 25.5135 27.2261 26.2712 26.5391 26.8347L26.5332 26.8394C26.069 27.2104 25.5173 27.4409 24.8973 27.5488V28.1234C24.8973 28.6269 24.4931 29.0304 24.0001 29.0304C23.5071 29.0304 23.103 28.6269 23.103 28.1234V27.5489C22.8945 27.5146 22.6894 27.4682 22.4877 27.4092L22.4845 27.4084C22.0095 27.2663 21.576 27.0627 21.1907 26.7943L21.1757 26.7838C20.9686 26.63 20.7797 26.4609 20.6456 26.2738L20.6334 26.257C20.6293 26.2511 20.6254 26.2451 20.6218 26.2388L20.6115 26.2208C20.4782 25.9872 20.4233 25.7299 20.4233 25.4712C20.4233 25.2235 20.4843 24.9587 20.6612 24.7334L20.6631 24.731L20.6641 24.7298C20.8518 24.4943 21.1214 24.3497 21.4382 24.3497C21.6261 24.3497 21.7945 24.4117 21.9209 24.472C22.0515 24.5345 22.1843 24.6183 22.3162 24.7135C22.5891 24.8954 22.8512 25.0385 23.1028 25.1458C23.3236 25.2258 23.6247 25.2759 24.0231 25.2759C24.5098 25.2759 24.803 25.1789 24.9727 25.059C25.0453 25.0078 25.0933 24.9526 25.1248 24.8885C25.1567 24.8234 25.1777 24.7365 25.1777 24.6136C25.1777 24.4507 25.1415 24.3949 25.1326 24.3831L25.1197 24.3662C25.0992 24.3371 25.0209 24.2561 24.7969 24.1637L24.7778 24.1558C24.5534 24.0538 24.1923 23.9382 23.6717 23.8155C22.7336 23.5897 21.9644 23.2668 21.4615 22.7948C20.9284 22.2944 20.6849 21.6242 20.6849 20.8576C20.6849 20.2578 20.8369 19.7048 21.1535 19.2196C21.4623 18.7462 21.8842 18.38 22.4019 18.119L22.4061 18.1169C22.6284 18.0074 22.8615 17.9214 23.103 17.8588V17.12Z" fill="#004ADD"/>
<path fill-rule="evenodd" clip-rule="evenodd" d="M15.1599 10.7002C13.9645 10.7002 13 11.7024 13 12.9329V35.3762C13 36.561 14.2209 37.3304 15.2429 36.7721L18.9485 34.748L23.2856 37.1171C23.7325 37.3612 24.2675 37.3612 24.7144 37.1171L29.0515 34.748L32.7571 36.7721C33.7791 37.3304 35 36.561 35 35.3762V12.9329C35 11.7024 34.0356 10.7002 32.8402 10.7002H15.1599ZM14.7941 12.9329C14.7941 12.7196 14.9604 12.5514 15.1599 12.5514H32.8402C33.0395 12.5514 33.2059 12.7196 33.2059 12.9329V34.9227L29.7659 33.0436C29.3189 32.7995 28.784 32.7995 28.337 33.0436L24 35.4127L19.6629 33.0436C19.216 32.7995 18.6811 32.7995 18.2341 33.0436L14.7941 34.9227V12.9329Z" fill="#004ADD"/>
</g>
<defs>
<clipPath id="clip0_1296_9220">
<rect width="22" height="28" fill="white" transform="translate(13 10)"/>
</clipPath>
</defs>
</svg>
