<svg width="48" height="48" viewBox="0 0 48 48" fill="none" xmlns="http://www.w3.org/2000/svg">
<circle cx="24" cy="24" r="24" fill="#E6EDFC"/>
<g clip-path="url(#clip0_1296_9228)">
<path fill-rule="evenodd" clip-rule="evenodd" d="M29.6124 10C28.9436 10 28.3966 10.5344 28.3966 11.1995V12.7835H19.6252V11.1995C19.6252 10.5345 19.0782 10 18.4093 10C17.7403 10 17.1933 10.5345 17.1933 11.1995V12.7835H14.6628C12.085 12.7835 10 14.9059 10 17.5182V33.2654C10 35.8776 12.085 38 14.6628 38H33.3369C35.9146 38 37.9997 35.8776 37.9997 33.2654V17.5182C37.9997 14.9059 35.9146 12.7835 33.3369 12.7835H30.8284V11.1995C30.8284 10.5344 30.2815 10 29.6124 10ZM12.3989 17.5182C12.3989 16.2438 13.415 15.2153 14.6628 15.2153H17.1933V16.4639C17.1933 17.1289 17.7403 17.6634 18.4093 17.6634C19.0782 17.6634 19.6252 17.1289 19.6252 16.4639V15.2153H28.3966V16.4638C28.3966 17.1289 28.9436 17.6633 29.6124 17.6633C30.2815 17.6633 30.8284 17.1289 30.8284 16.4638V15.2153H33.3369C34.5846 15.2153 35.6007 16.2438 35.6007 17.5182V19.7461H12.3989V17.5182ZM12.3989 33.2654V22.1779H35.6007V33.2654C35.6007 34.5397 34.5846 35.5682 33.3369 35.5682H14.6628C13.415 35.5682 12.3989 34.5397 12.3989 33.2654Z" fill="#004ADD"/>
</g>
<defs>
<clipPath id="clip0_1296_9228">
<rect width="28" height="28" fill="white" transform="translate(10 10)"/>
</clipPath>
</defs>
</svg>
