<svg width="138" height="41" viewBox="0 0 138 41" fill="none" xmlns="http://www.w3.org/2000/svg">
<path d="M132.17 0H5.28023C2.4781 0 0.206543 2.29365 0.206543 5.12301V35.877C0.206543 38.7064 2.4781 41 5.28023 41H132.17C134.972 41 137.243 38.7064 137.243 35.877V5.12301C137.243 2.29365 134.972 0 132.17 0Z" fill="white"/>
<path d="M69.3761 22.2931C66.9852 22.2931 65.0441 24.1256 65.0441 26.6512C65.0441 29.1769 66.9931 31.0093 69.3761 31.0093C71.759 31.0093 73.708 29.1609 73.708 26.6512C73.708 24.1415 71.759 22.2931 69.3761 22.2931ZM69.3761 29.2964C68.0662 29.2964 66.9378 28.2048 66.9378 26.6512C66.9378 25.0976 68.0662 24.006 69.3761 24.006C70.6859 24.006 71.8142 25.0816 71.8142 26.6512C71.8142 28.2208 70.6859 29.2964 69.3761 29.2964ZM59.923 22.2931C57.5322 22.2931 55.5911 24.1256 55.5911 26.6512C55.5911 29.1769 57.54 31.0093 59.923 31.0093C62.306 31.0093 64.255 29.1609 64.255 26.6512C64.255 24.1415 62.306 22.2931 59.923 22.2931ZM59.923 29.2964C58.6132 29.2964 57.4848 28.2048 57.4848 26.6512C57.4848 25.0976 58.6132 24.006 59.923 24.006C61.2329 24.006 62.3613 25.0816 62.3613 26.6512C62.3613 28.2208 61.2329 29.2964 59.923 29.2964ZM48.6789 23.6316V25.48H53.0582C52.924 26.5237 52.5848 27.2806 52.064 27.8065C51.4248 28.4518 50.4306 29.1609 48.6789 29.1609C45.9803 29.1609 43.8735 26.9619 43.8735 24.2371C43.8735 21.5123 45.9803 19.3133 48.6789 19.3133C50.1308 19.3133 51.196 19.8949 51.9851 20.6358L53.2791 19.3292C52.1823 18.2695 50.7304 17.4648 48.6867 17.4648C44.9939 17.4648 41.885 20.5004 41.885 24.2371C41.885 27.9738 44.9939 31.0093 48.6867 31.0093C50.6831 31.0093 52.1902 30.3481 53.3659 29.1131C54.5732 27.8941 54.9519 26.1732 54.9519 24.7868C54.9519 24.3566 54.9204 23.9582 54.8572 23.6316H48.6946H48.6789ZM94.6735 25.0657C94.3105 24.0937 93.2216 22.2931 90.9807 22.2931C88.7397 22.2931 86.9091 24.0618 86.9091 26.6512C86.9091 29.0972 88.7397 31.0093 91.1937 31.0093C93.1742 31.0093 94.3184 29.7903 94.7918 29.0812L93.3163 28.0933C92.827 28.8183 92.1563 29.2964 91.1937 29.2964C90.231 29.2964 89.5446 28.8502 89.1027 27.9738L94.8786 25.5597L94.6814 25.0657H94.6735ZM88.787 26.5158C88.7397 24.8346 90.0811 23.9742 91.0438 23.9742C91.7934 23.9742 92.4325 24.3566 92.6456 24.8984L88.787 26.5158ZM84.0921 30.7464H85.9859V17.9349H84.0921V30.7464ZM80.9832 23.2651H80.9201C80.494 22.7552 79.6734 22.2931 78.6476 22.2931C76.4855 22.2931 74.5129 24.2052 74.5129 26.6671C74.5129 29.1291 76.4934 31.0093 78.6476 31.0093C79.6812 31.0093 80.494 30.5472 80.9201 30.0214H80.9832V30.6508C80.9832 32.316 80.0994 33.2083 78.6791 33.2083C77.5192 33.2083 76.8011 32.3638 76.5013 31.6547L74.8522 32.3479C75.3256 33.5031 76.5881 34.9213 78.6791 34.9213C80.9043 34.9213 82.7823 33.5987 82.7823 30.3799V22.556H80.9832V23.2651ZM78.8054 29.2884C77.4955 29.2884 76.3987 28.1809 76.3987 26.6592C76.3987 25.1374 77.4955 23.9981 78.8054 23.9981C80.1152 23.9981 81.1095 25.1215 81.1095 26.6592C81.1095 28.1969 80.0995 29.2884 78.8054 29.2884ZM103.558 17.927H99.0212V30.7385H100.915V25.8863H103.558C105.657 25.8863 107.725 24.3486 107.725 21.9106C107.725 19.4726 105.657 17.9349 103.558 17.9349V17.927ZM103.606 24.1016H100.915V19.7116H103.606C105.018 19.7116 105.823 20.8988 105.823 21.9106C105.823 22.9225 105.018 24.1096 103.606 24.1096V24.1016ZM115.315 22.2612C113.942 22.2612 112.522 22.8747 111.938 24.2212L113.619 24.9303C113.982 24.2212 114.645 23.9901 115.347 23.9901C116.325 23.9901 117.32 24.5797 117.335 25.6393V25.7748C116.996 25.5756 116.254 25.2808 115.363 25.2808C113.548 25.2808 111.709 26.2847 111.709 28.165C111.709 29.878 113.193 30.9854 114.858 30.9854C116.128 30.9854 116.83 30.4118 117.272 29.7346H117.335V30.7225H119.166V25.8067C119.166 23.528 117.485 22.2612 115.315 22.2612ZM115.087 29.2804C114.463 29.2804 113.603 28.9697 113.603 28.1889C113.603 27.201 114.684 26.8185 115.615 26.8185C116.452 26.8185 116.838 27.0018 117.343 27.2488C117.193 28.4359 116.183 29.2725 115.087 29.2725V29.2804ZM125.826 22.54L123.656 28.0933H123.593L121.336 22.54H119.292L122.669 30.3082L120.744 34.6265H122.717L127.925 22.54H125.818H125.826ZM108.766 30.7385H110.66V17.9349H108.766V30.7464V30.7385Z" fill="#050505"/>
<path d="M10.8038 7.73006C10.5118 8.04876 10.3303 8.53477 10.3303 9.17216V31.8393C10.3303 32.4767 10.5039 32.9627 10.8038 33.2814L10.8827 33.3531L23.4604 20.6531V20.3504L10.8827 7.65039L10.8038 7.7221V7.73006Z" fill="white"/>
<path d="M10.8827 33.8542L10.5592 33.5355C10.1804 33.1292 9.98315 32.5475 9.98315 31.8384V9.16336C9.98315 8.45426 10.1804 7.87265 10.5513 7.47428L10.8906 7.13965L23.8234 20.1981V20.7957L10.8906 33.8462L10.8827 33.8542ZM10.9064 8.19134C10.7643 8.44629 10.6933 8.77296 10.6933 9.17132V31.8384C10.6933 32.2368 10.7643 32.5635 10.9064 32.8184L23.0974 20.5009L10.9064 8.19134Z" fill="black"/>
<path d="M27.6426 24.8832L23.4526 20.6526V20.3498L27.6426 16.1191L27.7373 16.1749L32.7005 19.0272C34.1208 19.8399 34.1208 21.1704 32.7005 21.9831L27.7373 24.8354L27.6426 24.8912V24.8832Z" fill="white"/>
<path d="M27.5872 25.3285L23.0974 20.795V20.1975L27.5872 15.6641L32.8818 18.6996C33.6867 19.1617 34.1286 19.7991 34.1286 20.4923C34.1286 21.1854 33.6867 21.8228 32.8818 22.2849L27.5872 25.3205V25.3285ZM23.8155 20.5002L27.7134 24.4361L32.5425 21.6635C33.1106 21.3368 33.4263 20.9225 33.4263 20.4923C33.4263 20.062 33.1106 19.6557 32.5425 19.329L27.7134 16.5644L23.8155 20.5002Z" fill="black"/>
<path d="M27.7451 24.8263L23.4605 20.5L10.8118 33.2717C11.2773 33.7736 12.0506 33.8373 12.9186 33.3354L27.7451 24.8263Z" fill="white"/>
<path d="M11.7664 34.0445C11.293 34.0445 10.8669 33.8692 10.5434 33.5266L10.3066 33.2717L23.4525 19.998L28.321 24.9139L13.0841 33.6541C12.6265 33.917 12.1767 34.0445 11.7664 34.0445ZM11.3403 33.2398C11.7033 33.4071 12.1925 33.3354 12.7291 33.0326L27.1532 24.7546L23.4446 21.0099L11.3324 33.2398H11.3403Z" fill="black"/>
<path d="M27.7454 16.1736L12.9188 7.66446C12.0509 7.16252 11.2776 7.22626 10.812 7.7282L23.4607 20.4999L27.7454 16.1736Z" fill="white"/>
<path d="M23.4527 21.0098L10.3069 7.73615L10.5436 7.48119C11.1512 6.83584 12.0981 6.78803 13.0844 7.35372L28.3212 16.0939L23.4527 21.0098ZM11.3406 7.76802L23.4527 19.9979L27.1613 16.2532L12.7372 7.97517C12.2006 7.66444 11.7114 7.6007 11.3485 7.76802H11.3406Z" fill="black"/>
<path opacity="0.2" d="M27.6503 24.7383L12.9184 33.1916C12.0978 33.6617 11.3561 33.6298 10.8826 33.1996L10.8037 33.2793L10.8826 33.351C11.3561 33.7812 12.0899 33.8131 12.9184 33.343L27.7449 24.8339L27.6503 24.7383Z" fill="#050505"/>
<path opacity="0.12" d="M10.8038 33.1276C10.5118 32.8089 10.3303 32.3229 10.3303 31.6855V31.8369C10.3303 32.4743 10.5039 32.9603 10.8038 33.279L10.8827 33.1993L10.8038 33.1276Z" fill="#050505"/>
<path opacity="0.12" d="M32.708 21.8307L27.6501 24.7308L27.7448 24.8264L32.708 21.9741C33.4182 21.5678 33.7733 21.034 33.7733 20.4922C33.7101 20.9782 33.3551 21.4562 32.708 21.8227V21.8307Z" fill="#050505"/>
<path d="M42.1138 13.3217V7.1709H43.976C44.915 7.1709 45.6567 7.45772 46.2248 8.0234C46.785 8.58909 47.0691 9.33005 47.0691 10.2463C47.0691 11.1625 46.785 11.8955 46.2248 12.4692C45.6646 13.0428 44.915 13.3217 43.976 13.3217H42.1138ZM42.8949 12.5648H43.976C44.6782 12.5648 45.2385 12.3656 45.6488 11.9513C46.0591 11.545 46.2643 10.9713 46.2643 10.2383C46.2643 9.50533 46.0591 8.93965 45.6488 8.53332C45.2385 8.12698 44.6782 7.91983 43.976 7.91983H42.8949V12.5568V12.5648Z" fill="#050505"/>
<path d="M48.166 13.3217V7.1709H48.9472V13.3217H48.166Z" fill="#050505"/>
<path d="M52.0559 13.4648C51.6141 13.4648 51.1801 13.3214 50.7619 13.0266C50.3358 12.7318 50.0596 12.3255 49.9333 11.7996L50.6514 11.5048C50.7382 11.8395 50.9118 12.1263 51.1722 12.3573C51.4405 12.5884 51.7324 12.7079 52.0638 12.7079C52.3952 12.7079 52.6951 12.6203 52.9397 12.437C53.1843 12.2538 53.3026 12.0148 53.3026 11.704C53.3026 11.3614 53.1843 11.0985 52.9397 10.9073C52.6951 10.724 52.3163 10.5488 51.7955 10.3894C51.259 10.2221 50.8487 9.99901 50.5725 9.72015C50.2963 9.44926 50.1543 9.0987 50.1543 8.67643C50.1543 8.25416 50.3279 7.85579 50.6751 7.52913C51.0223 7.20247 51.472 7.03516 52.0244 7.03516C52.5373 7.03516 52.9634 7.16263 53.2869 7.42556C53.6104 7.68848 53.8234 7.96734 53.9181 8.27806L53.208 8.58082C53.1527 8.38961 53.0344 8.20636 52.8292 8.03904C52.624 7.87173 52.3716 7.79205 52.048 7.79205C51.7482 7.79205 51.4878 7.8797 51.2826 8.04701C51.0696 8.21432 50.967 8.42944 50.967 8.67643C50.967 8.90748 51.0617 9.0987 51.259 9.25805C51.4562 9.41739 51.7403 9.56081 52.1191 9.68032C52.4189 9.77593 52.6714 9.87153 52.8687 9.96714C53.0659 10.0548 53.2711 10.1823 53.4841 10.3336C53.6893 10.485 53.8471 10.6762 53.9497 10.8993C54.0523 11.1224 54.1075 11.3853 54.1075 11.6881C54.1075 11.9909 54.0444 12.2538 53.926 12.4848C53.8077 12.7238 53.642 12.9071 53.4368 13.0425C53.2395 13.178 53.0186 13.2816 52.7898 13.3533C52.5609 13.425 52.3163 13.4568 52.0717 13.4568L52.0559 13.4648Z" fill="#050505"/>
<path d="M55.9936 13.3217H55.2124V7.1709H57.2876C57.8005 7.1709 58.2503 7.34618 58.6291 7.68878C59.0078 8.03137 59.1972 8.46958 59.1972 8.99542C59.1972 9.52127 59.0078 9.95947 58.6291 10.3021C58.2503 10.6526 57.8084 10.8199 57.2876 10.8199H55.9936V13.3137V13.3217ZM55.9936 10.071H57.3034C57.6349 10.071 57.8952 9.95947 58.0925 9.73639C58.2898 9.5133 58.3923 9.26631 58.3923 8.99542C58.3923 8.72453 58.2898 8.47754 58.0925 8.25446C57.8952 8.03137 57.627 7.91983 57.3034 7.91983H55.9936V10.063V10.071Z" fill="#050505"/>
<path d="M65.1625 12.5325C64.5628 13.1539 63.8211 13.4647 62.9294 13.4647C62.0378 13.4647 61.2961 13.1539 60.6964 12.5325C60.0967 11.911 59.7969 11.1541 59.7969 10.2538C59.7969 9.3535 60.0967 8.5966 60.6964 7.97515C61.2961 7.3537 62.0378 7.04297 62.9294 7.04297C63.8211 7.04297 64.5549 7.3537 65.1625 7.98312C65.7622 8.60457 66.0621 9.36944 66.0621 10.2618C66.0621 11.1541 65.7622 11.919 65.1625 12.5404V12.5325ZM61.2724 12.0146C61.7222 12.4767 62.2745 12.7078 62.9294 12.7078C63.5844 12.7078 64.1367 12.4767 64.5865 12.0146C65.0363 11.5525 65.2651 10.9629 65.2651 10.2458C65.2651 9.52878 65.0363 8.9392 64.5865 8.47709C64.1367 8.01499 63.5844 7.78393 62.9294 7.78393C62.2745 7.78393 61.7222 8.01499 61.2724 8.47709C60.8227 8.9392 60.5938 9.52878 60.5938 10.2458C60.5938 10.9629 60.8227 11.5525 61.2724 12.0146Z" fill="#050505"/>
<path d="M67.1589 13.3218V7.17105H68.1137L71.0727 11.9515H71.1043L71.0727 10.7643V7.16309H71.8538V13.3139H71.0332L67.9401 8.29445H67.9085L67.9401 9.48159V13.3139H67.1589V13.3218Z" fill="#050505"/>
<path d="M73.2505 13.3217V7.1709H74.0317V13.3217H73.2505Z" fill="#050505"/>
<path d="M75.4282 13.3217V7.1709H77.6297C78.1031 7.1709 78.5213 7.33025 78.8685 7.64894C79.2157 7.96763 79.3893 8.366 79.3893 8.84404C79.3893 9.13883 79.3104 9.39379 79.1605 9.61688C79.0106 9.83996 78.8133 10.0073 78.5608 10.1268V10.1587C78.8606 10.2622 79.1052 10.4375 79.3025 10.6925C79.4919 10.9474 79.5945 11.2342 79.5945 11.5689C79.5945 12.0708 79.413 12.4931 79.0422 12.8198C78.6792 13.1544 78.2452 13.3217 77.7481 13.3217H75.4282ZM76.2094 9.80809H77.6297C77.9217 9.80809 78.1584 9.71248 78.3399 9.5133C78.5214 9.31412 78.6082 9.099 78.6082 8.86794C78.6082 8.63689 78.5214 8.42177 78.3478 8.22259C78.1742 8.03137 77.9454 7.9278 77.6613 7.9278H76.2094V9.80809ZM76.2094 12.5648H77.7875C78.0874 12.5648 78.332 12.4612 78.5213 12.2461C78.7107 12.031 78.8054 11.7999 78.8054 11.5529C78.8054 11.306 78.7107 11.0749 78.5134 10.8598C78.3241 10.6526 78.0716 10.5491 77.756 10.5491H76.2173V12.5648H76.2094Z" fill="#050505"/>
<path d="M80.644 13.3217V7.1709H81.4252V12.5648H84.0607V13.3217H80.644Z" fill="#050505"/>
<path d="M88.6134 7.92764H85.8359V9.87964H88.3372V10.6206H85.8359V12.5726H88.6134V13.3295H85.0547V7.17871H88.6134V7.93561V7.92764Z" fill="#050505"/>
<path d="M95.431 7.92764H92.6535V9.87964H95.1548V10.6206H92.6535V12.5726H95.431V13.3295H91.8723V7.17871H95.431V7.93561V7.92764Z" fill="#050505"/>
<path d="M96.6543 13.3218V7.17105H97.609L100.568 11.9515H100.6L100.568 10.7643V7.16309H101.349V13.3139H100.529L97.4355 8.29445H97.4039L97.4355 9.48159V13.3139H96.6543V13.3218Z" fill="#050505"/>
</svg>
