<svg width="104" height="109" viewBox="0 0 104 109" fill="none" xmlns="http://www.w3.org/2000/svg">
<g clip-path="url(#clip0_456_2611)">
<path d="M35.4876 14.8672H8.3738C3.96709 14.8672 0.394775 18.3733 0.394775 22.6983V101.145C0.394775 105.517 5.14214 108.313 9.0729 106.256L22.0877 99.4431L38.0114 107.778C39.7471 108.687 41.8299 108.687 43.5655 107.778L59.4891 99.4431L72.5039 106.256C76.4346 108.313 81.1819 105.517 81.1819 101.145V68.3961C79.2387 68.8523 77.2403 69.1673 75.1981 69.3313V101.009L62.2665 94.24C60.5308 93.3315 58.448 93.3315 56.7123 94.24L40.7885 102.575L24.8647 94.24C23.129 93.3315 21.0463 93.3315 19.3107 94.24L6.37903 101.009V22.6983C6.37903 21.617 7.27211 20.7405 8.3738 20.7405H33.427C33.957 18.7144 34.6486 16.752 35.4876 14.8672Z" fill="#004ADD"/>
<path d="M86.4765 19.6403C85.4108 18.7944 83.8453 18.9529 82.9794 19.9961L68.5978 37.9544L63.2287 32.3348L63.168 32.2925C62.0502 31.5135 60.4979 31.7669 59.6998 32.8613C58.9138 33.9393 59.1541 35.4291 60.2269 36.2202L67.4752 43.3392L67.5261 43.3748C68.5946 44.1196 70.0719 43.9246 70.9001 42.927L86.8449 23.0624C87.7076 22.0175 87.5428 20.4862 86.4765 19.6403Z" fill="#004ADD"/>
<path fill-rule="evenodd" clip-rule="evenodd" d="M73.3173 0.186523C56.5366 0.186523 42.9329 13.5379 42.9329 30.0076C42.9329 46.4774 56.5366 59.8287 73.3173 59.8287C90.098 59.8287 103.702 46.4774 103.702 30.0076C103.702 13.5379 90.098 0.186523 73.3173 0.186523ZM47.7709 30.0076C47.7709 16.1603 59.2083 4.93484 73.3173 4.93484C87.4263 4.93484 98.8635 16.1603 98.8635 30.0076C98.8635 43.8549 87.4263 55.0801 73.3173 55.0801C59.2083 55.0801 47.7709 43.8549 47.7709 30.0076Z" fill="#004ADD"/>
</g>
<defs>
<clipPath id="clip0_456_2611">
<rect width="104" height="109" fill="white"/>
</clipPath>
</defs>
</svg>
