<svg width="121" height="76" viewBox="0 0 121 76" fill="none" xmlns="http://www.w3.org/2000/svg">
<path fill-rule="evenodd" clip-rule="evenodd" d="M78.9722 0C81.3302 0.00122051 83.4428 1.35818 84.4295 3.42905L84.7453 4.23784L90.4192 22.6698C99.8168 19.8656 107.287 21.1506 112.783 25.1725C114.872 26.7006 116.213 28.266 116.909 29.4223C117.713 30.7573 117.272 32.4852 115.925 33.2818C114.578 34.0782 112.835 33.6417 112.031 32.3066C111.696 31.7492 110.834 30.7441 109.41 29.7016C105.355 26.7347 99.73 25.7579 92.0648 28.0556L95.0337 37.7398C95.9702 37.6021 96.9286 37.5309 97.9039 37.5309C108.622 37.5309 117.311 46.1425 117.311 56.7655C117.311 67.3887 108.622 76 97.9039 76C87.1857 76 78.4971 67.3887 78.4971 56.7655C78.4971 49.0901 83.0331 42.4649 89.5928 39.379L86.8442 30.4129C84.2817 32.1641 81.9946 34.7147 79.647 38.2278L78.5833 39.8773C78.0062 40.8028 74.0839 47.5637 72.9504 49.2225C70.7031 52.512 68.5421 54.4307 65.8197 54.8166L64.7708 54.8888H60.0379C55.3011 54.8888 51.9667 53.417 48.7116 50.227L36.4099 55.3036C36.6943 56.5272 36.8447 57.8018 36.8447 59.1112C36.8447 68.4385 29.2157 76 19.8049 76C10.3941 76 2.76514 68.4385 2.76514 59.1112C2.76514 49.7836 10.3941 42.2222 19.8049 42.2222C25.8759 42.2222 31.2054 45.3691 34.2235 50.1069L44.8542 45.7217L42.7187 42.9872C41.1009 40.9576 39.6758 39.3507 38.0668 37.8074C36.3574 36.1677 34.5099 34.6798 32.4439 33.3146C25.1325 28.5475 17.0868 24.9919 8.60543 22.7828C4.60476 21.7143 2.12078 17.7592 2.9195 13.7296C3.65677 10.0099 6.95897 7.39779 10.6942 7.41934L11.6358 7.48084L15.1903 7.96111L17.9419 8.4138C18.6328 8.5348 19.3937 8.67241 20.259 8.83245L34.3477 11.505C42.3046 12.9554 47.691 13.675 53.434 13.9643L55.5886 14.0467L57.7731 14.0759C63.0951 14.2654 68.4188 14.0675 73.7021 13.4861C74.0621 13.3608 74.4433 13.3116 74.8251 13.3401C76.9922 13.0956 79.1528 12.7697 81.3035 12.3793L79.3131 5.88175C79.2821 5.78192 79.2101 5.70315 79.119 5.66173L78.9706 5.62965H67.1375C65.5693 5.62965 64.2973 4.3694 64.2973 2.81482C64.2973 1.45456 65.271 0.319659 66.5653 0.0571878L67.1375 0H78.9722ZM97.9039 43.1605C97.4991 43.1605 97.0988 43.1778 96.7028 43.2118L100.621 55.9458C101.077 57.4332 100.231 59.0059 98.7308 59.4586C97.4173 59.8543 96.039 59.2615 95.4084 58.1107L95.187 57.5847L91.275 44.8493C87.0433 47.1669 84.1775 51.6345 84.1775 56.7655C84.1775 64.2792 90.3226 70.3706 97.9039 70.3706C105.485 70.3706 111.63 64.2792 111.63 56.7655C111.63 49.2516 105.485 43.1605 97.9039 43.1605ZM19.8049 47.8518C13.531 47.8518 8.44506 52.8928 8.44506 59.1112C8.44506 65.3296 13.531 70.3706 19.8049 70.3706C26.0787 70.3706 31.1647 65.3296 31.1647 59.1112C31.1647 58.5705 31.1263 58.039 31.0521 57.519L20.8972 61.7093C19.4494 62.3075 17.7867 61.6289 17.1834 60.1936C16.6555 58.938 17.1138 57.5195 18.2065 56.7839L18.7126 56.5131L28.8676 52.3214C26.7936 49.6061 23.5059 47.8518 19.8049 47.8518ZM8.4929 14.8148C8.26948 15.9419 8.96428 17.0482 10.0662 17.3425C19.1266 19.7025 27.739 23.5085 35.58 28.6209C37.9523 30.1884 40.0659 31.8907 42.0168 33.7619C43.3764 35.0661 44.6073 36.3967 45.881 37.9131L47.1755 39.4973C47.508 39.9144 50.2467 43.4516 50.9819 44.3349C53.6887 47.5867 55.7582 48.974 58.9355 49.219L60.0379 49.2592H64.7708C65.572 49.2592 66.6821 48.3573 68.2475 46.0659C69.2408 44.6121 73.077 37.9993 73.7517 36.9173C77.2813 31.2574 80.7488 27.3289 85.1261 24.8274L82.9573 17.7816L81.5484 18.0554C79.8493 18.3519 78.1453 18.6102 76.437 18.8302L72.0444 27.5304C71.6593 28.2933 70.953 28.8314 70.1353 29.0161L69.5042 29.0864H55.3044C54.8746 29.0864 54.453 28.9897 54.0706 28.8069L53.5302 28.4695L40.6907 18.2877L37.206 17.7266C35.9928 17.5214 34.7235 17.2975 33.3848 17.0536L17.3838 14.034L14.6286 13.5725C13.3938 13.3812 12.2884 13.2344 10.9317 13.067C9.7817 12.9241 8.71632 13.6876 8.4929 14.8148ZM51.2717 19.4705L56.2971 23.4541H67.7462L69.7459 19.4952C67.047 19.6843 64.3453 19.7781 61.6497 19.7762L57.6711 19.7037C56.1913 19.7037 54.6842 19.6642 53.1457 19.5867L51.2717 19.4705Z" fill="#004ADD"/>
</svg>
