<svg width="104" height="109" viewBox="0 0 104 109" fill="none" xmlns="http://www.w3.org/2000/svg">
<g clip-path="url(#clip0_456_2611)">
<path d="M35.4876 14.8672H8.3738C3.96709 14.8672 0.394775 18.3733 0.394775 22.6983V101.145C0.394775 105.517 5.14214 108.313 9.0729 106.256L22.0877 99.4431L38.0114 107.778C39.7471 108.687 41.8299 108.687 43.5655 107.778L59.4891 99.4431L72.5039 106.256C76.4346 108.313 81.1819 105.517 81.1819 101.145V68.3961C79.2387 68.8523 77.2403 69.1673 75.1981 69.3313V101.009L62.2665 94.24C60.5308 93.3315 58.448 93.3315 56.7123 94.24L40.7885 102.575L24.8647 94.24C23.129 93.3315 21.0463 93.3315 19.3107 94.24L6.37903 101.009V22.6983C6.37903 21.617 7.27211 20.7405 8.3738 20.7405H33.427C33.957 18.7144 34.6486 16.752 35.4876 14.8672Z" fill="#004ADD" stroke="#004ADD"/>
<path d="M86.4765 19.6403C85.4108 18.7944 83.8453 18.9529 82.9794 19.9961L68.5978 37.9544L63.2287 32.3348L63.168 32.2925C62.0502 31.5135 60.4979 31.7669 59.6998 32.8613C58.9138 33.9393 59.1541 35.4291 60.2269 36.2202L67.4752 43.3392L67.5261 43.3748C68.5946 44.1196 70.0719 43.9246 70.9001 42.927L86.8449 23.0624C87.7076 22.0175 87.5428 20.4862 86.4765 19.6403Z" fill="#004ADD" stroke="#004ADD"/>
<path fill-rule="evenodd" clip-rule="evenodd" d="M72.9329 1.18652C56.9168 1.18652 43.9329 13.9295 43.9329 29.6489C43.9329 45.3682 56.9168 58.1112 72.9329 58.1112C88.9489 58.1112 101.933 45.3682 101.933 29.6489C101.933 13.9295 88.9489 1.18652 72.9329 1.18652ZM48.5504 29.6489C48.5504 16.4325 59.4667 5.71849 72.9329 5.71849C86.399 5.71849 97.3151 16.4325 97.3151 29.6489C97.3151 42.8652 86.399 53.579 72.9329 53.579C59.4667 53.579 48.5504 42.8652 48.5504 29.6489Z" fill="#004ADD" stroke="#004ADD"/>
</g>
<defs>
<clipPath id="clip0_456_2611">
<rect width="104" height="109" fill="white"/>
</clipPath>
</defs>
</svg>
