<svg width="116" height="76" viewBox="0 0 116 76" fill="none" xmlns="http://www.w3.org/2000/svg">
<path fill-rule="evenodd" clip-rule="evenodd" d="M76.9722 0C79.3302 0.00122051 81.4428 1.35818 82.4295 3.42905L82.7453 4.23784L88.4192 22.6698C97.8168 19.8656 105.287 21.1506 110.783 25.1725C112.872 26.7006 114.213 28.266 114.909 29.4223C115.713 30.7573 115.272 32.4852 113.925 33.2818C112.578 34.0782 110.835 33.6417 110.031 32.3066C109.696 31.7492 108.834 30.7441 107.41 29.7016C103.355 26.7347 97.73 25.7579 90.0648 28.0556L93.0337 37.7398C93.9702 37.6021 94.9286 37.5309 95.9039 37.5309C106.622 37.5309 115.311 46.1425 115.311 56.7655C115.311 67.3887 106.622 76 95.9039 76C85.1857 76 76.4971 67.3887 76.4971 56.7655C76.4971 49.0901 81.0331 42.4649 87.5928 39.379L84.8442 30.4129C82.2817 32.1641 79.9946 34.7147 77.647 38.2278L76.5833 39.8773C76.0062 40.8028 72.0839 47.5637 70.9504 49.2225C68.7031 52.512 66.5421 54.4307 63.8197 54.8166L62.7708 54.8888H58.0379C53.3011 54.8888 49.9667 53.417 46.7116 50.227L34.4099 55.3036C34.6943 56.5272 34.8447 57.8018 34.8447 59.1112C34.8447 68.4385 27.2157 76 17.8049 76C8.39408 76 0.765137 68.4385 0.765137 59.1112C0.765137 49.7836 8.39408 42.2222 17.8049 42.2222C23.8759 42.2222 29.2054 45.3691 32.2235 50.1069L42.8542 45.7217L40.7187 42.9872C39.1009 40.9576 37.6758 39.3507 36.0668 37.8074C34.3574 36.1677 32.5099 34.6798 30.4439 33.3146C23.1325 28.5475 15.0868 24.9919 6.60543 22.7828C2.60476 21.7143 0.12078 17.7592 0.9195 13.7296C1.65677 10.0099 4.95897 7.39779 8.69425 7.41934L9.63581 7.48084L13.1903 7.96111L15.9419 8.4138C16.6328 8.5348 17.3937 8.67241 18.259 8.83245L32.3477 11.505C40.3046 12.9554 45.691 13.675 51.434 13.9643L53.5886 14.0467L55.7731 14.0759C61.0951 14.2654 66.4188 14.0675 71.7021 13.4861C72.0621 13.3608 72.4433 13.3116 72.8251 13.3401C74.9922 13.0956 77.1528 12.7697 79.3035 12.3793L77.3131 5.88175C77.2821 5.78192 77.2101 5.70315 77.119 5.66173L76.9706 5.62965H65.1375C63.5693 5.62965 62.2973 4.3694 62.2973 2.81482C62.2973 1.45456 63.271 0.319659 64.5653 0.0571878L65.1375 0H76.9722ZM95.9039 43.1605C95.4991 43.1605 95.0988 43.1778 94.7028 43.2118L98.6208 55.9458C99.0773 57.4332 98.2313 59.0059 96.7308 59.4586C95.4173 59.8543 94.039 59.2615 93.4084 58.1107L93.187 57.5847L89.275 44.8493C85.0433 47.1669 82.1775 51.6345 82.1775 56.7655C82.1775 64.2792 88.3226 70.3706 95.9039 70.3706C103.485 70.3706 109.63 64.2792 109.63 56.7655C109.63 49.2516 103.485 43.1605 95.9039 43.1605ZM17.8049 47.8518C11.531 47.8518 6.44506 52.8928 6.44506 59.1112C6.44506 65.3296 11.531 70.3706 17.8049 70.3706C24.0787 70.3706 29.1647 65.3296 29.1647 59.1112C29.1647 58.5705 29.1263 58.039 29.0521 57.519L18.8972 61.7093C17.4494 62.3075 15.7867 61.6289 15.1834 60.1936C14.6555 58.938 15.1138 57.5195 16.2065 56.7839L16.7126 56.5131L26.8676 52.3214C24.7936 49.6061 21.5059 47.8518 17.8049 47.8518ZM6.4929 14.8148C6.26948 15.9419 6.96428 17.0482 8.06616 17.3425C17.1266 19.7025 25.739 23.5085 33.58 28.6209C35.9523 30.1884 38.0659 31.8907 40.0168 33.7619C41.3764 35.0661 42.6073 36.3967 43.881 37.9131L45.1755 39.4973C45.508 39.9144 48.2467 43.4516 48.9819 44.3349C51.6887 47.5867 53.7582 48.974 56.9355 49.219L58.0379 49.2592H62.7708C63.572 49.2592 64.6821 48.3573 66.2475 46.0659C67.2408 44.6121 71.077 37.9993 71.7517 36.9173C75.2813 31.2574 78.7488 27.3289 83.1261 24.8274L80.9573 17.7816L79.5484 18.0554C77.8493 18.3519 76.1453 18.6102 74.437 18.8302L70.0444 27.5304C69.6593 28.2933 68.953 28.8314 68.1353 29.0161L67.5042 29.0864H53.3044C52.8746 29.0864 52.453 28.9897 52.0706 28.8069L51.5302 28.4695L38.6907 18.2877L35.206 17.7266C33.9928 17.5214 32.7235 17.2975 31.3848 17.0536L15.3838 14.034L12.6286 13.5725C11.3938 13.3812 10.2884 13.2344 8.93168 13.067C7.7817 12.9241 6.71632 13.6876 6.4929 14.8148ZM49.2717 19.4705L54.2971 23.4541H65.7462L67.7459 19.4952C65.047 19.6843 62.3453 19.7781 59.6497 19.7762L55.6711 19.7037C54.1913 19.7037 52.6842 19.6642 51.1457 19.5867L49.2717 19.4705Z" fill="#004ADD"/>
</svg>
