<svg width="82" height="95" viewBox="0 0 82 95" fill="none" xmlns="http://www.w3.org/2000/svg">
<path d="M35.4876 0.867188H8.3738C3.96709 0.867188 0.394775 4.37328 0.394775 8.69829V87.1452C0.394775 91.5172 5.14214 94.313 9.0729 92.2556L22.0877 85.4431L38.0114 93.7784C39.7471 94.6869 41.8299 94.6869 43.5655 93.7784L59.4891 85.4431L72.5039 92.2556C76.4346 94.313 81.1819 91.5172 81.1819 87.1452V54.3961C79.2387 54.8523 77.2403 55.1673 75.1981 55.3313V87.0089L62.2665 80.24C60.5308 79.3315 58.448 79.3315 56.7123 80.24L40.7885 88.5752L24.8647 80.24C23.129 79.3315 21.0463 79.3315 19.3107 80.24L6.37903 87.0089V8.69829C6.37903 7.61701 7.27211 6.74049 8.3738 6.74049H33.427C33.957 4.7144 34.6486 2.75196 35.4876 0.867188Z" fill="#004ADD"/>
</svg>
