<svg width="91" height="91" viewBox="0 0 91 91" fill="none" xmlns="http://www.w3.org/2000/svg">
<path d="M65.2127 29.7386C63.6218 28.4525 61.2861 28.6935 59.9937 30.2796L38.5327 57.5838L30.5209 49.0399L30.4304 48.9755C28.7626 47.791 26.4462 48.1762 25.2552 49.8405C24.0819 51.4792 24.4404 53.7445 26.0415 54.9471L36.8577 65.7711L36.9337 65.8251C38.5285 66.9577 40.7326 66.6611 41.9688 65.1445L65.7619 34.9417C67.0496 33.3531 66.8035 31.0248 65.2127 29.7386Z" fill="#004ADD"/>
<path fill-rule="evenodd" clip-rule="evenodd" d="M45.5758 0.15918C20.5347 0.15918 0.234863 20.459 0.234863 45.5001C0.234863 70.5412 20.5347 90.841 45.5758 90.841C70.6169 90.841 90.9167 70.5412 90.9167 45.5001C90.9167 20.459 70.6169 0.15918 45.5758 0.15918ZM7.45434 45.5001C7.45434 24.4462 24.5219 7.37866 45.5758 7.37866C66.6295 7.37866 83.6971 24.4462 83.6971 45.5001C83.6971 66.5538 66.6295 83.6214 45.5758 83.6214C24.5219 83.6214 7.45434 66.5538 7.45434 45.5001Z" fill="#004ADD"/>
</svg>
