<svg width="96" height="95" viewBox="0 0 96 95" fill="none" xmlns="http://www.w3.org/2000/svg">
<path d="M67.2127 31.7386C65.6218 30.4525 63.2861 30.6935 61.9937 32.2796L40.5327 59.5838L32.5209 51.0399L32.4304 50.9755C30.7626 49.791 28.4462 50.1762 27.2552 51.8405C26.0819 53.4792 26.4404 55.7445 28.0415 56.9471L38.8577 67.7711L38.9337 67.8251C40.5285 68.9577 42.7326 68.6611 43.9688 67.1445L67.7619 36.9417C69.0496 35.3531 68.8035 33.0248 67.2127 31.7386Z" fill="#004ADD"/>
<path fill-rule="evenodd" clip-rule="evenodd" d="M47.5758 2.15918C22.5347 2.15918 2.23486 22.459 2.23486 47.5001C2.23486 72.5412 22.5347 92.841 47.5758 92.841C72.6169 92.841 92.9167 72.5412 92.9167 47.5001C92.9167 22.459 72.6169 2.15918 47.5758 2.15918ZM9.45434 47.5001C9.45434 26.4462 26.5219 9.37866 47.5758 9.37866C68.6295 9.37866 85.6971 26.4462 85.6971 47.5001C85.6971 68.5538 68.6295 85.6214 47.5758 85.6214C26.5219 85.6214 9.45434 68.5538 9.45434 47.5001Z" fill="#004ADD"/>
</svg>
