<svg width="48" height="48" viewBox="0 0 48 48" fill="none" xmlns="http://www.w3.org/2000/svg">
<circle cx="24" cy="24" r="24" fill="#E6EDFC"/>
<g clip-path="url(#clip0_418_918)">
<path fill-rule="evenodd" clip-rule="evenodd" d="M10 24C10 16.268 16.268 10 24 10C31.732 10 38 16.268 38 24C38 31.732 31.732 38 24 38C16.268 38 10 31.732 10 24ZM22.8685 11.6635C19.0861 12.0061 15.7944 14.0488 13.7639 17.0215L15.1037 18.3614C16.1846 19.4423 16.4985 21.0723 15.8964 22.4773L15.1872 24.1321C14.8723 24.8668 14.9962 25.7161 15.508 26.3302L17.5111 28.7339C17.9381 29.2464 18.2202 29.8637 18.3282 30.5218L19.1273 35.3923C19.6403 35.6119 20.1712 35.7981 20.7171 35.9478L23.0697 30.3518C23.2189 29.997 23.1343 29.5871 22.8569 29.3205C21.3818 27.9021 21.4787 25.5131 23.0639 24.2189L23.9111 23.5271C24.8199 22.7851 24.629 21.3458 23.5581 20.8664L21.0445 19.7412C20.7457 19.6075 20.4763 19.416 20.2517 19.1778C19.2381 18.1028 19.3808 16.3862 20.5579 15.4932L21.6088 14.696C21.9728 14.4198 22.2345 14.0304 22.3527 13.5891L22.8685 11.6635ZM24.5484 11.6245L23.9104 14.0063C23.6995 14.7935 23.2327 15.4882 22.5834 15.9807L21.5325 16.7779C21.1192 17.0915 21.0691 17.6942 21.425 18.0716C21.5038 18.1552 21.5984 18.2224 21.7033 18.2694L24.217 19.3946C26.383 20.3642 26.7692 23.2753 24.931 24.7762L24.0837 25.468C23.2479 26.1504 23.1968 27.4101 23.9746 28.158C24.7327 28.8869 24.9638 30.0072 24.5563 30.9767L22.3285 36.2757C22.8752 36.3494 23.4331 36.3875 24 36.3875C26.7603 36.3875 29.3099 35.4845 31.3693 33.958C30.7261 32.6727 30.5817 31.182 30.9858 29.7811C31.142 29.2393 31.0149 28.6553 30.6474 28.2275L30.6063 28.1796C29.3506 26.7182 28.1493 24.5435 28.9006 22.353C29.1192 21.716 29.4682 21.0558 30.0268 20.4972C31.9074 18.6167 33.7426 18.3895 35.1519 18.7458C35.1784 18.7525 35.2047 18.7594 35.2308 18.7664C34.9531 18.1716 34.6296 17.6024 34.2648 17.0635H31.6225C31.0656 17.0635 30.5156 17.1863 30.0114 17.4231C28.2619 18.245 26.1947 17.2851 25.6938 15.4181L25.6693 15.3267C25.3247 14.042 25.817 12.7059 26.8509 11.9422C26.107 11.767 25.3373 11.6588 24.5484 11.6245ZM35.9994 20.9116C35.9532 20.8768 35.9002 20.8387 35.8406 20.7988C35.5785 20.6231 35.2062 20.4228 34.7567 20.3091C33.917 20.0969 32.6599 20.1446 31.1671 21.6375C30.8225 21.982 30.5858 22.4106 30.426 22.8763C29.969 24.2084 30.6581 25.7654 31.8294 27.1287L31.8705 27.1766C32.5923 28.0168 32.8421 29.1638 32.5352 30.228C32.2819 31.1058 32.3278 32.0324 32.6489 32.8682C34.9553 30.6184 36.3875 27.4765 36.3875 24C36.3875 22.9337 36.2526 21.8989 35.9994 20.9116ZM29.001 12.6635C30.5022 13.3268 31.847 14.2795 32.9645 15.451H31.6225C30.8286 15.451 30.0444 15.626 29.3258 15.9636C28.4853 16.3585 27.4921 15.8973 27.2514 15.0003L27.2268 14.9088C27.0273 14.165 27.3966 13.3861 28.0987 13.0698L29.001 12.6635ZM11.6126 24C11.6126 22.0075 12.083 20.1248 12.9189 18.457L13.9635 19.5016C14.5781 20.1163 14.7566 21.0431 14.4142 21.8421L13.705 23.4969C13.1512 24.789 13.3692 26.2826 14.2692 27.3626L16.2723 29.7663C16.5151 30.0576 16.6755 30.4087 16.7369 30.783L17.3377 34.4451C13.895 32.2448 11.6126 28.3888 11.6126 24Z" fill="#004ADD"/>
</g>
<defs>
<clipPath id="clip0_418_918">
<rect width="28" height="28" fill="white" transform="translate(10 10)"/>
</clipPath>
</defs>
</svg>
