<svg width="48" height="48" viewBox="0 0 48 48" fill="none" xmlns="http://www.w3.org/2000/svg">
<circle cx="24" cy="24" r="24" fill="#E6EDFC"/>
<path d="M24.0714 36.1957C24.6632 36.1957 25.1429 35.7226 25.1429 35.1388C25.1429 34.5552 24.6632 34.082 24.0714 34.082C23.4797 34.082 23 34.5552 23 35.1388C23 35.7226 23.4797 36.1957 24.0714 36.1957Z" fill="#004ADD"/>
<path fill-rule="evenodd" clip-rule="evenodd" d="M17.5714 10.3389C15.954 10.3389 14.6428 11.6322 14.6428 13.2275V35.773C14.6428 37.3683 15.954 38.6616 17.5714 38.6616H30.4286C32.0459 38.6616 33.3572 37.3683 33.3572 35.773V13.2275C33.3572 11.6322 32.0459 10.3389 30.4286 10.3389H17.5714ZM16.2142 16.1161V31.4752H31.7858V16.1161H16.2142ZM31.7858 14.5661H16.2142V13.2275C16.2142 12.4882 16.8219 11.8889 17.5714 11.8889H30.4286C31.178 11.8889 31.7858 12.4882 31.7858 13.2275V14.5661ZM16.2142 35.773V33.0252H31.7858V35.773C31.7858 36.5123 31.178 37.1116 30.4286 37.1116H17.5714C16.8219 37.1116 16.2142 36.5123 16.2142 35.773Z" fill="#004ADD"/>
</svg>
