<svg width="48" height="48" viewBox="0 0 48 48" fill="none" xmlns="http://www.w3.org/2000/svg">
<circle cx="24" cy="24" r="24" fill="#E6EDFC"/>
<g clip-path="url(#clip0_418_1119)">
<path fill-rule="evenodd" clip-rule="evenodd" d="M19.5498 16.9092C17.937 16.8993 16.6287 18.1908 16.6387 19.8047C16.6487 21.4186 17.973 22.7263 19.5858 22.7361C21.1986 22.746 22.5068 21.4546 22.4969 19.8407C22.4869 18.2267 21.1626 16.9191 19.5498 16.9092ZM18.0915 19.8136C18.0866 19.0118 18.7386 18.357 19.5588 18.362C20.379 18.3671 21.0391 19.0299 21.0441 19.8317C21.049 20.6336 20.397 21.2884 19.5768 21.2833C18.7566 21.2783 18.0965 20.6155 18.0915 19.8136Z" fill="#004ADD"/>
<path fill-rule="evenodd" clip-rule="evenodd" d="M28.4143 25.2647C26.8015 25.2548 25.4933 26.5463 25.5032 28.1602C25.5132 29.7741 26.8374 31.0817 28.4502 31.0916C30.063 31.1014 31.3713 29.8101 31.3614 28.1962C31.3513 26.5822 30.0271 25.2745 28.4143 25.2647ZM26.956 28.169C26.9511 27.3672 27.6031 26.7124 28.4232 26.7175C29.2435 26.7225 29.9036 27.3853 29.9086 28.1872C29.9135 28.989 29.2615 29.6438 28.4413 29.6387C27.6212 29.6337 26.9609 28.9709 26.956 28.169Z" fill="#004ADD"/>
<path d="M27.9941 17.0193C28.3414 17.2199 28.4606 17.6642 28.26 18.0116L20.9958 30.5935C20.7952 30.9409 20.3509 31.0599 20.0035 30.8595C19.656 30.6588 19.537 30.2145 19.7376 29.8671L27.0018 17.2852C27.2024 16.9378 27.6466 16.8187 27.9941 17.0193Z" fill="#004ADD"/>
<path fill-rule="evenodd" clip-rule="evenodd" d="M24 10C16.268 10 10 16.268 10 24C10 31.7319 16.268 38 24 38C31.7319 38 38 31.7319 38 24C38 16.268 31.7319 10 24 10ZM11.5849 24C11.5849 17.1433 17.1433 11.5849 24 11.5849C30.8566 11.5849 36.4151 17.1433 36.4151 24C36.4151 30.8566 30.8566 36.4151 24 36.4151C17.1433 36.4151 11.5849 30.8566 11.5849 24Z" fill="#004ADD"/>
</g>
<defs>
<clipPath id="clip0_418_1119">
<rect width="28" height="28" fill="white" transform="translate(10 10)"/>
</clipPath>
</defs>
</svg>
