<svg width="48" height="48" viewBox="0 0 48 48" fill="none" xmlns="http://www.w3.org/2000/svg">
<circle cx="24" cy="24" r="24" fill="#E6EDFC"/>
<path d="M28.2607 34.6839C28.2413 34.6446 28.1984 34.656 28.1678 34.6475C27.4199 34.4436 27.0648 33.647 27.4388 32.9876C27.728 32.478 28.0126 31.9666 28.2607 31.4371C28.8434 30.1917 29.2761 28.9003 29.5578 27.5599C29.8494 26.1716 29.9705 24.7697 29.9146 23.3558C29.7982 20.4102 28.9874 17.6525 27.4793 15.0907C27.2324 14.6716 27.2124 14.2536 27.4799 13.8431C27.9573 13.1125 29.0562 13.1461 29.506 13.9011C29.9952 14.7234 30.4221 15.5758 30.7884 16.4567C31.2869 17.6565 31.6626 18.891 31.9166 20.1602C32.1465 21.311 32.2729 22.4726 32.2918 23.6451C32.307 23.7077 32.2953 23.7721 32.2988 23.8353C32.2988 23.9366 32.2988 24.038 32.2988 24.1393C32.2988 24.2003 32.2988 24.2612 32.2988 24.3221C32.3023 24.7076 32.3 25.0937 32.2706 25.4775C32.2212 26.1221 32.1418 26.7632 32.0289 27.4004C31.839 28.4749 31.5656 29.5289 31.1993 30.5601C30.9271 31.3266 30.6149 32.0771 30.2439 32.8048C30.0228 33.2381 29.7976 33.6686 29.5489 34.0877C29.4119 34.3178 29.2238 34.4897 28.9792 34.6099C28.8728 34.6623 28.7587 34.6606 28.6482 34.6845C28.5194 34.6839 28.3901 34.6839 28.2607 34.6839Z" fill="#004ADD"/>
<path d="M32.2917 24.1468C32.2917 24.0421 32.2917 23.9373 32.2917 23.8325C32.2982 23.824 32.3041 23.824 32.31 23.8331C32.31 23.9373 32.31 24.0415 32.31 24.1463C32.3041 24.1554 32.2982 24.1559 32.2917 24.1468Z" fill="#C1BFC3"/>
<path d="M32.3099 23.8342L32.3011 23.8337H32.2922C32.2922 23.771 32.2922 23.7084 32.2922 23.6457C32.2981 23.6452 32.3046 23.6457 32.3105 23.6463C32.3099 23.7089 32.3099 23.7716 32.3099 23.8342Z" fill="#DAD8DB"/>
<path d="M32.2917 24.1471C32.2976 24.1476 32.3035 24.1471 32.3094 24.1465C32.3094 24.2091 32.3094 24.2718 32.3094 24.3344L32.3006 24.3355L32.2917 24.335C32.2923 24.2723 32.2923 24.2097 32.2917 24.1471Z" fill="#D8D6D9"/>
<path d="M27.3828 24.0052C27.3705 26.8534 26.6403 29.5166 25.1798 31.9896C24.9122 32.4423 24.496 32.6325 23.9609 32.5744C23.5182 32.526 23.1243 32.1821 22.9996 31.7322C22.9126 31.419 22.9649 31.1224 23.1313 30.8417C23.6381 29.9875 24.0456 29.0907 24.3525 28.1511C24.5977 27.4006 24.7723 26.6353 24.8846 25.8558C24.9987 25.0615 25.0392 24.2643 25.0051 23.4648C24.9093 21.2401 24.3002 19.1537 23.1625 17.2165C22.9173 16.7997 22.8744 16.3846 23.1325 15.9672C23.5905 15.2253 24.6976 15.2292 25.1574 15.974C25.4749 16.4882 25.7489 17.0246 25.9958 17.5736C26.5332 18.7671 26.9184 20.005 27.1441 21.2896C27.3017 22.1887 27.3846 23.093 27.3828 24.0052Z" fill="#004ADD"/>
<path d="M22.6811 24.016C22.667 26.0602 22.1272 28.0572 21.0442 29.9152C20.7849 30.3599 20.2828 30.5842 19.7689 30.4869C19.285 30.3952 18.8946 29.9915 18.8323 29.5069C18.7994 29.249 18.854 29.0047 18.9875 28.7763C19.4232 28.0332 19.7548 27.2486 19.977 26.4212C20.1552 25.7584 20.2622 25.0859 20.2957 24.4009C20.3863 22.519 19.9541 20.7572 19.0104 19.1121C18.7482 18.6554 18.7435 18.2073 19.0734 17.7882C19.5919 17.1288 20.6209 17.2085 21.043 17.9294C21.4187 18.5717 21.7333 19.2414 21.9843 19.9389C22.2818 20.7651 22.4823 21.6136 22.5911 22.4819C22.6511 22.962 22.6805 23.4443 22.6811 24.016Z" fill="#004ADD"/>
<path d="M18.1343 23.9804C18.1196 25.478 17.6957 26.8303 16.8631 28.0626C16.5932 28.4623 16.0929 28.6605 15.6313 28.5568C15.1222 28.4429 14.7606 28.0688 14.6971 27.5768C14.6624 27.3035 14.7218 27.0456 14.8788 26.8127C15.2427 26.2712 15.5073 25.6898 15.6437 25.0554C15.9335 23.7082 15.6884 22.4532 14.9405 21.2893C14.7853 21.0473 14.6812 20.8007 14.6894 20.5103C14.7041 19.9768 15.1751 19.4814 15.7242 19.4307C16.2346 19.384 16.6203 19.5759 16.8966 19.9899C17.4669 20.8434 17.8427 21.7705 18.0237 22.7715C18.0978 23.1792 18.1296 23.5909 18.1343 23.9804Z" fill="#004ADD"/>
</svg>
