<svg width="48" height="48" viewBox="0 0 48 48" fill="none" xmlns="http://www.w3.org/2000/svg">
<circle cx="24" cy="24" r="24" fill="#E6EDFC"/>
<g clip-path="url(#clip0_418_1099)">
<path d="M30.0645 21.5035C30.474 21.0672 30.4522 20.3816 30.016 19.9722C29.5798 19.5627 28.8943 19.5844 28.4848 20.0206L22.9022 25.9683L20.9393 23.995C20.5173 23.5708 19.8314 23.569 19.4072 23.9909C18.983 24.4129 18.9812 25.0988 19.4032 25.523L21.6824 27.8143C22.374 28.5095 23.504 28.4931 24.1751 27.7781L30.0645 21.5035Z" fill="#004ADD"/>
<path fill-rule="evenodd" clip-rule="evenodd" d="M23.1814 36.8311C23.6983 37.0536 24.3007 37.0536 24.8175 36.831C37.1828 31.505 37.0834 23.9195 36.981 16.1172C36.9776 15.8639 36.9743 15.6104 36.9714 15.3568C36.9635 14.658 36.3063 14.1449 35.6181 14.2667C29.8402 15.2897 27.4238 13.3327 25.5901 11.8477C25.3593 11.6608 25.1378 11.4814 24.9199 11.3163C24.3703 10.8999 23.6317 10.9 23.0813 11.3154C22.8635 11.4798 22.6418 11.6584 22.4108 11.8446C20.5683 13.3294 18.1368 15.2889 12.3819 14.2679C11.6933 14.1457 11.0355 14.6591 11.0276 15.3583C11.0247 15.6186 11.0213 15.8786 11.0179 16.1382L11.0179 16.1403C10.9157 24.0006 10.818 31.5091 23.1814 36.8311ZM33.7021 26.2597C34.8433 23.3773 34.8617 20.2367 34.8194 16.5771C31.8151 16.9455 29.5392 16.558 27.7032 15.767C26.1361 15.0918 24.9099 14.093 24.1088 13.4404L23.999 13.351L23.8865 13.4421C23.081 14.095 21.8516 15.0915 20.283 15.7663C18.4471 16.5561 16.174 16.9451 13.1799 16.5783C13.1373 20.2717 13.1535 23.412 14.2943 26.2872C15.4815 29.2797 18.0264 32.245 23.9994 34.8242C29.9643 32.2469 32.5122 29.2648 33.7021 26.2597Z" fill="#004ADD"/>
</g>
<defs>
<clipPath id="clip0_418_1099">
<rect width="26" height="26" fill="white" transform="translate(11 11)"/>
</clipPath>
</defs>
</svg>
