<svg width="48" height="48" viewBox="0 0 48 48" fill="none" xmlns="http://www.w3.org/2000/svg">
<circle cx="24" cy="24" r="24" fill="#E6EDFC"/>
<g clip-path="url(#clip0_418_1106)">
<path d="M37.6002 19.6986C37.109 19.2372 36.4152 19.3773 36.0456 19.9087C32.8852 24.4527 28.4351 26.7089 24 26.7089C19.5649 26.7089 15.1147 24.4527 11.9544 19.9087C11.5848 19.3773 10.8909 19.2372 10.3998 19.6986C9.94435 20.1265 9.86503 20.9043 10.229 21.4323C10.9358 22.4576 11.7015 23.3825 12.515 24.2066L11.0305 26.8013C10.7148 27.3531 10.8138 28.1194 11.2902 28.526C11.5352 28.7351 11.8372 28.8096 12.1249 28.7473C12.4106 28.6854 12.6617 28.4936 12.8242 28.2097L14.234 25.7456C15.7698 26.9546 17.4285 27.8503 19.1471 28.4314L18.5832 31.0017C18.4451 31.6312 18.7397 32.3381 19.3364 32.5334C19.9615 32.738 20.534 32.2704 20.6739 31.6328L21.2555 28.9815C23.1845 29.34 25.1532 29.3181 27.0772 28.9158L27.6733 31.6328C27.8132 32.2704 28.3856 32.738 29.0107 32.5334C29.6074 32.3381 29.902 31.6312 29.7639 31.0017L29.1752 28.3184C30.8562 27.7088 32.4756 26.7954 33.9735 25.5798L35.3239 27.9401C35.4863 28.224 35.7375 28.4158 36.0232 28.4777C36.3109 28.54 36.6129 28.4655 36.8579 28.2564C37.3343 27.8498 37.4333 27.0835 37.1176 26.5317L35.6754 24.011C36.4181 23.2369 37.1197 22.3773 37.771 21.4323C38.135 20.9043 38.0556 20.1265 37.6002 19.6986Z" fill="#004ADD"/>
</g>
<defs>
<clipPath id="clip0_418_1106">
<rect width="28" height="14" fill="white" transform="translate(10 19)"/>
</clipPath>
</defs>
</svg>
